<svg viewBox="104.00000000000011 143 870.9999999999999 793.0000000000001" xmlns="http://www.w3.org/2000/svg" overflow="visible" xmlns:xlink="http://www.w3.org/1999/xlink" width="870.9999999999999px" height="793.0000000000001px"><g id="Master/Composition/Sticker" stroke="none" stroke-width="1" fill="none" fill-rule="evenodd"><g id="Stickers" fill="#a34f2b" transform="scale(1 1)"><g id="Stickers/Robot" stroke="none" stroke-width="1" fill="none" fill-rule="evenodd"><g id="Ink" transform="translate(106.000000, 146.000000)" fill="#a34f2b"><path d="M400.643484,249.697777 C425.404157,248.276829 393.970493,225.748116 391.024409,243.166515 C390.819512,247.473962 396.657687,249.886387 400.643484,249.697777 M329.679963,470.781964 C322.191538,447.80339 316.886372,412.645446 291.621764,401.536565 C286.103394,403.833021 267.536696,402.405701 270.983947,410.439472 C297.289653,433.517449 312.285885,473.143414 290.757874,502.942538 C288.962258,505.597098 285.07891,508.971689 288.163438,511.710359 C313.562336,519.941661 327.762516,489.719439 329.679963,470.781964 M237.216121,507.057551 C287.435223,509.041781 284.346542,470.218683 262.345054,440.739432 C255.780049,426.526131 237.610686,428.928361 224.357461,424.256437 C200.023195,417.49451 184.737615,445.199806 185.839628,464.058269 C191.515824,485.076827 211.147154,508.537121 237.216121,507.057551 M446.723117,246.812552 C446.558369,246.812552 446.392236,246.811278 446.227488,246.811278 C459.135988,89.6748398 346.568722,130.984278 342.685373,254.593994 C343.366517,288.356478 336.484476,279.249669 372.126831,291.764204 C377.102501,293.364842 381.096604,292.972329 380.030587,287.50391 C378.331882,255.250306 356.493757,224.225217 378.691836,194.090928 C381.369339,188.057953 394.327678,187.553294 394.938215,195.246802 C394.443971,204.289892 376.591643,228.242102 396.890273,225.217969 C412.444433,222.992879 436.546113,241.573524 422.60067,253.844651 C413.773493,261.793038 390.847201,253.718486 390.447098,268.035013 C391.405129,277.279458 390.488631,293.897538 402.434947,296.674439 C459.224592,296.617092 445.355292,291.460899 446.723117,246.812552 M476.045513,279.888139 C482.848641,344.53553 366.878426,320.511954 329.973464,301.411357 C295.887217,263.002437 345.152442,252.363807 255.886651,282.699449 C246.345105,288.16532 187.341743,297.51299 193.915055,306.752337 C254.489753,325.845287 319.163772,339.76293 375.507628,367.935928 C381.464865,371.886545 387.481632,376.340548 395.177723,372.605303 C419.557675,362.614064 444.653382,354.382762 471.033847,350.198931 C481.450359,347.336645 597.211523,328.72414 572.367784,317.320875 C540.348503,304.387064 512.132273,284.863368 481.641411,269.230393 C475.098557,266.662492 476.541142,279.029199 476.045513,279.888139 M177.678366,427.438596 C213.740206,403.839392 264.85504,378.765717 308.900934,386.136804 C337.918753,404.906059 349.138239,441.372805 349.444199,472.665517 C339.776669,534.788336 288.192511,524.911793 237.594072,525.792398 C209.527362,534.118005 186.58584,499.843215 183.008452,509.122068 C182.384071,518.676189 179.839474,530.079455 192.602607,533.361016 C222.88165,549.503748 253.276985,565.464241 283.382973,581.878419 C309.25535,597.044966 335.454454,611.690286 362.700193,624.692915 C369.748366,610.682242 362.751417,592.25325 366.87012,576.822903 C374.401462,528.176787 371.807026,478.96484 373.937676,430.000125 C370.734086,417.3059 383.821178,399.498811 373.33683,390.179178 C312.488012,358.957832 242.42853,344.838836 176.691262,324.138876 C171.680981,322.753611 169.915823,327.654925 170.540204,331.497219 C177.899876,363.12637 167.182942,396.792001 177.678366,427.438596 M607.762325,438.01478 C607.575425,438.017329 607.388526,438.019878 607.201627,438.021152 C605.310485,407.754327 607.010575,377.479855 607.662645,347.199011 C608.804806,334.50606 592.198473,341.786665 584.654671,343.038119 C549.196446,354.861934 512.061666,360.638756 475.407287,368.346283 C452.515605,373.125255 429.716681,378.281448 406.820846,383.04003 C393.305963,385.527644 396.778133,400.574398 395.503066,409.989611 C414.18744,689.475391 286.406586,628.042019 560.696972,582.974397 C575.431545,576.687818 604.424445,578.956237 609.802986,563.295225 C608.850493,521.525731 606.863824,479.819957 607.762325,438.01478 M637.516665,451.918404 C635.336175,482.747237 636.553096,523.355759 633.367505,555.614461 C631.707563,562.479614 643.915537,558.906217 641.739201,564.875472 C636.518485,571.992955 635.85534,590.476746 625.022113,590.002672 C556.143555,603.911394 484.56396,622.699765 414.338344,637.032859 C401.508758,638.136483 388.352444,650.015097 375.88558,644.586184 C368.44561,642.626168 359.067428,645.55982 352.019254,640.542536 C311.740416,621.25078 271.467116,601.864719 231.955256,581.27818 C213.394097,567.444648 165.982634,553.679933 161.758714,532.510996 C162.133897,479.728201 119.77148,314.857474 176.912772,289.508529 C219.016299,270.153054 264.24035,257.725177 308.298703,242.842819 C322.677476,236.98571 317.139724,216.061457 325.136238,204.524381 C336.739212,173.445767 355.499731,142.187464 388.464583,126.922788 C423.309502,107.350666 458.705427,140.020996 466.652101,170.510841 C471.7053,188.771613 473.884405,207.41088 475.011338,226.176312 C475.422516,231.644731 473.647666,238.916415 480.558781,241.462652 C625.382066,318.605463 629.968709,289.434615 637.516665,451.918404" id="Fill-1"/><path d="M625.181515,236.203429 C654.734148,245.175803 725.636457,229.630867 733.953309,263.917925 C734.56048,268.827797 729.120786,272.928758 724.914752,270.041804 C693.268761,255.350647 654.993576,261.771939 622.039409,249.554948 C611.269037,246.333405 613.282358,234.297168 625.181515,236.203429" id="Fill-3"/><path d="M698,400.712002 C697.526831,418.506944 679.880259,482.592791 657.179197,453.56069 C655.305835,435.590447 668.641468,418.693761 672.915161,401.313399 C680.963167,366.823943 692.759277,368.505294 698,400.712002" id="Fill-5"/><path d="M787.091692,400 C800.071723,401.763028 890.609364,413.52207 857.935539,433.860589 C841.781879,436.357363 707.333681,404.54897 787.091692,400" id="Fill-7"/><path d="M54.0916916,415 C67.0717231,416.763028 157.609364,428.52207 124.935539,448.860589 C108.781879,451.357363 -25.6663187,419.54897 54.0916916,415" id="Fill-7"/><path d="M247.406318,203.626419 C229.045167,198.153844 162.866562,193.636053 158,177.563218 C169.078576,160.543206 234.848297,181.407714 253.713647,186.546812 C263.568331,193.199871 262.108224,206.382994 247.406318,203.626419" id="Fill-9"/><path d="M799,587.443054 C799.074715,595.235229 788.270823,604.077458 781.487793,597.955127 C761.290302,576.831099 720.65749,575.463466 708.052486,547.165771 C707.316742,542.208744 714.497547,540.597807 718.223554,543.303619 C741.658875,560.340117 789.448848,559.121029 799,587.443054" id="Fill-11"/><path d="M620,164.51992 C612.758268,179.28997 564.253839,240.327031 546.749538,231.044346 C537.880141,227.251572 543.342476,217.751174 547.76476,212.72979 C561.823375,202.05171 602.781231,150.064344 620,164.51992" id="Fill-13"/><path d="M260.339866,58 C247.821824,53.4715185 144.789992,54.7120402 164.496915,35.2716413 C179.212176,29.4487582 339.00228,44.767341 260.339866,58" id="Fill-15"/><path d="M183.378169,752.909087 C167.169794,747.946345 117.827175,736.063002 120.563401,716.3982 C137.696854,706.037914 172.197818,725.665234 190.852635,731.039038 C206.559462,736.751439 202.244752,756.889776 183.378169,752.909087" id="Fill-17"/><path d="M357.57472,0 C387.244249,5.02715984 319.212496,59.7440123 307.361688,42.7333886 C303.079106,23.6924199 337.849886,0.260592583 357.57472,0" id="Fill-19"/><path d="M243,633.43844 C233.748893,644.250221 203.931596,689.564229 187.696007,676.731269 C175.108117,666.017246 236.506875,602.442805 243,633.43844" id="Fill-21"/><path d="M266,111.063102 C259.580681,130.55323 256.674307,159.337337 237.570032,170.791939 C207.150347,176.197309 258.291377,74.1620319 266,111.063102" id="Fill-23"/><path d="M807.51348,284.025015 C819.436441,288.033111 809.370527,299.419 801.426953,301.992914 C778.878477,309.655004 757.18253,330.152396 733.143166,328.949205 C729.511976,319.432831 796.057545,282.909398 807.51348,284.025015" id="Fill-25"/><path d="M74.51348,299.025015 C86.4364408,303.033111 76.3705271,314.419 68.426953,316.992914 C45.8784773,324.655004 24.1825299,345.152396 0.143165901,343.949205 C-3.48802438,334.432831 63.0575445,297.909398 74.51348,299.025015" id="Fill-25"/><path d="M598.404295,671 C583.543282,669.390788 572.245509,669.182447 560.961461,661.850882 C547.853243,664.85713 533.528912,648.802076 536.361934,637.412331 C537.771582,635.025994 540.102237,636.187847 541.695812,637.104293 C554.217935,644.320823 568.590306,646.245742 582.442467,649.637997 C591.807636,650.183774 614.458087,667.407073 598.404295,671" id="Fill-27"/><path d="M328.892281,790.309943 C304.090519,785.913869 296.776493,711.999968 328.846955,742.996994 C325.887006,755.489739 351.839782,792.767976 328.892281,790.309943" id="Fill-29"/><path d="M677.952149,18.8048461 C667.595441,37.5851789 640.563149,45.474675 623.44279,58.8877225 C620.174599,61.6514353 614.166649,58.8644763 615.096633,54.9126252 C627.723229,37.4766967 647.337953,24.128222 664.049788,9.88606067 C669.321559,6.4947009 678.752466,13.5667063 677.952149,18.8048461" id="Fill-31"/><path d="M39.163138,181 C57.1685345,182.784703 82.4775991,194.323909 85,210.996054 C73.3710209,221.350145 3.18999284,188.584989 39.163138,181" id="Fill-33"/><path d="M794.146465,508.787031 C796.651815,496.8967 794.212508,473.907623 806.655987,468 C825.818687,468.612143 812.812401,512.182451 811.11106,523.777528 C800.278471,538.446046 792.851435,518.567316 794.146465,508.787031" id="Fill-35"/><path d="M657,670.338168 C660.795193,656.980334 674.010498,623.490024 692.008577,626.149689 C706.884626,632.631977 661.683046,700.426279 657,670.338168" id="Fill-37"/><path d="M540.622923,760 C557.604638,765.506111 590.397344,762.318431 596,781.502893 C591.661837,793.760606 499.276617,770.691767 540.622923,760" id="Fill-39"/><path d="M169.640218,597.90219 C158.023369,598.769559 118.635625,593.916602 144.802602,581.404418 C179.574705,568.856728 228.294591,594.804261 169.640218,597.90219" id="Fill-41"/><path d="M435.267,678.931577 C428.9628,666.050891 462.2184,638.334663 467.8436,658.00392 C468.2104,673.965863 434.2016,718.760377 435.267,678.931577" id="Fill-43"/><path d="M705,181.090743 C689.224421,206.26744 673.399277,143.503483 673,132.896262 C685.099475,116.819115 702.805352,172.527735 705,181.090743" id="Fill-46"/><path d="M572.628404,105.745519 C570.997924,154.117756 546.070773,115.732207 548.119619,91.9780845 C550.495134,76.1139972 576.383667,81.6214726 572.628404,105.745519" id="Fill-48"/><path d="M280.000914,649.272274 C279.932783,645.028726 283.677226,636.867379 289.34186,641.261854 C297.624683,651.417945 323.885837,667.227489 316.800178,680.293945 C299.579636,685.17893 282.224221,663.622862 280.000914,649.272274" id="Fill-50"/><path d="M196.071474,127 C184.471194,126.839133 132.405786,116.359213 157.981022,102.2552 C169.054521,99.3543559 226.852141,122.037961 196.071474,127" id="Fill-52"/><path d="M195,261.324459 C179.274596,283.460469 158.157225,219.913196 181.135144,218 C193.919096,227.009577 189.681954,247.33825 195,261.324459" id="Fill-54"/><path d="M445.152345,85 C451.424222,86.3091605 485.118706,87.8577698 471.990145,99.3916559 C456.237523,100.962388 440.040449,104.360219 424.411668,99.4267924 C410.007541,86.802373 434.585924,85.5960194 445.152345,85" id="Fill-56"/><path d="M68,561.408453 C66.2650602,591.925375 32.8253094,520.837225 47.8881314,517 C65.5905201,519.122748 65.0674658,548.18876 68,561.408453" id="Fill-58"/><path d="M78.9366204,659.999928 C59.2820258,655.074116 42.2007285,653.770803 72.4506745,644.285366 C81.7249447,636.808053 91.3154312,641.244303 100.869377,641.926803 C118.848729,650.590616 88.4807285,660.387116 78.9366204,659.999928" id="Fill-60"/><path d="M308.053873,151 C354.587161,155.620007 296.441297,169.882792 292.022267,158.995785 C291.460725,153.072063 301.648699,151.3755 308.053873,151" id="Fill-63"/><path d="M480.138135,551.726579 C469.628565,550.095561 445.36848,559.938569 443.10922,547.991673 C441.485982,544.044355 441.000669,538.744177 446.224344,536.924769 C487.348687,528.982087 530.020222,529.817826 570.910896,519 C612.885572,547.34053 496.796377,552.53071 480.138135,551.726579" id="Fill-65"/><path d="M569,430.149432 C566.695897,446.64296 567.822561,501.855685 539,474.530222 C540.516399,462.900482 535.993276,393.01815 554.572938,400.56908 C572.347056,407.040022 566.944284,416.185279 569,430.149432" id="Fill-67"/><path d="M477.993032,457.244014 C484.856301,485.080544 454.71548,497.34026 445.635831,468.435577 C443.951994,456.797263 444.477584,412.366391 461.741433,415.122834 C474.946552,425.567702 478.011108,442.764463 477.993032,457.244014" id="Fill-69"/></g></g></g></g></svg>