<svg viewBox="38.39999999999998 38.39999999999998 947.2000000000003 704" xmlns="http://www.w3.org/2000/svg" overflow="visible" xmlns:xlink="http://www.w3.org/1999/xlink" width="947.2000000000003px" height="704px"><g id="Master/Doodles/Roller Skating" stroke="none" stroke-width="1" fill="none" fill-rule="evenodd"><path d="M436.795377,309.520335 C426.166155,310.198683 415.450187,309.922319 404.811929,309.584042 C403.763736,309.549945 401.258012,309.062719 400.619156,309.689025 C399.884517,310.410443 400.040842,314.383625 399.918854,315.367948 C399.000782,322.823498 398.080902,330.279945 397.162829,337.735495 C396.739937,341.158641 396.317949,344.582685 395.895961,348.005831 C395.77578,348.979386 394.583912,353.187658 395.15319,354.032004 C396.187829,355.568158 403.599278,355.918996 405.551989,356.294959 L428.811036,360.775109 C431.001398,361.196833 436.59116,361.296432 437.606823,363.026399 C438.2511,364.12378 437.858028,367.096489 437.933931,368.341922 L438.566462,378.619436 C439.395077,392.079624 440.223691,405.539812 441.051403,419 C457.512555,417.676503 473.973706,416.353903 490.433051,415.030407 C494.438776,414.708281 498.4445,414.387052 502.449321,414.064927 C503.402635,413.98776 505.401431,414.188752 506.180347,413.662045 C507.880047,412.510827 509.329445,407.585624 510.246614,405.816176 C512.584265,401.304622 514.921917,396.793965 517.260472,392.282411 C519.513184,387.93506 521.765896,383.587709 524.018608,379.240358 C524.596018,378.127723 526.035476,376.271239 526,375.054519 C525.958669,373.683466 523.913789,371.228491 523.274933,370.056635 C521.402643,366.621824 519.531256,363.187013 517.658063,359.752202 C508.387878,342.744145 499.118597,325.736088 489.848412,308.728929 C489.377629,307.866637 488.329436,304.732417 487.410459,304.255958 C485.624916,303.331753 479.380034,305.19093 477.456238,305.410765 C463.936353,306.954097 450.380322,308.653557 436.795377,309.520335" id="Accent" fill="#ece2d5"/><path d="M388.27651,63.5732458 C390.196072,68.3530512 392.890842,73.0751708 395.8071,77.321383 C398.862013,81.7703967 402.192435,79.5035269 406.926515,79.7126377 C411.303152,79.9064258 413.271334,82.9340265 413.222714,87.226207 C413.16149,92.6567798 408.846077,96.6235767 405.860491,100.721068 L407.585196,101.558281 C413.74341,104.56968 421.025017,108.467731 424.549211,114.341215 C425.405451,115.766233 425.994285,117.402165 426.047406,119.084065 C426.097826,120.747037 424.577123,123.791763 425.366736,125.328548 C425.943865,126.452519 427.892239,126.859924 428.929451,127.471934 C431.075002,128.738317 432.980159,130.376051 435.100501,131.688402 C448.996618,140.29079 462.061705,150.56967 475.467128,159.652472 C487.572434,167.852862 500.394425,175.158222 512.637486,183.354106 C528.205567,193.775397 544.574966,202.641878 561.239683,211.209113 C565.083309,213.185752 568.647824,215.380514 572.337489,217.593304 C576.122592,219.862878 580.640586,221.396057 584.68139,223.233889 C587.513015,224.521002 590.601241,226.970844 593.573321,227.773037 C597.109025,228.727555 598.598216,224.976179 602.718252,225.948725 L603.348594,226.092624 C606.723643,226.841347 610.274528,227.347445 612.28455,230.358981 C614.156393,233.164852 613.981724,237.457032 616.996121,239.270528 C620.285709,241.24881 621.346947,239.369133 622.134485,236.707193 L622.279418,236.199663 C623.197783,232.878226 625.793513,229.079979 622.608049,226.688725 C619.599054,224.429967 615.335861,224.181197 611.815464,223.345655 C610.030955,222.922927 607.664816,221.378931 605.965841,221.239224 C603.843699,221.064364 603.346701,223.041903 601.543285,223.044608 C600.584404,223.045509 599.740769,222.11803 598.826907,221.823292 C598.620725,221.756593 598.07961,222.512817 597.831111,222.443414 C596.937957,222.192841 596.865928,221.894498 595.994382,221.536666 L595.217165,221.209005 C592.252206,219.920528 588.859031,217.933918 589.719791,214.373718 C590.22219,212.294327 593.629143,208.949454 591.251299,207.042219 C589.016612,205.248553 586.01662,208.988212 584.784931,205.245849 C583.910684,202.587797 586.043631,201.874838 583.330854,199.687286 C581.336562,198.078394 579.499833,197.641244 580.603671,194.691159 C581.313153,192.791134 585.006419,189.90234 583.947599,187.611134 C582.448504,184.369014 576.74564,187.647188 577.295758,181.78938 C577.688314,177.593642 582.963508,174.56514 582.998622,170.437004 C583.023832,167.482412 580.22192,167.503142 579.493531,165.583289 C578.800789,163.756239 579.384608,163.695257 580.367046,162.503671 L580.482123,162.360998 C581.261833,161.371327 581.768734,161.042338 582.351265,159.876004 C583.059846,158.458197 584.283432,156.622167 583.82335,154.972715 C583.410086,153.490011 581.674196,152.608501 581.238423,150.96626 C579.59257,144.778561 592.662159,130.721264 595.991681,139.239828 L596.29208,138.882235 C598.725169,135.911216 601.880091,130.411456 606.073884,130.871788 C608.715533,131.16202 607.586485,131.91554 608.503949,133.441508 C609.169313,134.549255 611.015046,135.111691 611.538154,136.309572 C612.573565,133.093591 611.475128,127.133932 614.353571,124.774224 C617.159085,122.474005 618.921985,126.521021 620.114959,128.772568 C620.882964,126.64811 621.37636,122.661483 624.024311,121.89895 C626.857736,121.08504 628.626038,124.63001 630.006286,126.435393 C631.492776,124.322653 634.280283,118.096197 637.490958,118.855125 C639.899414,119.42387 641.091487,123.444748 642.216934,125.300606 C644.852281,123.570034 649.004729,119.402238 652.416184,119.842993 C655.738503,120.27113 655.445887,123.386161 659.33183,122.111666 C662.149048,121.186891 665.077911,118.73074 668.068898,118.546867 C671.22195,118.353079 672.889412,120.563164 676.390903,120.026867 L676.868241,119.949645 C680.161742,119.388911 680.783387,118.727716 683.098566,121.627646 C684.295141,123.125673 683.978215,123.78275 686.053539,124.096416 C687.809236,124.362312 689.346146,123.202287 691.186477,123.933274 C692.547818,124.473176 693.498595,125.734151 694.068521,127.030278 C694.741989,128.560753 693.962279,131.213396 694.633946,132.417586 C695.926859,134.73403 700.814,132.689791 703.008171,134.298682 C705.967646,136.47001 703.181039,139.76621 704.756665,142.171886 C706.021667,144.103458 709.586182,143.611326 711.005146,146.218001 C712.290856,148.57861 711.989237,151.699049 710.497344,153.886601 C709.870695,154.805968 708.109596,155.5676 707.697232,156.399536 C706.846395,158.115688 707.560378,157.91559 708.054674,159.669598 C708.973992,162.925714 708.286868,164.213618 705.882167,166.384786 L705.658823,166.584677 C704.163329,167.912351 703.850905,167.531084 703.750966,169.548283 C703.674435,171.104897 704.998861,172.547942 704.753064,174.290232 C704.370686,176.997387 701.806971,178.742156 700.85118,181.323818 L700.731167,181.681219 C699.651638,185.262242 696.702067,187.221755 694.479084,190.169137 C697.107228,191.754593 700.560999,193.068747 701.835905,196.044971 C703.227858,199.291598 702.970356,203.912767 701.983564,207.206263 C701.037288,210.362755 699.011484,212.37725 697.06311,214.882074 C694.691569,217.932208 694.894149,220.350503 694.747391,224.073036 C694.436768,231.942635 691.060427,239.089359 683.341662,241.588774 C680.280447,242.580248 677.515449,244.038616 674.408315,244.963391 C670.790593,246.040707 668.09732,246.175397 664.444754,245.992686 L663.486397,245.937581 C661.118415,245.77586 658.494083,245.433476 657.683275,247.90266 C657.253804,249.2078 657.410467,254.287752 657.995699,255.446875 C658.996897,257.431625 661.833923,257.168434 663.543702,258.884585 C666.626526,261.979787 665.75498,264.618008 670.958146,264.690116 C687.813738,264.925365 704.61711,263.62383 721.472702,264.844245 C729.784802,265.44634 737.919532,266.883075 746.264945,267.305804 C755.449492,267.769994 764.658348,267.925024 773.835692,268.482954 C782.499832,269.009336 790.976698,270.144123 799.685856,269.695256 C807.080246,269.314235 814.208994,268.818498 821.530057,268.056355 L823.732603,267.819568 C826.503903,267.512211 830.796808,267.953867 832.755085,265.834817 C833.840016,264.660371 834.090316,262.645877 835.173446,261.352454 C836.073713,260.277606 837.262779,259.46997 838.386866,258.639773 L839.648075,257.692605 C842.308653,255.716718 844.935391,254.077109 848.470825,254.144439 C851.911991,254.210237 854.656281,256.696132 857.461795,258.524049 L858.569207,259.244191 C861.080434,260.85671 862.533072,261.522206 865.924255,260.799031 C869.772383,259.979713 873.300884,258.460054 877.054474,257.342393 C884.628829,255.087867 891.746817,251.88745 898.663734,248.094527 L900.52349,247.065716 C903.61276,245.377243 906.023423,244.366465 909.753657,245.45372 L910.272995,245.609889 C914.047883,246.784053 915.143542,248.064595 915.191816,252.235401 C915.207122,253.618056 914.680413,256.07601 916.269544,256.874597 C917.422902,257.454159 919.96281,255.837155 920.942399,255.411723 L923.92993,254.107546 C927.245168,252.662657 930.562373,251.261954 934.042601,250.207386 C937.345112,249.205817 940.681044,248.294815 944.005683,247.358547 L946.496345,246.649798 C949.964522,245.64931 954.588758,244.200857 958.04433,246.063025 C966.773296,250.766217 953.928796,262.717083 950.593872,266.692893 C954.752623,265.696011 963.680568,266.264756 965.868437,270.729093 C968.457865,276.012747 963.267304,281.252236 960.337541,285.092845 C964.44047,286.961323 972.723759,285.354234 973.879818,291.237279 C974.851303,296.17572 969.713863,301.150215 966.366334,304.03901 C957.698593,311.516525 944.258057,316.752409 932.812712,316.850655 C929.908159,316.875892 927.078335,316.309851 924.189989,316.171946 C922.075949,316.071897 920.168992,316.802884 918.115277,316.805588 C915.220628,316.809193 912.653708,316.240448 909.668123,316.648755 C906.226957,317.119254 902.813701,317.697013 899.357229,318.086392 C896.150156,318.446928 892.941282,318.775917 889.723404,319.026489 C887.603062,319.193237 884.404092,318.72454 882.43411,319.436599 C879.884298,320.357768 880.627993,321.278938 880.420911,323.731483 C880.165209,326.74286 878.640004,329.464906 876.421523,331.473092 C868.360622,338.768537 854.633772,337.017233 850.583064,326.308414 C849.597172,323.703542 850.906292,322.342519 850.534445,319.994528 C850.160796,317.632116 847.963024,317.712336 845.811169,317.552798 C839.261069,317.067878 832.626334,317.022811 826.048323,316.569437 C813.315467,315.692433 800.19996,313.905977 787.472506,314.209729 C774.190433,314.526099 760.823726,313.726611 747.555158,313.005539 C741.3643,312.669339 734.950153,310.498011 728.856534,310.966708 C722.383864,311.463346 715.509634,310.068973 709.002751,309.392968 L707.317201,309.222843 C693.212676,307.838532 677.704351,307.210027 664.779893,301.398985 L665.12563,306.051859 C666.064182,319.073023 666.350097,331.918948 655.784421,341.630291 L654.947052,342.394678 C650.137243,346.753315 644.243789,351.507774 638.108603,353.3414 C629.735278,355.843519 621.708592,357.918404 613.187608,359.775164 C597.343118,363.228197 581.600367,371.491681 567.305391,378.915116 C560.581522,382.406907 552.691689,383.76793 545.402395,385.724739 L542.727264,386.454134 C539.991922,387.187389 537.109202,387.854605 534.378418,387.757261 C530.790493,387.62927 528.300105,385.191146 525.132647,383.735482 C522.102944,390.874094 518.01172,397.40971 514.962209,404.455483 C513.449608,407.950879 512.257535,411.667104 510.495536,415.04803 C509.152202,417.62496 506.977839,419.01032 506.772557,421.998262 C506.272859,429.252245 507.599986,436.818993 507.244345,444.154999 C506.856291,452.156193 505.612897,460.276364 504.880006,468.286571 C503.370835,484.773365 503.96944,501.368075 502.919227,517.885391 L502.74886,520.362384 C501.573893,536.198025 502.307685,551.911984 500.551087,567.762046 C500.145176,571.428246 499.70175,575.091317 499.36149,578.764819 L499.170839,580.970281 C498.940348,583.866286 497.336811,590.534399 498.846711,593.130257 C499.506673,594.265044 501.093102,594.386725 502.153724,594.955471 C503.808581,595.84329 505.313978,597.200708 506.551069,598.614009 C509.162106,601.597444 509.786054,605.149625 510.38119,608.950575 L511.100251,608.548196 C515.402755,606.08417 527.802729,598.415913 525.807915,608.021294 C525.150654,611.190405 522.275813,612.898444 520.007812,614.920149 C518.344852,616.401952 516.759323,617.973889 514.99012,619.332208 C513.797146,620.247969 511.268943,621.383657 510.692714,622.879882 C509.665406,625.554157 514.976615,629.372233 517.48321,629.342489 C521.004508,629.301928 525.400053,624.018274 528.383838,622.33367 C536.303382,617.861221 535.587598,627.519979 532.602013,631.717519 C530.391822,634.825951 532.184062,634.650336 535.178533,635.249563 L535.352605,635.285022 C540.195628,636.290918 544.668604,637.148993 549.591758,637.762806 C559.000494,638.937252 568.25887,637.421198 577.595577,639.593427 C586.74875,641.72425 592.2481,647.380062 593.70774,656.683896 L593.847238,657.618792 C594.539552,662.0051 595.306944,659.680097 599.403135,660.824488 C603.210413,661.888327 605.406766,666.146908 607.596711,669.173912 L608.073306,669.824278 C612.633254,676.126362 620.567913,690.917978 613.814257,697.91823 C610.886295,700.953041 603.776172,700.182395 599.921741,700.700666 C597.442157,701.03326 594.457472,702.189679 591.955378,701.59119 C589.576634,701.022444 587.994706,698.894381 586.278624,697.334161 L586.268847,699.59453 C586.199445,708.241984 585.59511,715.811558 578.595874,722.188609 C572.461739,727.77962 564.258582,730.345735 556.032916,729.779693 C547.972015,729.226271 539.694129,725.946295 534.5855,719.465661 C531.88983,716.046879 529.971168,711.852944 529.276092,707.54454 C528.954665,705.559789 528.862828,703.473187 529.173451,701.478522 C529.358025,700.294162 530.485272,698.145367 529.769488,697.000666 C528.544458,695.043584 522.652657,696.587174 520.489035,696.850687 L520.340945,696.867267 C515.878173,697.317937 511.42603,697.861871 506.978785,698.444299 L502.50235,699.037989 C498.675378,699.532876 494.798499,699.90171 490.976686,699.180106 L489.815654,698.961984 C486.941828,698.441541 485.84018,698.538281 486.369468,702.311384 L486.404671,702.552018 C487.780417,711.605977 485.489007,719.636916 478.043951,725.203591 C470.593493,730.773871 463.717463,731.877111 454.605845,730.410631 C446.28114,729.070339 438.665916,721.209754 436.241254,713.388827 C433.013472,702.980154 436.341193,693.498059 444.11488,686.391895 L442.56878,685.608041 C438.707944,683.629726 436.083793,681.965804 434.609806,677.075646 C432.871216,671.308874 434.496361,665.243758 435.318387,659.460761 C437.083988,647.0421 436.396115,634.955132 437.002956,622.495911 C437.269462,616.998639 438.404813,611.403121 438.42282,605.92027 L438.419118,605.161085 C438.382955,603.099537 438.066988,602.918083 436.005752,602.88892 L434.102862,602.875126 C432.415833,602.849081 430.79879,602.641844 430.090011,600.678979 C428.060606,595.068138 437.580085,595.542243 439.974136,593.307821 C442.829169,590.645263 440.857386,580.138344 440.773653,576.441048 C440.518587,565.137186 441.55555,554.080833 441.872092,542.833141 L441.922509,540.72185 C442.028752,535.311106 442.358282,529.621849 441.910805,524.230034 C441.731634,522.077634 440.500845,520.33895 440.582777,518.197366 C440.687219,515.454589 441.215729,512.89208 441.074373,510.038437 C439.83278,484.937924 439.559971,459.374123 442.78055,434.439456 C442.973227,432.945936 444.028446,429.584839 443.463921,428.08501 C442.608582,425.813633 439.894004,426.61853 437.996951,425.786593 C432.798544,423.508594 431.43363,419.918503 431.10756,414.690119 L430.832919,409.55425 L430.832919,409.55425 L430.322304,399.807274 L430.322304,399.807274 C430.217862,397.899137 431.002974,395.753047 430.957956,394.150464 C430.94265,393.635799 430.721162,392.866956 430.71666,392.563205 C430.101716,392.261256 429.863121,391.817797 429.997275,391.231926 C429.973351,390.759881 430.034759,390.29777 430.180932,389.846727 L430.255,389.638 L430.249073,389.616771 C430.181269,389.361103 429.886666,387.882186 429.856819,388.038479 C429.912641,387.753655 430.953454,386.067248 430.849013,385.862644 C430.36282,384.908125 429.332811,386.06815 428.988874,384.288905 C428.70166,382.795385 429.674046,381.038673 429.348117,379.290074 C428.47567,374.622035 429.298597,370.434409 429.95946,365.710487 L422.56875,364.767755 C414.72386,363.758195 406.79337,362.608652 399.275277,360.424129 L398.831035,360.294419 C395.327507,359.264601 391.33168,357.87742 391.295408,353.737088 C391.282803,352.412118 392.274997,350.019061 391.704171,348.772508 C391.118938,347.496211 387.47159,347.409682 385.78432,347.074384 C366.16283,343.183299 347.937794,335.576892 330.422239,326.052434 C312.706806,316.418012 296.342808,305.050313 279.626772,293.823223 C263.317696,282.870141 249.767316,269.493356 236.210634,255.426144 C234.327986,253.472039 232.395819,251.567508 230.451047,249.674694 C229.032083,248.29294 227.061201,245.478957 225.19566,244.729042 C221.842729,243.380638 217.155468,248.48763 214.190591,250.00819 C210.33436,251.98573 205.734433,252.284975 203.189123,248.117179 C201.508155,245.363586 203.071176,244.860638 203.311571,242.270187 C203.50965,240.140321 202.051971,238.932526 200.769862,237.449822 L200.123701,239.028933 C199.173096,241.300454 197.79274,243.948662 195.100311,243.523951 C192.07511,243.048044 191.742878,238.878445 191.527693,236.500711 C191.276493,233.729091 192.139936,230.208457 190.264491,227.965022 C188.788805,226.200198 185.905861,224.910381 184.016911,226.509358 C180.217402,229.725339 182.68168,239.303878 177.319151,241.691527 C169.757949,245.05713 170.495342,229.6992 170.335078,226.629236 C153.407457,228.501319 137.49724,235.89501 120.550712,238.315108 C113.653974,239.300272 105.687611,238.976691 99.668721,235.039639 C94.1342236,231.420759 88.3863415,223.457421 86.020202,217.346337 L85.3883325,217.809583 C79.9019494,221.785747 74.1383178,224.710183 67.1189975,222.903097 C59.7090554,220.994059 53.1904673,216.883048 50.4677863,209.435277 L50.2255467,208.750265 C47.78866,201.610629 48.7347782,196.13688 55.3486242,192.047529 C58.1406327,190.320562 60.3483093,189.475105 63.4212293,188.641365 C66.8236802,187.718393 71.1336915,187.049599 74.346167,185.587626 L73.6552307,184.587421 C70.5247897,180.089439 67.1619352,175.608457 65.7603581,170.224288 C64.0622839,163.702192 64.9095202,156.364384 67.5430659,150.197417 C72.3032558,139.051448 85.6843687,131.593761 97.7374542,134.140948 C108.256331,136.363652 115.699586,145.469889 118.686972,155.429695 L118.80533,155.842684 C119.977725,160.125392 119.023069,162.68311 124.391637,160.308648 C130.681534,157.526211 136.18632,153.432326 142.6833,150.977076 C148.319537,148.846308 154.466278,147.056247 159.688351,143.9971 L160.224901,143.678545 C162.038389,142.580433 162.18668,142.189516 161.569432,140.460999 L161.162236,139.373226 C159.793693,135.765162 158.948257,132.405869 159.253479,128.48504 C160.125925,117.258852 169.417614,109.300922 179.361162,105.607231 C190.633638,101.419606 204.611688,103.073565 213.058841,112.123017 C217.162671,116.519753 219.963683,122.298243 220.322025,128.348037 C220.482289,131.029523 218.883254,135.106283 219.774608,137.578658 C220.550716,139.730157 224.223274,141.379609 225.640437,143.436466 C227.887729,146.701119 228.929443,150.608428 231.159628,153.928964 L233.484423,157.374332 C234.644804,159.097679 235.796109,160.826738 236.911112,162.582728 C241.425504,169.68799 245.657184,176.968113 249.346849,184.538466 C251.035019,188.001414 252.619649,191.513936 254.166463,195.042681 C255.228885,197.462779 256.104932,201.883851 258.015491,203.811817 C259.944957,205.760514 262.821599,205.136787 264.478257,207.603754 C266.565286,210.709771 264.582698,213.456154 262.928742,216.161976 C275.504935,219.845752 283.227301,230.494182 293.290597,238.297982 C302.064826,245.099903 311.578429,251.115255 321.044963,256.979803 L325.522494,259.74897 C336.484411,266.528334 347.253772,273.00095 359.106105,278.035372 L360.427553,278.588777 C370.999175,282.952914 381.246994,288.032014 391.740376,292.561134 L394.608724,293.781762 C396.220364,294.457767 397.476362,295.353698 399.070896,294.304539 C400.545681,293.332894 400.841899,290.200738 402.383311,288.931652 C406.288161,285.715671 415.473608,287.500324 420.121253,287.427315 C426.824415,287.32276 433.623914,286.944197 440.321674,287.290312 C442.588774,287.406585 444.780244,288.310629 447.001426,288.011384 C450.405678,287.553503 453.58484,286.857669 457.127746,286.714356 C460.077318,286.594477 463.020586,286.376353 465.974659,286.48181 C467.375615,286.532285 469.744456,287.133479 471.000454,286.179861 C472.567076,284.992796 471.622601,282.14276 472.693127,280.414891 C473.387302,279.295427 474.759447,278.988971 475.431114,278.105658 C475.344679,278.218326 476.500738,276.224562 476.180211,276.477839 C478.244731,274.849117 484.019624,274.356084 486.459592,274.936547 C487.163672,275.104197 487.278918,276.29036 488.16577,276.293064 C488.990137,276.295588 489.104703,275.51844 489.623607,275.241131 L489.741395,275.189824 C490.388752,274.967193 490.562521,274.07036 491.428665,273.934257 C492.386646,273.782832 493.612933,274.859933 494.650144,274.920323 C495.817908,274.987022 496.932551,274.212771 498.019282,273.910823 C499.464356,273.510628 500.578098,273.804464 501.780976,273.662053 C503.975147,273.401566 506.334083,273.154598 508.612888,272.887802 C511.651745,272.532524 514.617972,271.63345 517.582309,270.879981 L519.454346,270.414497 C520.519328,270.150602 521.590641,269.903691 522.687276,269.820542 C524.375446,269.691651 526.572319,270.486632 528.165051,270.110774 C529.528192,269.789897 528.418052,269.303173 529.599321,268.893965 C530.876027,268.451407 532.256275,268.329726 533.55099,267.88176 C536.52487,266.85243 539.26916,265.141687 541.941421,263.511163 C548.164692,259.712015 553.733403,254.978178 559.885545,251.077179 C558.480988,249.03294 553.251711,248.686826 551.039533,247.963951 C547.994524,246.968872 545.007138,245.80344 542.028756,244.628092 C536.386515,242.400281 530.778664,240.082961 525.178107,237.752288 L521.818431,236.352891 C509.072971,231.043098 496.254581,225.919882 484.073645,219.404997 C472.631002,213.285801 460.41045,208.516811 449.064145,202.178589 C443.291953,198.954496 437.513459,195.56005 431.901531,192.062852 C426.674055,188.805409 421.048622,186.583607 415.632971,183.604678 C405.053771,177.784727 395.337113,170.544263 384.717397,164.847795 C382.209001,163.502996 379.424195,160.654762 376.71772,159.922874 C374.484258,159.318904 372.220093,160.490917 370.182523,161.391067 L369.929025,161.502022 C367.701541,162.466455 365.611811,164.049208 363.112419,164.103288 C360.497645,164.159802 357.523715,162.824488 355.006573,161.920347 L354.613044,161.781437 C349.787128,160.112155 345.595064,155.484676 343.840267,150.666113 C342.983127,148.310011 342.586069,145.69252 342.269143,143.213835 C341.893694,140.276369 342.885888,136.822434 342.170104,134.028281 C340.808763,128.713981 334.520667,123.724163 331.004771,119.912397 C326.638937,115.179461 322.854735,109.882286 319.408166,104.452615 L318.848748,103.560445 C311.44879,91.611995 306.463134,77.5678006 310.65309,63.6291288 L310.911293,62.7899811 C311.598653,60.6188786 312.705833,57.6794203 314.402179,56.4039883 C317.077141,54.390395 318.222396,56.7401881 320.536314,57.9074233 C323.410255,59.3576791 326.136538,60.2022346 328.831308,62.1725636 C332.096904,64.5602129 334.783571,67.4724421 337.794366,70.1431122 C337.809672,63.9761447 336.849891,58.5699081 338.18062,52.3939272 L338.412653,51.349651 C339.194791,47.9653649 340.796068,42.5731982 344.425499,42.0645721 C348.60946,41.4777998 351.608551,49.0598709 353.429074,51.8260831 C356.814418,56.9664244 360.59682,61.7894941 364.363015,66.6504201 L364.418255,65.6332016 C364.785683,57.6101684 364.254187,41.0541317 373.332376,38.2140481 C381.827249,35.5550955 386.219193,58.4500299 388.27651,63.5732458 Z M454.066531,693.403418 C452.490905,694.343516 450.922483,695.34851 449.453099,696.44544 C446.591763,698.581616 443.351377,701.491141 442.740934,705.218181 C441.190519,714.684053 453.964791,718.963615 460.900244,719.803663 L461.661981,719.701069 C469.575903,718.607762 481.221739,716.079213 480.820653,705.793236 C480.426699,695.685093 467.72165,693.536334 459.87821,692.559302 L457.948643,692.325153 C456.480571,692.159617 456.006178,692.244919 454.066531,693.403418 Z M560.681461,686.850677 C553.393068,689.437523 541.478637,691.452017 538.059079,700.001226 C534.224475,709.589274 551.249878,716.452907 558.219768,717.099094 L558.427867,717.116769 C565.605516,717.668389 578.361781,714.763371 579.362078,705.838303 C579.936506,700.700666 575.86419,697.422493 572.058378,694.859983 C568.168834,692.239788 562.61633,691.678254 560.681461,686.850677 Z M465.999135,702.975042 L465.997663,703.277505 C465.931062,706.085912 464.436001,712.387458 460.854486,711.981258 C457.993186,711.65722 457.611738,706.909923 457,704.682509 L457.097187,704.293424 C457.756671,701.481754 458.030813,696.908508 461.192365,696.111749 C464.837899,695.192558 465.954678,700.163618 465.999135,702.975042 Z M562.987381,700.734669 L562.998062,701.05142 C563.051709,703.951363 562.005134,709.445992 558.151314,708.971103 C554.871421,708.567311 554.654704,703.534598 554,701.088905 C554.598248,698.836848 554.729371,694.20242 557.333617,693.214048 C561.187173,691.753056 562.858989,698.156826 562.987381,700.734669 Z M505.905513,686.694745 C500.897889,686.72998 495.899193,686.42926 490.894545,686.587607 L489.392957,686.649678 C487.548125,686.74522 479.109974,686.500056 478.82276,687.609605 C478.602173,688.461372 480.280439,690.607462 480.929597,690.960787 C482.75192,691.954965 484.033129,690.677766 485.871659,690.204563 C490.854237,688.919252 496.68045,689.712431 501.799883,689.468168 C507.15611,689.213089 512.510536,688.894015 517.866762,688.647949 C523.203181,688.401883 530.010784,689.508729 534.63592,686.752431 C525.355035,684.407145 515.258427,686.628948 505.905513,686.694745 Z M594.669956,672.244464 C590.664266,677.436182 590.191578,684.755963 588.798725,690.953576 C593.149252,687.445562 600.027984,688.965221 605.196035,687.846658 C609.952174,686.816877 607.623624,682.445253 605.449198,679.153464 L604.220948,677.343344 C601.940343,673.984952 598.504579,667.275378 594.669956,672.244464 Z M474.908006,601.866945 C468.062588,602.117517 461.137939,601.761488 454.283517,601.741659 C453.040124,601.738053 447.828854,600.847529 446.962711,601.923729 C446.215414,602.851208 446.926696,607.149698 446.923095,608.26105 C446.90303,614.173582 446.917362,620.079492 447.051707,625.988429 L447.129277,628.943195 C447.533537,642.548921 447.078857,656.518787 444.285047,669.891967 C443.779046,672.314769 442.186314,674.99986 444.641589,676.192333 C446.530539,677.109897 451.572541,675.683977 453.632559,675.549678 C460.313211,675.112528 467.065892,675.543368 473.70963,675.057546 C485.276523,674.212089 497.240473,674.989044 509.037857,675.263052 C524.733789,675.628996 540.341486,677.326219 556.032015,677.728216 C562.852223,677.903076 569.789478,676.658326 576.52055,676.863831 C579.166701,676.944952 579.915798,677.614647 580.065258,680.450263 C580.241728,683.820373 578.776846,685.62846 581.721915,688.362224 C581.88578,684.792918 582.382778,681.223612 583.488417,677.817449 C584.42839,674.921444 586.44429,672.385975 586.783725,669.394428 C587.491406,663.149945 585.421484,657.283124 579.402594,655.030675 C573.566477,652.845827 567.243267,652.88098 561.149647,653.291089 C557.611242,653.529043 554.613052,652.317642 551.141274,652.478081 C547.485822,652.646631 544.260742,652.145486 540.631401,651.760614 C533.889524,651.044049 528.145243,648.075937 521.597844,646.82037 C518.394372,646.205656 517.286032,647.572989 515.325953,649.828141 C513.165996,652.311333 510.73413,654.399737 507.997044,656.224049 L506.857375,656.981002 C502.561288,659.804639 496.23121,663.439486 495.863826,655.486753 C495.527093,648.191308 502.834394,642.785973 507.346085,638.061149 C502.77497,636.118762 503.165725,628.905339 497.855417,631.807653 C495.742578,632.96272 494.03752,634.624472 492.127878,636.057685 L491.075865,636.827801 C489.097849,638.30921 485.489907,641.23026 483.340754,640.978787 C480.014834,640.590309 479.659192,635.862781 480.15799,633.239882 C481.06285,628.476301 486.041826,625.733524 489.57663,622.935765 C491.712278,621.244851 494.906746,619.913572 496.721867,617.928822 C498.651333,615.817884 498.221862,613.452768 498.157037,610.801026 C498.128225,609.594132 499.033085,605.047773 498.541489,604.005824 C497.784289,602.398735 495.161547,602.824168 493.293306,602.658321 C489.825129,602.34826 486.383062,601.739856 482.92839,601.41267 C480.220115,601.156689 477.618082,601.767798 474.908006,601.866945 Z M481.018667,553.936604 L480.806248,553.959829 C473.917613,554.657466 466.830899,555.678684 459.90625,555.694007 C458.005595,555.697612 453.797324,554.349208 452.14877,555.060365 C449.684516,556.122387 450.182168,559.758746 450.082325,562.196112 L450.072545,562.39637 C449.649377,569.731474 449.368466,577.035932 449.840253,584.378247 L449.79827,584.760107 C449.519885,587.080711 448.830147,589.890225 451.262818,590.96614 C452.850148,591.667383 457.252896,590.89854 458.847429,590.955324 C465.501071,591.192377 472.330282,590.66329 478.942508,591.191475 C480.898084,591.348308 486.742305,593.332158 488.481795,592.00178 C490.183471,590.701146 488.855444,586.6334 488.741999,584.811792 C488.304925,577.793959 489.168868,570.961041 489.535471,563.997923 L489.594637,562.767722 C489.680171,560.782972 490.499496,555.960803 488.977892,554.490718 C487.182861,552.756596 483.268659,553.674328 481.018667,553.936604 L481.018667,553.936604 Z M483.754018,520.790521 C479.010035,521.495369 474.168812,521.477342 469.383412,521.433176 C464.903234,521.392616 460.409549,521.194321 455.932972,521.183505 C450.628066,521.170886 451.345651,523.881215 451.334846,528.426672 C455.315552,526.787457 460.017082,527.468963 464.24464,527.49872 L464.712358,527.499194 C469.826388,527.473055 474.880095,527.751569 479.98152,528.084163 C482.238717,528.231082 488.823031,529.903969 490.717383,528.459121 C491.713178,527.700192 492.07062,521.191617 491.226985,520.194735 C489.849438,518.565113 485.525021,520.526428 483.754018,520.790521 Z M341.151905,510.031571 C347.704029,510.431177 354.346167,509.732964 360.914493,509.681147 C364.66898,509.651286 368.423467,509.624939 372.178854,509.612643 C374.381498,509.606495 377.548193,509.048803 379.722933,509.54853 C385.808784,510.946713 378.069374,516.071333 375.359051,516.661521 L375.105134,516.710255 C373.356801,517.02276 365.297188,518.191951 365.267573,517.773392 C352.161585,518.478045 338.915128,517.497841 326.007927,515.409526 L324.673929,515.189565 C322.858346,514.883932 318.66099,514.84968 317.500708,513.163429 C315.728331,510.588385 319.058852,508.341807 321.299302,508.114339 C327.506672,507.483752 334.887826,509.64953 341.151905,510.031571 Z M499.950549,419.774656 C490.974938,421.154873 482.158837,421.744654 473.114168,422.039961 L471.415519,422.092001 C467.163131,422.213682 462.937753,422.418286 458.702472,422.843718 L457.795245,422.936651 C454.822927,423.256721 453.163573,423.69945 453.044625,427.232342 C452.468397,444.238823 451.543729,461.062332 451.020622,478.075122 C450.725304,487.680702 451.06564,497.297998 451.032326,506.907183 L451.023156,507.552364 C450.946266,510.861575 450.512028,513.208738 454.279916,513.608645 C459.149949,514.126014 464.259478,513.447305 469.158323,513.493273 C472.540741,513.525721 475.923665,513.596195 479.305957,513.670851 L482.687995,513.745648 C485.583545,513.807841 490.952376,515.249083 491.924762,511.742871 C492.234485,510.620703 491.676264,508.652177 491.705075,507.411933 C491.759096,505.104503 492.043609,502.773638 492.183165,500.467109 C492.501891,495.175343 492.734184,489.878168 493.055611,484.586402 C494.371034,462.90377 497.905837,441.399603 499.950549,419.774656 Z M242.167517,472.163089 C283.887903,473.960854 325.637171,475.19295 367.361167,476.858136 L367.714642,476.867366 C370.537864,476.907488 375.866337,476.307015 376.839462,479.48761 C377.896417,482.938187 373.497102,486.400255 370.586188,487.294718 C366.806062,488.456989 361.993352,487.805587 358.048049,487.916953 C352.738904,488.067209 347.694223,488.020364 342.40313,487.662402 C322.241557,486.296843 302.114283,484.52471 281.948196,483.1565 C272.162885,482.49285 262.383542,481.724003 252.610736,480.898382 L247.72488,480.481065 C244.684893,480.21856 235.657,481.033476 233.527746,478.556025 C232.216255,477.029605 233.606273,474.671475 234.902419,473.494177 C237.037089,471.556763 239.491282,471.99604 242.167517,472.163089 Z M171.656724,439 C230.615893,439.136151 289.713029,440.589889 348.523408,442.330861 C355.004291,442.523229 361.505914,443.071345 367.990403,443.348917 C369.117592,443.39635 372.828296,442.924654 373.664219,444.133321 C375.024059,446.103553 371.910314,448.108043 370.443165,449.006637 C365.395165,452.096819 358.713192,451.557486 352.992485,451.752489 C345.099461,452.01952 337.201928,452.050264 329.305297,451.940465 C301.867727,451.559243 274.418435,449.473942 247.039479,447.851552 C230.174035,446.852821 213.256289,446.24146 196.3674,445.744291 C189.698051,445.548234 183.024663,445.421886 176.35416,445.238422 L171.351932,445.088132 C169.101162,445.014347 165,445.716182 165,442.757759 C165,439.675483 169.497933,439.166894 171.656724,439 Z M479.044248,308.233845 C475.938915,308.369948 472.770557,309.48851 469.647217,309.794966 C465.985463,310.155502 462.307503,310.134771 458.650251,310.581836 C450.627165,311.563395 442.817465,313.318304 434.71965,313.79331 C427.761687,314.201617 420.713689,314.410728 413.746722,314.107877 C411.848769,314.025855 406.906707,312.546757 405.147408,313.394016 C403.095493,314.381885 403.780666,318.235113 403.607797,320.207244 C402.953237,327.62437 401.951139,335.047806 400.823892,342.405443 C400.631215,343.660108 398.691845,349.929828 399.55979,350.989804 C400.897721,352.624835 406.649204,351.531509 408.524649,351.676625 C415.923787,352.246272 423.194173,353.936284 430.5645,354.753799 C434.302784,355.168416 438.04647,355.263958 441.805463,355.277478 C445.457313,355.290097 450.784728,354.282399 454.249304,355.533458 C456.476788,356.338355 457.74089,358.231169 457.021504,360.642253 C456.22919,363.300304 453.650566,363.894287 451.260117,364.391827 C449.507121,364.755968 444.421902,364.553167 443.318063,366.164762 C442.123289,367.909756 444.21572,371.197844 444.806354,372.852704 C445.937203,376.025421 445.295248,377.387345 445.211515,380.489757 C445.12238,383.755312 447.013131,386.628783 446.76103,389.931292 C446.515233,393.158991 446.38108,395.735921 446.695304,399.026713 C446.971714,401.918212 446.779038,405.084619 447.185099,407.893194 C448.124172,414.392756 462.177852,410.461111 466.539183,410.363766 C475.024152,410.173743 483.540225,411.454406 492.000329,411.245784 L494.030986,411.172981 C496.861507,411.104336 502.452547,411.422841 504.217343,409.297481 C506.106293,407.025203 506.406112,401.839795 507.624296,399.027615 C510.804358,391.679892 515.54474,385.238917 520.062734,378.689781 C516.053442,373.254702 511.814559,368.438843 508.805565,362.350292 C505.588587,355.842618 502.987455,348.833799 499.556192,342.491972 C496.14924,336.19431 493.013294,329.77677 489.902559,323.310558 C487.731797,318.797549 485.261217,307.962542 479.044248,308.233845 Z M600.333205,234.023829 L600.069334,237.018061 C599.499068,243.159409 598.694554,248.238983 594.794206,253.719908 C589.972791,260.496181 584.42839,259.888678 576.814967,260.634086 C570.189209,261.282614 564.946824,263.425356 559.630603,267.238191 L559.131946,267.600542 C552.677283,272.351505 545.714819,276.296669 538.836088,280.386048 C527.415757,287.175399 514.074613,289.678193 500.98634,291.742072 L494.981808,292.677211 C491.242668,293.29269 484.938761,294.954021 488.878608,299.138109 L489.046319,299.311482 C493.614763,303.913663 496.240567,310.631582 499.279017,316.454411 L499.594908,317.053456 C506.875198,330.709657 512.455614,345.378963 520.759611,358.458306 L522.092159,360.550126 C525.169063,365.343356 528.792542,370.599413 533.277281,373.848685 C538.165322,377.389148 547.977417,370.813874 552.952793,368.63894 C559.420061,365.812339 566.206055,363.66715 572.298774,360.178964 C577.544672,357.175422 582.876493,354.552811 588.363636,352.06017 L593.240685,349.867968 C597.89428,347.789146 602.51261,345.806198 607.427121,344.270315 C614.655191,342.010656 622.292924,341.209365 629.635339,339.240839 C637.167729,337.222739 643.11279,335.082958 649.200107,330.090436 C652.02903,327.771289 655.475598,325.45124 656.615451,321.785491 C657.734775,318.185034 656.987948,313.632625 656.770282,309.87228 L656.746003,309.406489 C656.560529,305.386513 655.935681,301.270093 656.017614,297.249216 C656.100447,293.195891 658.087535,290.015062 659.288612,286.248363 L659.536491,285.446683 C661.35498,279.380729 663.077591,269.355372 657.339338,265.526559 C656.91617,271.876498 654.676981,277.573868 652.580049,283.529922 C650.615769,289.107588 647.426002,292.579207 642.693031,295.841575 L642.283561,296.120739 C640.397312,297.393431 638.356201,299.165465 636.122414,299.743224 C633.901626,300.318673 630.849942,300.078163 628.448137,300.067389 L627.97688,300.068607 C622.437881,300.127194 616.436999,298.676037 612.171105,294.942687 C603.535776,287.384051 601.651328,273.836913 602.485059,263.091139 C602.96585,256.910651 603.984154,250.684195 606.816679,245.107605 C607.790866,243.190455 609.728435,241.144414 608.647106,238.899176 C607.515356,236.548482 602.449045,235.125266 600.333205,234.023829 Z M330.489766,279.800177 C328.805197,282.464538 327.035095,285.073016 325.202867,287.638229 C321.354739,293.02734 317.234703,298.214551 313.023731,303.322444 C325.694462,310.950484 338.919813,317.999863 351.993904,324.91314 C365.336302,331.968829 379.849164,336.240278 393.86863,341.724931 C395.15344,329.525296 397.508775,317.195868 397.717658,304.913309 C397.806794,299.607121 391.811313,300.556232 387.614747,299.048291 C381.514825,296.857133 375.535551,294.263077 369.546373,291.790702 C363.576103,289.326439 357.573419,286.949605 351.582441,284.535817 C346.143381,282.345561 340.923109,279.033137 335.439031,277.086243 C332.454346,276.026267 332.222054,277.061005 330.489766,279.800177 Z M898.189709,258.920802 L896.110162,260.397677 C893.344858,262.349424 890.741588,264.088862 887.533735,265.512138 L886.219931,266.088777 C880.081544,268.750976 873.832935,270.974738 867.138837,271.271699 C868.874726,276.540932 870.701552,281.818277 873.104606,286.826122 L874.674196,290.059425 C876.369462,293.578864 877.832037,296.944702 878.359092,301.058279 L878.541789,302.62049 C878.766248,304.39723 879.158958,306.067926 880.8981,306.846683 C883.102175,307.834552 887.030435,307.020642 889.416382,307.063005 L895.97267,307.18589 C899.251275,307.245184 902.530269,307.294289 905.80829,307.30186 C909.972444,307.309972 914.113188,308.302347 918.167498,308.244661 C923.206798,308.171653 928.909663,305.981397 933.824714,304.941251 L934.855111,304.728991 C944.079325,302.875249 956.441497,301.5177 963.594134,295.396061 C956.724406,294.315355 949.725927,295.050848 942.976848,296.530848 C939.887721,297.209557 932.800107,300.740106 930.729285,297.205051 C928.262306,292.993991 933.090022,287.180348 936.496975,285.223539 C940.340601,283.014355 946.076779,283.25321 948.785954,279.271992 C943.669223,279.703734 938.277882,279.893015 933.331318,281.398253 C929.539913,282.551067 924.648271,285.835549 923.148275,280.147193 C920.71731,270.930993 929.767703,266.560396 936.10622,262.821638 C929.090883,263.649254 922.525429,266.091832 915.37823,265.834193 L914.128228,265.770939 C911.356153,265.654634 909.275153,265.997594 908.02317,263.136206 C906.96615,260.719713 908.04838,257.047655 904.726961,256.389677 C902.594374,255.967849 900.022213,257.628494 898.189709,258.920802 L898.189709,258.920802 Z M668.877419,275.782905 C666.324006,276.672528 666.808398,279.693819 666.519383,282.04181 C665.968364,286.52237 665.254381,290.989411 664.526892,295.443832 C671.229153,295.460057 677.754944,294.495623 684.428394,294.291019 C691.024413,294.089119 697.403445,294.378449 703.945443,294.549703 C710.228137,294.713747 716.388383,295.988242 722.653971,296.284783 C724.178276,296.35689 725.762005,296.35058 727.277307,296.520032 C728.801612,296.690385 729.70467,297.256427 731.119132,297.496183 C734.594512,298.08566 737.978956,297.251019 741.485848,297.438498 C754.414981,298.128924 767.154139,300.785173 780.087774,301.458473 C793.382453,302.150702 806.359305,303.182737 819.592759,304.777207 C826.587637,305.61996 833.594219,306.114795 840.620608,306.607828 L840.918911,306.636538 C842.449756,306.815273 845.197648,307.51036 845.936319,305.972384 C846.8952,303.975916 843.643108,297.155477 843.04347,295.041835 C842.351996,292.600606 841.770076,290.110237 840.915139,287.716328 L840.580993,286.823418 C839.96875,285.266804 838.679438,280.185049 837.437845,279.197181 C835.707358,277.819934 833.122431,279.143101 831.102029,279.435135 C827.009004,280.026414 822.848452,280.378838 818.732918,280.784441 C812.640199,281.386536 806.542978,282.825975 800.454761,283.008947 C793.582332,283.214453 786.744117,282.919715 779.879792,282.663734 C766.131333,282.149069 752.050643,282.414964 738.373312,281.010677 C722.567537,279.387364 706.689732,278.727583 690.847042,277.536012 C687.091651,277.252991 683.326356,277.181785 679.567364,276.95645 C676.878896,276.79511 671.389417,274.907704 668.877419,275.782905 Z M469.215946,300.022639 C465.986364,300.675209 462.726169,300.919472 459.460573,301.312456 C456.348937,301.687414 453.044625,302.722152 449.905979,302.645538 C446.613372,302.565319 444.14099,301.976744 440.831276,302.452651 C434.267983,303.397569 427.731875,302.933132 421.174098,302.334059 L419.928259,302.21622 C415.056609,301.690162 405.163192,299.322265 404.890806,306.147244 C411.64889,306.163468 418.343948,305.316208 425.093928,305.409947 L429.618534,305.47775 C435.134311,305.557147 440.606801,305.590787 446.136491,305.215387 L447.646082,305.102591 C454.255906,304.561787 460.842966,304.478196 467.447099,304.148511 L470.351492,303.984113 C473.513577,303.764216 484.905845,302.690064 477.657698,299.151945 C475.090778,297.899082 472.004353,299.460203 469.215946,300.022639 Z M314.676788,265.171431 C313.263227,265.635621 311.681298,270.803904 310.799848,272.161322 C306.387196,278.955622 301.627907,285.469605 296.896528,292.042176 L303.19633,295.429411 L303.19633,295.429411 C307.477529,285.283028 315.732907,277.690141 323.189668,269.882735 C321.875146,269.076937 316.487407,264.578349 314.676788,265.171431 Z M669.68414,167.177759 C668.596508,167.665384 667.616919,168.449549 666.416742,168.665871 C664.719569,168.971425 663.582417,167.865481 662.071617,167.940292 C659.731588,168.055664 657.34294,171.926919 655.065035,173.163557 C652.114564,174.766139 649.210911,174.287528 646.296454,175.434032 C643.847482,176.396813 641.475607,178.91689 639.182346,180.433117 L638.778469,180.689745 C635.634666,182.601487 636.175132,184.479557 636.414001,188.068988 L636.445643,188.593594 C636.621212,191.877176 636.515871,194.031378 633.287189,195.249088 C632.246376,195.642072 630.415048,195.46541 629.529097,196.097249 C628.219977,197.030136 628.929459,197.731378 628.508091,199.291598 C627.439367,203.239466 625.174968,200.830185 622.28482,200.302901 C618.765323,199.660246 614.888384,202.144338 616.726914,205.921854 C617.384175,207.273864 618.796835,208.505094 620.210397,208.92602 C621.882361,209.422658 623.968489,208.054424 625.510801,208.671842 C629.443563,210.248285 626.300415,213.981635 626.487689,216.526117 C628.874537,215.230892 629.685759,211.518273 632.153639,215.633791 C633.763826,218.320365 633.340844,222.266557 632.917482,225.398171 L632.783889,226.374157 C631.781041,233.708832 629.562415,242.654859 624.911031,248.683613 L624.37482,249.36149 C623.677307,250.257146 622.695618,251.600113 621.488004,251.412478 C620.386867,251.242124 620.255415,249.814402 619.303737,249.449359 C617.262626,248.663391 614.136585,249.827021 613.355075,251.717131 C612.03425,254.911479 612.172005,259.597545 612.067564,262.978471 C611.946916,266.869555 611.490435,271.271699 612.434009,275.088874 C614.01687,281.491847 619.896145,283.795428 625.693488,285.240206 L627.116526,285.587238 C630.09521,286.30192 633.271583,286.929876 636.229557,285.928387 C639.859798,284.69896 642.354689,281.400957 644.914405,278.7393 C646.838469,276.738326 650.571351,274.46064 650.821651,271.566438 C650.939597,270.211724 649.976215,268.344147 649.756528,266.956985 C649.408089,264.755012 649.30995,262.529604 649.368474,260.301492 C649.475616,256.208507 650.620871,252.047922 650.271532,247.954938 C649.91229,243.768214 646.799754,243.467167 645.105281,240.242173 C644.09508,238.317812 643.858286,235.321758 646.314461,234.667385 C647.741528,234.28702 650.414689,235.37043 651.960603,235.480394 C653.926383,235.620102 655.913422,235.669049 657.889936,235.695046 L659.074327,235.708433 C663.271527,235.750963 666.472692,235.545257 670.227086,233.834938 L670.662828,233.630844 C674.723441,231.678542 678.350081,230.460832 682.784341,229.662245 L682.356919,229.448482 C679.875733,228.245112 673.459311,225.528728 676.766352,222.24602 C679.271146,219.759224 685.192797,223.063536 687.621061,223.886459 L687.597852,222.404457 C687.549373,219.874161 687.425005,217.837368 686.626391,215.283421 L686.468604,214.798249 C685.356662,211.503852 685.665485,209.012548 688.374661,206.515837 C689.613553,205.373839 694.109037,204.388675 694.630344,202.890648 C695.440666,200.563388 691.407965,201.301585 690.032219,200.976202 C682.866088,199.281736 683.187251,191.854982 683.026003,186.053587 L683.018434,185.794934 C682.805049,178.932132 681.198812,172.333423 675.895706,167.872692 C673.499855,165.858197 672.635512,165.854592 669.68414,167.177759 Z M253.877448,223.626873 C250.891863,225.210527 248.116961,227.698225 245.362767,229.663146 L241.8875,232.129776 L241.8875,232.129776 L237.600662,235.166919 C236.10737,236.252273 235.756478,236.811297 237.065973,238.988409 C239.741836,243.436521 245.298842,247.451089 248.931784,251.109627 L250.997807,253.197871 C259.252678,261.566242 267.430183,270.07888 276.728521,277.278228 C280.191296,267.176011 287.35544,258.961199 294.971564,251.718032 C285.940078,245.027386 276.578161,238.682855 267.546675,232.176983 C264.330598,229.861441 261.940149,226.554425 258.926653,224.293865 L258.273049,223.801428 C256.861387,222.750954 256.137683,222.428091 253.877448,223.626873 Z M412.862571,135.406429 C409.295355,137.261387 405.928018,140.380023 402.463443,142.534225 C398.55409,144.96604 394.651941,147.409572 390.747991,149.848598 C397.038789,154.675273 404.19393,157.995809 410.9187,162.216784 C414.14288,164.241193 417.254515,166.41162 420.41387,168.533374 C423.66326,170.716419 427.438459,172.038685 430.508678,174.463289 C436.450137,179.156566 443.801555,182.147212 450.329147,186.219465 L454.749912,188.976336 C459.908584,192.18717 465.079904,195.366863 470.355799,198.391159 C473.35759,200.111817 476.640294,201.145654 479.718616,202.697761 C483.408281,204.559028 486.75581,206.997152 490.496795,208.775496 C498.503674,212.583657 506.499749,216.396325 514.473315,220.278395 C530.125129,227.897421 546.167699,234.936886 562.146343,241.841149 C565.551495,243.312136 569.131316,243.958397 572.720141,244.827289 C574.28427,245.205851 576.235819,245.416221 577.728542,246.087216 L578.091674,246.264926 C578.566162,246.519103 579.069462,246.555157 579.446712,246.981491 C580.167898,247.799006 579.555655,248.943708 579.999531,249.552112 C582.487219,252.958276 589.397463,243.386947 591.004601,241.0678 L591.275473,240.667399 C593.31922,237.567254 592.412672,236.897995 589.077034,235.585 L588.647465,235.4173 C584.78223,233.917471 580.880981,232.503268 577.057163,230.900686 C570.014567,227.948798 562.810807,224.609334 556.082435,220.993158 C549.083957,217.230965 541.795563,214.124948 534.870914,210.201415 C527.10443,205.801074 519.39827,201.310599 511.543552,197.066189 C498.29119,189.905044 486.116556,180.876322 473.242345,173.103167 C466.132222,168.811888 459.449768,163.704896 452.571938,158.980073 C445.858872,154.368818 439.496946,149.220364 432.641624,144.91196 C428.870927,142.542337 424.949871,140.570205 421.425871,137.832836 L420.461389,137.089258 C418.141299,135.332653 415.761547,133.898773 412.862571,135.406429 Z M218.665367,149.043702 C216.293171,154.288312 211.263032,157.218996 205.946431,159.142248 L205.57507,159.274811 C201.337988,160.76743 197.204447,162.904506 192.783691,163.825676 C181.222201,166.237661 169.78496,171.433886 158.439555,175.201486 C134.34869,183.199075 108.598466,187.591304 85.4043575,197.982852 C93.3184997,205.817298 90.8596235,222.520929 104.065167,225.047385 C108.64087,225.923487 113.393471,224.809898 117.866108,223.592623 L119.834027,223.050917 C126.183348,221.301416 132.537171,219.565436 138.892795,217.834863 C145.788632,215.955569 152.753798,214.497201 159.706358,212.856763 C163.197945,212.032938 166.71204,211.461489 170.210829,210.718785 C173.125286,210.100465 173.1604,209.494765 174.687406,206.749284 L174.882677,206.405477 C177.505764,201.880474 182.160474,197.512108 186.112042,203.483729 C187.761497,205.977737 187.412159,209.10809 188.858133,211.579564 C190.093423,213.690502 192.734172,214.78563 194.590709,216.212451 L195.310898,214.159806 C196.470376,210.883102 197.926212,207.148964 200.264762,204.853766 C203.370995,201.805434 206.45652,204.25798 207.574764,207.840806 C208.87739,212.016031 207.055153,217.069308 206.153752,221.234466 L206.072067,221.622293 C205.648899,223.692671 204.84578,226.072208 205.331974,228.195765 C205.97843,231.01786 208.437306,233.927385 209.902188,236.376326 L214.314189,233.091022 C226.601473,223.958959 239.167633,214.835365 252.374751,207.227895 C246.345958,197.043656 240.662901,186.658418 234.64041,176.471474 C231.91953,171.871036 228.864617,167.497734 225.827711,163.104604 L224.242982,160.839437 C223.184362,159.315171 222.155753,157.753649 221.362838,156.101193 C220.272506,153.831619 219.948377,151.22224 218.665367,149.043702 Z M70.8419757,200.15418 L70.0950838,200.147742 C66.1295257,200.13441 58.8808391,200.45979 56.6001211,203.637858 C53.6424468,207.758784 62.3435014,210.697152 65.2453536,210.618736 C70.2873555,210.481732 74.8746768,206.608675 79.9247819,205.676689 C79.2125991,204.045264 78.9199829,201.455715 77.2840334,200.434497 C75.7687318,199.487188 72.593171,200.178516 70.8419757,200.15418 Z M667.859108,195.43715 C673.350628,200.301938 671.870953,181.557805 677.104347,187.602819 C681.356139,192.515275 677.940527,204.351073 671.959116,206.55881 C667.63921,208.152937 664.672508,205.176391 662.944241,201.644401 L662.84203,201.431847 C662.802039,201.347987 660.421654,192.482614 661.132406,192.520572 C661.222387,190.929871 660.808841,186.908984 662.777499,186.155122 C666.616654,184.685358 666.363074,194.110389 667.859108,195.43715 Z M670.582346,175.974846 C669.395175,177.924816 661.351127,180.947534 659.17202,180.998617 C656.497383,181.062031 656.724136,178.93415 657.57862,176.767517 C658.914625,173.376647 662.480516,171.021535 666.105065,171.060287 C668.755188,170.55562 672.205514,173.30883 670.582346,175.974846 Z M94.3323023,147.457343 L93.0055773,147.613926 C88.5578572,148.160402 85.3168639,148.851955 81.5751371,151.900048 C78.1699852,154.675273 75.3644713,157.47844 73.9770204,161.758903 C70.7690467,171.65201 78.6975947,180.146237 88.8824384,178.994325 C90.0051842,178.867236 91.1018196,178.451718 92.2416722,178.566188 C93.2887879,178.671645 94.0207786,179.423362 94.90583,179.573886 C96.9146942,179.914993 97.3639664,179.588288 98.9228509,178.114077 L99.1077983,177.938856 C102.599385,174.626432 106.103576,170.986821 108.037544,166.517077 C112.695093,155.752374 105.691212,147.65023 94.3323023,147.457343 Z M91.980972,162.586714 C94.7848372,164.134366 95.7608604,168.201946 96,171.003347 C94.6940013,180.072603 86.6494569,171.631997 87.0118739,166.099342 C87.2000341,163.219804 88.8489849,160.859702 91.980972,162.586714 Z M164.399022,153.503531 C158.896937,156.176906 152.914962,157.943532 147.127464,159.875103 C142.088163,161.556102 137.413507,163.912204 132.472345,165.805018 C128.969054,167.147113 121.575319,166.885725 119.557618,170.272059 C115.574436,176.960902 126.008679,171.944044 127.847209,171.295079 C133.123304,169.434714 138.738833,168.28821 143.910487,166.161949 L148.194897,164.397278 C151.775642,162.91569 155.370365,161.401715 158.888834,159.81922 C161.136126,158.807917 163.370813,157.949841 165.662223,157.066528 C167.805974,156.240901 170.33868,154.167819 172.619285,153.949695 C173.002838,152.905943 171.655903,152.216418 170.682616,151.883824 C168.206633,151.038367 166.577887,152.445358 164.399022,153.503531 Z M187.180767,114.714369 C178.301441,115.677 163.733657,124.692202 167.1154,135.752544 C170.091982,145.487916 186.883649,144.746113 194.14143,142.766771 C195.693647,142.344042 198.106605,141.424676 199.634511,141.735638 C201.929523,142.200729 202.041167,144.089938 204.203826,142.380096 C205.495388,141.358562 206.667503,138.482342 207.604378,136.875036 L207.750334,136.632251 C209.662693,133.559584 210.651286,130.356222 211.460707,126.839194 C211.961306,115.697731 195.001272,113.86711 187.180767,114.714369 Z M189.030597,124.211338 C191.726746,126.408007 193.698287,131.824876 193.968891,135.212928 C194.292536,139.26965 192.065674,141.333132 188.466016,139.057099 C184.813315,136.748224 183.41984,132.49081 183,128.351986 L183.20589,127.523337 C184.026666,124.359552 185.34021,121.205543 189.030597,124.211338 Z M373.865388,55.2358518 C372.167314,64.3889584 376.671802,79.2646718 369.066483,86.4528574 C364.455004,90.8107723 361.75578,84.8084637 359.274179,81.384627 L359.167953,81.2395075 C355.343234,76.0694219 351.237604,71.126474 347.586654,65.8247928 C348.707599,72.2207006 351.920075,79.3989715 351.319536,85.9030401 L351.283058,86.2539364 C350.705423,91.2615411 347.55058,97.7197732 342.995031,92.4057828 L342.833667,92.2133206 C339.571672,88.236609 335.395814,84.5167793 331.591804,80.9898364 C327.018888,76.7499335 321.801316,74.0107616 316.830443,70.394586 C318.755407,79.9596049 322.424364,88.4502266 327.833712,96.5451601 C330.608613,100.698534 333.646419,104.687865 336.265559,108.943992 C338.406609,112.423163 339.416811,116.750496 342.253837,119.70599 C344.757231,122.313416 348.372111,124.424791 351.438921,126.437991 L351.974096,126.792324 C356.49299,129.811813 357.576121,128.952836 361.73127,126.082969 C369.774164,120.528913 378.506731,116.081702 386.601845,110.59795 C385.10365,108.616805 382.7105,106.659996 382.788831,103.963187 C382.851856,101.780142 384.522919,99.7926877 386.759407,100.054076 C388.511503,100.25868 389.321825,102.09471 391.271999,101.475489 C392.920554,100.950909 395.174148,97.0147582 396.216762,95.7772185 C380.537937,89.5823095 379.348565,68.6063277 373.865388,55.2358518 Z" id="Shape" fill="#a34f2b"/></g></svg>