<svg viewBox="76.80000000000007 51.200000000000045 870.4000000000002 665.6" xmlns="http://www.w3.org/2000/svg" overflow="visible" xmlns:xlink="http://www.w3.org/1999/xlink" width="870.4000000000002px" height="665.6px"><g id="Master/Doodles/Meditating" stroke="none" stroke-width="1" fill="none" fill-rule="evenodd"><path d="M350,354.11524 C353.139828,385.816866 356.279657,417.519537 359.419485,449.221163 C376.513757,439.467057 393.609076,429.711907 410.703348,419.957802 L410.703348,492.179776 L410.703348,511.163336 C410.703348,512.842844 409.705929,518.612952 410.703348,520.067759 C411.549009,521.301 417.812966,521.336534 419.293919,521.544513 C428.959357,522.897944 438.647821,524.101922 448.34989,525.17317 C473.920652,527.997084 501.289489,532.042744 526.957586,528.797646 C549.270253,525.976867 570.900531,518.041271 591.28639,508.80659 C598.443105,505.564628 605.500393,502.09483 612.425807,498.386744 C613.8942,497.600814 619.224582,495.74468 620.023145,494.144602 C620.675183,492.837156 619.14504,488.243854 618.940951,486.869521 C618.079592,481.077466 617.218232,475.284366 616.356872,469.49231 L604.326097,388.604201 L627.053221,411.298982 C628.833504,413.076732 632.214052,418.124661 634.677771,418.912682 C636.484219,419.490633 640.957428,417.702433 642.742943,417.358588 C655.611007,414.878519 668.480116,412.398449 681.349226,409.919424 C684.346716,409.341473 691.103626,409.36342 693.631188,407.552227 C694.99178,406.576085 695.055624,404.591402 695.536017,402.710186 C698.674799,390.413304 701.813581,378.117467 704.952363,365.82163 C705.517532,363.60702 708.672013,356.623528 707.87031,354.393242 C707.582492,353.593726 706.190502,353.047128 705.338561,352.525613 C685.91663,340.663501 666.492605,328.800343 647.070673,316.937186 C636.430842,310.43863 625.79101,303.940073 615.151178,297.441517 C610.694715,294.718979 605.219901,289.814231 600.170011,288.291491 C597.035415,287.345658 592.474291,288.054249 589.229802,287.961233 C582.637209,287.773112 576.045663,287.58499 569.45307,287.396868 C568.421113,287.367605 564.806124,286.631841 563.937438,287.2401 C563.214231,287.745938 563.513561,288.451394 563.277027,289.657463 C562.697206,292.602611 562.693019,295.778731 562.407295,298.768819 C562.178088,301.168415 562.633363,305.56837 561.552215,307.74013 C560.861453,309.128049 561.737465,308.575181 560.802843,309.246148 C559.690297,310.044619 556.138104,309.78752 554.814143,309.941152 C548.35447,310.691549 541.89375,311.441945 535.434076,312.192341 C527.754056,313.083828 519.988214,314.758111 512.271562,313.986812 C500.573609,312.819413 487.960918,312.876895 476.474379,310.412502 C473.489449,309.771843 472.413535,308.090245 470.110994,305.790981 C465.616853,301.303235 461.167716,296.763234 456.624385,292.322519 C454.3972,290.146579 455.350661,290.515507 453.055446,291.341151 C450.178317,292.374775 447.26037,294.870522 444.656405,296.457014 C434.679078,302.534387 424.70175,308.61176 414.724422,314.689133 L353.811752,351.792984 C352.541168,352.567418 351.270584,353.340806 350,354.11524" id="Accent" fill="#f5ebeb"/><path d="M532.44597,52.9877262 C567.24736,52.596029 602.296667,60.0696946 629.847811,82.4823129 C652.316147,100.760117 667.975674,130.428559 668.756035,159.662363 C669.137847,173.962452 665.016369,188.041556 655.558935,198.949379 C644.594127,211.592609 628.730618,217.793783 613.471732,223.537278 C605.002826,226.725316 596.552748,229.972004 587.922748,232.702363 C579.958043,235.223259 571.10314,236.272673 563.633221,240.129947 C556.877761,243.617518 554.121392,250.074237 549.506172,255.682628 C547.429742,258.205619 545.380509,261.921505 542.827075,263.935499 C540.431596,265.825909 536.996333,266.281493 534.254609,267.483815 C526.171698,271.026893 531.798458,276.378691 537.474383,279.663083 C541.188944,281.813228 544.632576,283.801038 548.854476,281.99965 C552.457109,280.463234 555.122472,278.108862 559.038923,277.114956 C567.07999,275.076874 576.53847,275.081064 584.243753,278.3089 C592.156155,281.623663 600.673181,282.279285 608.293732,286.328218 C624.694916,295.039815 640.060501,306.271259 655.529645,316.51613 C663.854195,322.030262 671.879572,328.268092 680.56606,333.192584 C687.590356,337.173442 694.93684,340.532193 702.135829,344.166389 C709.206153,347.73565 712.264834,352.777442 717.066252,358.685367 C719.022386,361.093152 719.619686,364.457139 721.8865,366.555966 C724.296623,368.788849 728.475635,369.600521 731.428664,371.018591 C747.617498,378.789695 765.682965,387.49396 783.763076,389.185379 C791.35643,389.896509 799.333689,390.465203 806.965747,390.276685 C809.493029,390.214893 813.237926,390.137392 813.667857,387.153581 C814.06013,384.430553 811.220075,379.255751 810.325693,376.816546 C804.713578,361.511032 798.193483,347.171146 800.190412,330.443373 C801.766826,317.240874 806.863233,302.432837 817.919047,294.215575 C819.495461,293.043625 820.925426,292.161783 822.789506,291.641266 C823.946449,291.318691 825.591902,291.630792 826.644239,291.027537 C828.786571,289.800079 828.404759,288.129606 828.305383,285.693543 C828.082572,280.223398 827.413093,274.4223 831.688343,270.087449 C836.811948,264.891701 846.211849,268.275587 851.587554,271.403928 C857.763496,274.998326 862.559684,280.526073 866.50124,286.40572 C871.32881,293.603941 876.340486,301.333152 879.524695,309.425783 C882.900332,318.002275 883.646173,327.448042 887.916193,335.699865 C889.005142,326.796609 889.90057,317.878691 891.392252,309.028849 C892.542919,302.199285 893.382906,293.819688 897.755439,288.143221 C902.668786,281.765051 908.374,287.144079 910.632445,292.823688 C913.452624,299.910893 912.99445,307.858994 913.518526,315.326376 C916.137862,308.983815 921.314816,290.50702 930.66346,291.848635 C936.862415,292.737808 940.139723,301.924887 941.474496,307.04837 C943.380418,314.369127 943.599045,322.018742 943.830224,329.53849 C944.940095,365.729632 931.219964,401.245253 912.364721,431.563032 C895.817089,458.169114 873.269252,478.694464 842.628045,487.345316 C827.24154,491.688546 810.937639,493.571625 794.993583,492.104332 C777.732537,490.517644 761.235115,484.919726 745.193776,478.61801 C729.896186,472.607449 714.495035,467.011625 700.586613,458.181682 C698.391978,456.788748 690.021401,449.737152 687.246203,450.42943 C682.705253,451.562628 685.120607,458.879196 678.507412,457.597278 C673.328366,456.593947 668.681765,451.572054 664.967204,448.19131 C660.018291,443.68784 655.186537,439.061833 650.263776,434.531133 C637.127347,422.440887 623.93443,410.502502 611.095083,398.083398 C609.143133,409.997695 612.91209,422.189531 614.609846,433.913215 C616.391287,446.21083 619.145565,458.153404 623.290057,469.879184 C625.436573,475.951537 627.651084,481.923348 629.061173,488.219827 C629.697178,491.065392 629.928358,493.963322 632.338481,495.876774 C636.200537,498.94437 642.716449,499.965505 647.229154,501.814023 C652.837085,504.11184 658.372838,506.585606 664.047716,508.718994 C675.935149,513.189997 686.031726,519.958818 696.979796,526.250061 C718.386381,538.551865 741.263726,548.289833 761.631572,562.382553 C780.742053,575.607045 800.240623,589.106982 813.91682,608.278149 C825.177662,624.064382 837.184346,643.187373 837.572434,663.202679 C837.999227,685.301102 817.847915,700.515499 800.474941,710.61584 C789.602187,716.937455 779.265016,714.257367 767.374445,714.089796 C753.943027,713.901278 740.482319,715.497392 727.019519,715.412559 C700.384724,715.24813 674.36815,713.216332 648.128766,708.689821 C635.316616,706.478931 622.33605,705.700774 609.611769,702.906527 C597.20026,700.180357 585.435216,695.47266 573.454684,691.34413 C562.049485,687.414591 550.73634,683.797152 539.82802,678.562654 C534.398965,675.957972 528.909239,673.246464 523.701949,670.218666 C519.687169,667.88524 516.303163,664.534868 512.061387,662.580572 C506.810163,660.162313 502.728434,663.107373 497.488716,664.215436 C491.798147,665.418805 486.196492,667.143739 480.508015,668.431941 C467.854866,671.296357 455.792741,676.2596 443.195033,679.338717 C436.700043,680.925404 430.069064,681.374704 423.510264,682.572837 C417.519475,683.667285 411.66572,685.41107 405.690622,686.593493 C392.420297,689.219121 378.883227,690.802666 365.68508,693.721543 C353.293446,696.462376 341.738661,700.909291 329.140953,702.899196 C316.0108,704.972887 303.143209,708.607083 290.050714,710.928988 C277.65385,713.128357 264.292518,716.166628 251.683303,715.992774 C239.965332,715.831486 227.244189,716.293354 215.991715,712.562805 C194.350813,705.388673 183.573251,682.007285 187.618367,660.224105 C191.786919,637.766452 209.098176,619.966225 226.223234,606.199221 C245.955075,590.336534 267.763347,576.5423 289.243155,563.185846 C311.876769,549.110931 335.706029,538.450275 360.135729,527.982326 C365.344064,525.75049 370.423735,523.118578 375.774335,521.253303 C379.281776,520.031083 383.241115,519.177518 386.408587,517.15724 C390.901417,514.290729 388.22141,510.792685 389.381491,506.427461 C390.519605,502.148117 394.489405,498.472029 396.013515,494.076433 C399.696695,483.461859 399.926828,472.003146 403.251209,461.280698 C405.053571,455.469127 407.320384,449.794755 408.136312,443.724496 C408.994081,437.340042 408.541137,430.867613 408.541137,424.450691 C397.951866,431.039373 388.848,439.711171 378.289064,446.376307 C373.65397,449.301468 369.472866,452.822553 364.92564,455.807411 C359.404532,459.434275 359.751824,454.466843 355.623023,452.377442 C354.543489,454.911953 353.881332,457.585758 352.98695,460.18625 L352.986793,460.185204 L352.913424,460.003027 C352.053749,457.92423 351.128577,457.903425 350.138793,459.940613 L350.053796,460.120269 L350.053796,460.120269 L350.286022,457.508256 C348.90836,459.304408 345.812021,460.178919 346.872726,463.017152 C343.256495,463.017152 342.375712,463.223474 339.195687,465.854338 C335.988466,468.509291 333.44863,470.898225 329.690135,472.806439 C320.322662,477.565455 311.367337,483.045026 301.844001,487.508698 C283.752383,495.987789 264.357373,502.289505 244.452932,504.730805 C235.51539,505.8263 226.515085,506.257796 217.561852,507.192004 C208.489369,508.137732 199.655387,509.226944 190.504449,508.62683 C173.617892,507.518767 157.193695,502.367007 142.388799,494.224105 C115.517594,479.446439 95.3840656,454.973745 86.6274922,425.520004 C81.2800304,407.533354 80.4285371,389.057606 81.290491,370.420572 C81.7340207,360.826086 83.5646268,351.375083 83.3575068,341.766982 C83.1702619,333.071095 83.8648462,324.921909 86.8733165,316.689985 C88.9591613,310.983146 93.1172522,301.648395 99.7555528,300.129783 C107.583224,298.339915 109.300856,309.70018 109.760076,315.087587 C110.555083,324.407676 108.820714,333.779083 108.800839,343.10755 C108.793516,346.800395 108.820714,350.40736 108.526771,354.084496 C108.368816,356.059739 107.507908,360.309758 109.187881,361.965568 C113.310406,338.951789 115.544792,316.139095 125.384038,294.630313 C127.480343,290.048294 132.454361,279.338414 138.72131,284.867209 C146.151479,291.421329 139.782016,303.29478 143.585492,311.298389 C150.548072,298.155587 159.894623,281.894919 175.110621,277.318136 C183.324289,274.847512 193.725269,276.589203 200.835343,281.330414 C207.388913,285.69878 214.835818,295.019915 217.345318,302.541758 C218.330707,305.499385 217.644491,309.865657 219.444761,312.402262 C221.255492,314.953531 225.25772,315.724357 227.280801,318.557354 C233.137695,326.756811 234.141913,338.368433 233.26636,348.074982 C232.29457,358.860269 228.064301,368.401341 222.032715,377.293076 C218.934284,381.859385 215.451948,386.266502 211.357667,389.985531 C208.181827,392.870893 204.104283,395.112155 201.802949,398.844799 C209.79276,400.81271 218.299325,398.349417 226.29855,397.595348 C235.5792,396.719789 244.693526,395.654666 253.884215,394.033417 C272.655772,390.722843 290.752621,386.244509 308.708251,379.830729 C317.186572,376.801884 325.204627,373.31955 332.767645,368.383537 C338.116153,364.892824 346.671883,361.658704 348.394744,355.042792 C349.36235,351.326906 349.67303,348.788206 352.501578,345.996054 C355.352093,343.180862 358.904515,341.098792 362.183915,338.833442 C369.727058,333.624079 376.432307,327.162124 383.368735,321.17984 C396.84618,309.55565 409.563138,295.421038 425.106553,286.53454 C432.507432,282.303373 440.542223,279.739537 449.122012,280.334414 C458.685098,280.997367 468.187513,282.575676 477.753737,283.320319 C483.239279,283.746578 489.246805,285.00755 491.478052,278.629379 C492.505284,275.694792 492.974965,270.965102 491.902753,267.990717 C490.757316,264.811057 487.866005,263.840193 484.997707,262.519524 C483.08237,261.637682 479.419066,258.84972 477.234891,259.644635 C475.841538,260.152584 475.67103,261.631398 474.747359,262.623209 C469.747189,267.990717 465.526335,260.24789 459.889114,262.642061 C451.573978,266.174666 443.856143,271.378792 435.436401,274.917682 C429.695621,277.330704 423.852326,279.634805 417.807142,281.167032 C406.350686,284.071247 393.393133,283.74972 389.887784,270.264445 C387.662813,261.701568 389.107423,252.585707 389.090686,243.863638 C389.076041,235.878881 384.588441,236.938767 378.062069,237.668748 C357.016376,240.018931 329.01961,241.500887 311.170678,228.027133 C289.078924,211.348584 294.511116,179.088029 312.624702,161.980079 C335.05538,140.792824 365.875463,132.652016 395.943429,133.09189 C413.993205,133.355815 432.587978,135.015815 450.241297,130.24842 C454.397296,129.126742 457.632761,127.093897 461.302342,124.973076 C464.221897,123.284799 468.113243,122.614515 470.28068,119.907196 C474.154243,115.067537 471.72529,107.820092 471.015015,102.327953 C469.263909,88.7955495 471.222135,73.8042309 482.993455,65.2329754 C496.621532,55.3096315 516.11278,53.1720543 532.44597,52.9877262 Z M628.414708,504.245897 C625.31523,502.935701 620.738715,501.707196 617.902845,504.229139 C615.695657,506.191815 614.312765,509.417556 612.002017,511.543613 C611.854523,510.239701 611.583593,508.897038 610.311583,508.211045 C611.425638,511.430502 608.192264,512.259979 606.472541,514.113732 C604.588586,516.143436 604.65658,518.935587 601.27885,518.288344 C599.216018,517.893505 597.144818,514.63425 596.294371,519.162856 C595.870716,521.422969 598.485868,522.476572 595.09454,523.628622 C596.429313,516.17695 588.542016,524.873884 586.708272,525.765152 C585.504256,526.349556 584.187266,525.551499 583.067981,526.220736 C581.98217,526.871121 581.191348,529.155322 580.28546,530.00784 C579.475809,530.770288 579.012404,529.972231 578.062581,531.327461 C577.371135,532.314035 577.515491,534.097619 576.998737,535.22977 C576.137829,534.580433 575.276921,533.932143 574.416013,533.282805 C574.245506,537.609278 568.885491,534.496647 570.023605,537.855398 C565.577847,535.007739 559.242904,541.620509 555.903879,543.798931 C551.914204,546.401518 547.396268,548.358956 543.151354,550.516433 C535.992115,554.154818 528.50546,555.77502 520.562721,556.435878 C516.87745,556.741695 512.930663,557.526136 509.235977,557.057985 C506.196125,556.672572 504.246268,554.84919 501.499313,553.750553 C502.221095,559.275158 495.23864,556.260975 494.362041,552.901177 C494.113079,553.515953 493.762649,554.059512 493.31075,554.5329 C493.078525,554.657531 492.655916,550.734275 490.286589,552.528332 C487.574154,554.581076 491.418427,555.628395 486.625377,555.898603 C480.141893,556.26307 477.49013,549.086843 470.735716,549.988584 C471.169832,550.82225 471.604993,551.654868 472.040154,552.488534 C470.100758,553.099121 464.609986,552.526237 464.782586,549.68172 C464.658104,549.878616 463.523129,552.041329 462.924782,552.230893 C462.788794,552.274881 461.853616,549.834628 461.652772,549.616786 C458.890126,551.753316 457.398444,552.163865 454.897313,549.517291 C454.143103,548.718187 452.348063,544.987638 450.925421,545.859007 C450.892993,545.877859 451.646156,548.94755 451.624189,549.191575 C447.127175,548.135878 443.588352,545.012774 441.029687,541.275941 C440.748297,542.27613 440.459584,546.547095 438.966856,546.661253 C438.618518,545.58042 438.27018,544.499587 437.921841,543.417707 C436.213624,544.974023 432.391319,543.910994 430.600463,543.027057 C427.683,541.589089 427.805389,539.888244 426.761421,537.149505 L426.761421,537.149505 L422.097036,539.275562 C421.893055,538.053341 421.688027,536.832168 421.484045,535.610994 C416.17738,539.002212 409.211662,531.666792 405.418646,528.690313 C400.596307,524.907398 397.219623,519.3409 391.118998,522.790767 C378.82674,529.740774 366.618166,536.532635 353.981754,542.86577 C327.655547,556.05989 301.084561,569.451953 276.580592,585.871815 C265.752818,593.127638 255.337193,600.974149 244.511512,608.240445 C234.396106,615.030212 224.754565,622.662023 216.174776,631.333821 C202.368868,645.287247 186.89554,668.050717 199.507892,687.565404 C212.050159,706.970124 245.69879,702.796559 265.040451,699.80437 C290.94405,695.797329 316.438639,688.708029 342.443706,685.526275 C348.267125,684.814098 353.864595,681.741266 359.658725,680.457253 C365.580474,679.14601 371.567079,678.157341 377.55473,677.204281 C390.63258,675.122212 403.575487,672.438982 416.608356,670.112887 C429.515698,667.810881 442.03809,665.205152 454.612784,661.417001 C466.931194,657.706351 479.824937,656.065203 492.025142,652.042452 C504.283926,647.999802 516.240399,643.353897 528.669691,639.767878 C541.094799,636.183953 553.615098,632.934124 565.993133,629.186818 C591.098588,621.584332 615.903823,613.949379 641.932949,609.982136 C637.541587,605.690225 628.598815,605.551979 622.981469,603.37565 C605.140906,596.464395 586.20407,589.003297 570.182606,578.409669 C562.513936,573.340647 557.702057,570.525455 548.409901,573.188786 C539.649143,575.700256 530.658252,578.134225 521.73954,580.021493 C484.514427,587.896281 448.241229,599.401076 412.142724,611.327941 C408.013923,612.69155 404.600627,613.103146 401.560775,616.527878 C399.173664,619.216344 397.599343,622.551007 395.5794,625.503398 C390.448473,633.003247 384.091563,640.073695 377.641553,646.448723 C371.355775,652.66037 365.06895,658.895057 358.49969,664.807171 C353.45977,669.345203 347.468981,675.037379 340.560796,676.303587 C333.19653,677.654628 331.598149,670.725568 325.899211,668.219335 C322.582153,666.76042 320.28082,666.858868 318.666748,662.990073 C317.397876,659.94866 317.103933,655.604382 316.822543,652.32418 C316.077748,643.646098 319.543347,634.158439 322.6627,626.181013 C325.470326,618.998502 328.61583,611.100673 333.248833,604.926729 C335.318987,602.167045 336.461285,599.012521 338.417418,596.17324 C340.748041,592.792496 343.49395,589.774124 345.744027,586.315878 C350.430378,579.110326 355.15648,571.88278 360.874247,565.433392 C366.138024,559.49719 372.823398,553.940117 380.367587,551.210805 C388.058224,548.429127 396.485289,549.152824 404.420704,550.37295 C413.843618,551.822439 422.358552,555.217846 431.093158,558.904408 C435.412342,560.727789 439.871698,562.230691 443.94192,564.576685 C447.071733,566.380168 449.947354,568.314565 453.445381,569.357695 C461.175769,571.664938 470.236746,572.974086 478.237017,573.735486 C486.354447,574.506313 496.440564,569.706452 504.261959,567.528029 C523.148583,562.2663 542.364716,558.800723 561.612232,555.18119 C579.834607,551.754363 601.01315,546.033909 619.276323,552.06018 C634.246496,557.000382 645.162138,569.734729 655.752456,580.74519 C661.463947,586.683486 666.914969,592.840673 672.524992,598.855423 C678.018902,604.744496 683.938559,602.952534 691.117673,601.906262 C696.178514,601.167903 708.04921,602.118868 705.960227,610.358124 C704.55746,615.892155 692.47546,615.123423 688.242052,615.636609 C678.721855,616.790755 669.045794,617.580433 659.777697,620.155789 C650.052472,622.857871 641.004047,625.439512 630.893872,626.35801 C611.245715,628.142641 593.040076,633.412748 574.399276,639.693518 C556.688424,645.661139 538.323784,649.999133 521.042863,657.180597 C540.570723,665.465934 563.13948,667.349013 582.863999,672.274553 C587.511646,673.434982 591.31303,676.363285 595.833058,677.693379 C601.008966,679.21618 606.390948,680.50543 611.680876,681.622919 C624.054727,684.238073 636.596994,686.066691 649.141353,687.636622 C671.377463,690.420395 693.536165,692.662704 715.602813,696.666603 C738.488527,700.820269 760.123153,702.597568 783.345698,700.71449 C787.688942,700.362591 792.616933,700.691449 796.83988,699.500647 C800.311755,698.520357 802.859959,695.774288 805.53892,693.514174 C812.612382,687.544458 820.96936,681.241695 825.872246,673.241228 C830.977022,664.909808 826.703864,653.792521 822.7644,645.783676 C818.430571,636.973632 812.902141,628.074565 806.996083,620.229102 C795.505107,604.96548 779.33301,593.941404 763.801102,583.205341 C755.090555,577.185354 746.062006,571.699499 736.997891,566.235638 C728.091731,560.86813 718.256669,557.250691 709.470806,551.68524 C700.849175,546.224521 691.71602,541.487499 683.26908,535.765997 C674.028181,529.506174 665.158633,523.431726 654.913515,518.886363 C645.668432,514.785064 637.717325,508.176483 628.414708,504.245897 Z M429.952952,574.85507 C413.2777,571.056445 390.473578,561.075499 375.342312,573.994174 C371.744909,577.06596 369.444622,581.309695 366.159992,584.560572 C363.141061,587.547524 362.076171,591.280168 360.172341,595.029568 C355.107315,605.009468 350.389582,615.087815 345.708461,625.26042 C342.415462,632.416748 338.623492,640.161669 336.569029,647.8249 C334.564777,655.301707 340.787792,652.086439 344.895672,649.641997 C350.380167,646.377505 355.142881,642.117013 360.481975,638.654578 C368.9195,633.18548 375.330805,626.337064 382.310121,619.099045 C389.858495,611.268244 396.518763,603.408117 404.912353,596.336622 C413.283976,589.283979 420.835487,580.954654 429.952952,574.85507 Z M616.242747,565.573732 C602.191015,560.768635 587.754332,565.175751 573.736074,567.743777 C573.330203,570.879449 593.33402,577.467083 595.891638,578.518591 C610.709086,584.605606 624.872747,592.169341 640.085606,597.30225 C643.917326,598.594641 647.322253,600.229505 650.399764,602.84466 C652.24083,604.410401 653.592341,605.834755 655.939701,606.445341 C657.756708,606.916635 665.450484,607.545026 666.440057,605.24302 C667.868976,601.921972 651.900861,591.494868 649.319183,589.20543 C639.42345,580.429947 629.025607,569.94524 616.242747,565.573732 Z M458.554341,579.234956 C453.948536,577.72996 449.739188,576.02283 445.102001,578.367777 C440.979476,580.451941 437.838156,584.18249 434.181129,586.928559 C438.198001,586.767272 441.670923,584.595133 445.406405,583.37396 C449.789399,581.94018 454.418217,581.402906 458.554341,579.234956 Z M608.094981,485.135474 C606.706858,482.80519 606.257052,483.205266 603.456748,483.418919 C600.56439,483.64095 597.946101,483.680748 595.037006,483.588584 C592.47102,483.506893 591.50446,484.825468 589.60586,485.121859 C588.936381,485.225543 587.256407,484.193934 586.465586,484.035789 C584.85256,483.712168 582.802281,484.108054 581.144275,484.100723 C577.541643,484.083966 573.94947,484.166704 570.351022,484.358363 C566.641691,484.556307 561.881069,483.665038 558.310864,484.434818 C556.022084,484.928105 556.529423,486.316849 555.424783,486.627903 C554.58375,486.865644 554.628731,486.332559 553.866153,486.381783 C554.558645,486.337796 552.338904,484.962666 552.42782,484.986755 C550.719603,484.521745 547.687073,485.573253 545.697466,485.320849 C543.01955,484.979423 542.237097,485.735587 539.876138,486.095865 C535.591474,486.750439 530.715786,485.816231 526.352667,486.019411 C521.257306,486.256105 516.210063,486.748344 511.110518,486.879259 C508.215022,486.953619 503.021331,486.602767 500.996158,489.178124 C499.540041,485.779575 491.761535,488.810515 488.840933,488.814704 C482.43695,488.822035 476.095731,488.690073 469.68861,489.008458 C466.647712,489.159272 463.591123,489.319512 460.564869,489.663032 C458.201818,489.930098 455.356533,491.385871 453.051016,491.374351 C451.697413,491.368067 451.000737,490.480988 449.323902,490.380445 C448.198341,490.313417 446.765238,490.711398 445.608295,490.810893 C442.134327,491.107285 438.646761,491.183739 435.187439,491.657127 C432.445714,492.032067 430.095216,493.414527 427.659987,493.993695 C426.06056,494.374919 422.877398,493.671121 420.477735,494.025114 C419.01848,494.239815 414.450333,495.081859 416.166919,497.516874 C417.679523,499.66283 414.97964,500.948938 415.703514,502.835158 C416.525718,504.977972 420.027929,504.496206 421.703718,504.338061 C424.999855,504.02596 428.177787,503.250944 431.426851,502.723095 C434.519006,502.222477 437.102776,502.835158 440.166687,503.110603 C447.137635,503.737947 454.048958,501.342729 461.078485,501.602464 C462.723938,501.663209 465.890364,502.176395 467.140406,501.685203 C468.831886,501.020155 468.69799,500.473455 469.751373,498.458414 C472.085135,503.488685 473.650041,500.296458 477.401215,500.076521 C479.77891,499.93618 479.029931,501.183537 480.713043,501.559524 C482.073967,501.864294 484.363794,500.847348 485.758193,500.232572 C486.376415,499.960269 488.5313,498.193442 489.16312,498.335878 C489.714394,498.459461 489.657907,499.328736 490.032396,499.457556 C490.447683,499.599991 490.46442,500.70177 491.06695,500.844206 C491.903799,501.042149 492.276196,499.895335 492.858852,499.79584 C495.492833,499.349682 496.699987,500.563524 498.151919,497.848874 C498.501303,500.060811 498.864286,500.263991 500.900966,500.673493 C501.685512,500.831638 502.356036,499.727764 502.690776,499.800029 C504.547533,500.201152 504.728502,500.954174 506.691958,500.659878 C508.222344,500.429468 515.074041,495.862111 515.614855,499.306742 C516.876404,498.689871 518.136907,498.073001 519.398456,497.457177 C518.591943,501.72919 526.822348,499.421947 529.303604,498.889909 C530.268072,499.27637 531.053663,499.082616 531.659332,498.3076 L531.659332,498.3076 L532.235712,497.315789 C533.912547,497.148218 533.115449,497.510591 534.194983,497.619512 C534.281806,497.62789 534.569473,498.630174 535.337281,498.687777 C536.378112,498.765278 536.562218,498.144218 537.295507,497.777657 C539.273607,496.787941 538.617727,496.095663 541.769508,496.455941 C542.98503,496.594187 544.209967,497.079095 545.441181,497.082237 C545.919341,497.083349 546.405488,496.965557 546.885308,496.813276 C545.583444,495.921855 546.122728,493.193453 546.054067,492 C546.807653,492.016257 548.792028,492.471449 547.657508,493.678521 C547.022349,494.637522 546.858486,495.651554 547.167532,496.719826 C547.945229,496.454836 548.697662,496.142596 549.363908,496.148029 L549.268793,496.152204 C549.28089,496.206501 552.700258,496.538934 552.410311,496.778833 L552.401793,496.783204 L552.4555,496.765429 C552.928616,496.602627 553.917776,496.2431 553.71312,496.177416 L553.664263,496.168975 C553.797113,496.179449 554.485421,495.513354 555.351559,495.62437 C556.355777,495.75319 556.638213,497.45613 557.830723,497.479171 C556.839057,494.324647 560.796304,494.609518 562.260789,492.807083 C561.987767,498.322262 565.002514,495.179259 566.125983,492.150414 C566.800692,493.83555 566.263017,496.175259 567.883365,497.208963 C569.660622,498.343209 573.330203,496.367966 574.320822,494.95618 C575.396172,499.208294 578.100239,493.412433 578.393136,496.914666 C579.483131,495.78042 578.726829,493.330742 580.623337,493.360067 C582.037611,493.381013 582.213349,495.67883 583.249995,496.29989 C585.336886,497.547247 585.519947,496.127083 587.253269,495.778326 C589.223001,495.383486 590.793138,496.311411 592.869569,496.270565 C594.86336,496.231815 596.915731,495.722818 598.937766,495.661026 C600.860426,495.603423 602.247502,494.669215 604.014298,494.517354 C605.448447,494.394818 607.850203,496.095663 609.047942,495.341594 C610.986292,494.122515 608.963211,491.920004 607.317758,492.027878 C609.85027,490.4569 609.47055,487.446906 608.094981,485.135474 Z M189.578685,289.107802 C176.19434,287.281278 165.08413,297.14283 157.868404,307.501859 C149.811645,319.07054 144.882607,333.249139 142.673327,347.092597 C141.505924,354.408117 139.909635,363.577392 141.16177,370.947373 C141.634589,373.731146 147.200678,380.95136 142.137744,381.742086 C136.666847,382.596698 133.485777,372.346591 132.978438,368.853783 C131.992003,362.066111 132.603948,354.849038 132.638468,348.016332 C132.725291,330.980647 134.931433,314.300004 135.762005,297.327158 C131.656217,296.222237 126.061885,319.553354 125.368347,322.739297 C123.465563,331.477076 122.499003,340.406515 121.130755,349.237505 C119.761462,358.071638 117.827296,366.899486 116.786466,375.775512 C116.226823,380.555474 114.780121,389.207373 108.595811,383.221947 C104.418891,379.17825 102.211703,371.903575 101.306861,366.443903 C98.3015286,348.31796 103.067381,329.727007 101.556869,311.482717 C92.7720522,315.031032 92.5115832,328.877632 91.2678171,336.669682 C89.4612704,347.99748 88.5438753,359.452004 88.2122741,370.913859 C87.6610001,389.971915 88.9622995,408.707398 95.8296874,426.671007 C102.221118,443.392496 113.061444,457.998401 126.386164,469.874994 C133.202295,475.95049 141.116789,479.74702 149.233173,483.75825 C152.991669,485.616193 157.987655,488.7969 162.238845,489.068155 C166.180401,489.319512 169.33532,487.552685 173.33964,488.220874 C176.932858,488.820988 179.31683,486.658275 181.293885,490.085102 C182.640165,492.419575 182.676777,493.626086 185.696754,491.391108 C185.874584,491.259146 184.969742,490.37102 185.864124,489.896584 C186.375647,489.626376 189.587053,489.800231 189.843338,489.840029 C190.611147,489.960471 190.937518,489.660938 191.711603,489.914389 C192.561004,490.194023 192.245093,491.658174 192.720005,491.789089 C193.835106,492.094906 195.034937,490.713493 196.373895,490.994174 C197.650089,491.262288 198.344673,493.072054 199.849954,493.387297 C199.387595,492.581909 199.002645,491.740912 198.695103,490.864307 C200.871955,491.254956 203.19944,491.652938 205.416043,491.614187 C207.752942,491.575436 209.567857,490.529165 211.826302,490.275714 C213.699796,490.064155 215.476007,490.744912 217.378792,490.545922 C220.046246,490.267335 222.813076,489.079676 225.460656,488.547638 C230.653301,487.504509 235.301994,486.270767 240.276012,484.561543 C244.333681,483.165468 245.212372,486.981897 248.808729,486.278098 C247.395501,482.302477 249.69788,482.063688 253.059919,481.40702 C256.509827,480.734641 259.677298,479.440155 263.118838,478.710174 C263.992298,478.867272 264.869943,478.893455 265.751772,478.791865 C266.618956,478.233644 267.40664,477.57907 268.115869,476.82919 C269.737263,476.098162 271.772897,476.756925 273.409982,476.069884 C274.800196,475.486527 275.531393,473.611827 277.2689,473.89984 C278.812885,474.155385 279.107874,476.084546 280.267955,476.873177 C280.267955,472.225177 283.090227,472.137203 286.735748,471.139108 C288.684559,470.604975 291.164769,468.433884 293.042447,468.277833 C294.409649,468.163676 295.079127,469.596408 295.733961,469.419411 C295.453617,465.132736 303.551172,462.816067 306.479096,461.62736 C312.279502,459.271941 318.233679,456.788748 323.781984,453.896054 C327.111595,452.1596 330.200612,450.328887 333.723744,448.993556 C336.09621,448.094956 337.527221,446.698881 339.523104,445.723827 C340.729212,445.133139 342.383034,445.607575 343.539977,444.892256 C344.175982,444.499512 344.379964,443.436483 344.979356,442.969379 C346.70431,441.625669 348.751451,441.04755 350.707584,440.059928 C355.078026,437.85218 353.478599,432.479436 353.036115,428.632635 C352.317472,422.380143 352.250524,416.001972 351.987963,409.714919 C351.447149,396.762729 349.97848,383.900609 348.813169,370.99555 C319.971186,391.8529 285.259756,403.197455 250.085969,407.803562 C232.972417,410.043777 213.640171,412.996168 196.49733,409.787184 C193.031731,409.137846 184.377672,408.015121 183.364039,404.065682 C182.439321,400.461859 187.945784,396.106061 190.104853,394.168521 C197.396942,387.623827 204.445298,382.668963 210.505127,374.74495 C217.458292,365.653177 223.535904,354.960054 225.160436,343.460496 C226.277629,335.555335 224.718999,323.389682 213.68306,325.542969 C205.06875,327.223915 207.502933,339.043953 208.008181,345.270262 C209.267638,360.823991 197.967045,381.139878 182.963398,386.788067 C160.377903,395.289152 154.245896,357.357367 156.539907,342.865619 C158.241847,332.118035 163.45646,320.658275 172.606352,314.248685 C177.939169,310.511852 184.773083,308.871751 191.149868,310.23536 C196.358204,311.34866 203.935867,315.087587 208.621172,310.416546 C213.76779,305.285732 204.886736,300.629354 202.632475,296.531196 C199.758947,291.309266 195.297498,289.889102 189.578685,289.107802 Z M585.893211,490 C587.435881,491.315772 587.232271,491.266381 586.102324,493 C584.739418,491.592361 584.606429,492.142575 585.893211,490 Z M252.905102,482.826136 C253.289006,481.380837 251.796278,485.749203 253.177078,485.0276 C255.058941,484.299714 254.967933,483.565543 252.905102,482.826136 Z M836.719895,283.134944 C845.622916,299.904609 859.702892,312.775108 865.097427,331.447751 C869.495066,346.667385 873.872829,366.592622 865.18948,381.113695 C861.630782,387.065606 855.600243,392.948395 848.123001,392.207941 C841.06523,391.508332 836.283687,384.933266 832.978136,379.286124 C824.343952,364.537783 822.086553,346.608736 822.949553,329.782515 C823.167133,325.537732 829.825309,304.729606 824.887903,304.33372 C820.391935,303.973442 815.785084,312.656761 813.95134,315.848988 C810.069409,322.601051 808.297382,329.959512 809.056822,337.741089 C809.931329,346.710326 813.578942,355.157997 816.50582,363.586818 C818.014239,367.927953 819.249636,372.314124 820.149249,376.823878 C820.657634,379.372004 820.407626,384.266124 822.002868,386.358666 C823.83452,388.761215 827.218526,387.245745 828.379653,390.465203 C829.294956,393.000761 827.335685,396.201367 825.702784,397.947247 C821.127315,402.837177 813.085201,405.782237 806.67808,407.053682 C798.19139,408.73777 789.057189,407.301897 780.590375,406.116332 C771.264744,404.809278 762.041628,402.720925 753.075843,399.83242 C736.552269,394.5089 720.59043,386.254982 709.09004,372.926805 C705.759383,388.439688 700.482007,403.426818 696.050895,418.637026 C694.747503,423.106982 690.188771,432.058414 693.483862,436.263398 C696.573925,440.205505 704.104515,442.945291 708.500062,445.047259 C714.061966,447.706401 719.890616,449.506742 725.390803,452.40572 C730.801028,455.258616 736.087818,458.224622 741.840106,460.353821 C754.056001,464.87719 767.04912,468.926124 779.656243,472.206326 C784.78717,473.540609 790.169152,473.860042 795.218486,475.511663 C797.117086,476.13377 798.822165,477.541367 800.644403,478.103777 C802.982348,478.825379 801.182078,478.076546 803.26583,478.036748 C804.42905,478.014755 805.452097,477.842994 806.674942,477.977051 C819.522658,479.3836 831.55654,476.594591 843.926206,472.900698 C894.804502,457.706199 920.058497,405.726729 932.615409,358.055928 C934.792261,349.787348 935.707564,341.44755 935.896901,332.919234 C936.051718,325.958755 936.46805,318.56678 934.015038,311.918401 C933.471086,310.446919 932.172925,306.278591 930.414497,305.669051 C927.993913,304.831196 926.823371,307.658956 925.734422,309.440445 C921.808556,315.860509 919.89845,323.195928 918.047969,330.424521 C916.287449,337.309594 915.643075,345.294351 912.485018,351.696609 C909.299764,358.152281 906.730639,352.863322 906.259912,348.076029 C905.539176,340.750035 907.008891,333.120319 906.949266,325.749291 C906.909515,320.775575 906.614526,315.808143 906.405314,310.839663 C906.319537,308.823575 906.694027,300.149682 904.361312,298.984016 C901.335058,297.469594 900.488795,303.077985 900.064095,305.09931 C897.549365,317.056546 896.616279,329.388723 894.515789,341.429745 C893.329556,348.235221 891.851473,355.008231 890.485318,361.780193 C889.889063,364.732584 888.498849,374.410856 884.44641,374.77218 C880.781971,375.098997 880.658729,367.100298 880.651755,364.460167 L880.651302,364.202641 C880.641887,357.201316 881.647152,350.238742 880.191035,343.305493 C877.308092,329.582477 871.46166,315.421682 863.950944,303.627827 C857.129583,292.914805 850.012187,284.471322 836.719895,283.134944 Z M601.79665,443.225972 C599.633396,441.679083 597.196075,442.773531 594.934492,443.299285 C591.466801,444.10572 588.659175,443.176748 585.171609,443.001846 C577.441221,442.615385 569.232783,443.28148 561.503441,443.775815 C547.977878,444.641947 534.597716,444.60948 520.615024,444.559209 C517.402572,444.546641 500.519154,442.424774 499.942775,446.780572 C496.02737,443.595676 490.597269,445.010603 486.098163,445.700786 C481.281053,446.440193 476.786131,445.520647 471.970068,445.643184 C466.111083,445.791903 460.250005,446.11343 454.404618,446.563777 C451.621051,446.778477 423.571982,448.585102 424.231,451.866351 C425.355515,457.45589 419.914954,462.031625 429.046017,460.70572 C432.185245,460.249089 435.231373,460.419802 438.291101,459.687726 C441.527612,458.91271 440.79537,458.544054 443.346712,459.816546 C443.180388,459.733808 446.835324,458.373341 446.602052,458.364963 C447.869878,458.411045 449.087492,459.776748 450.43691,459.595562 C450.929605,459.656307 451.423346,459.717051 451.917086,459.777796 L451.917086,459.777796 L452.273793,458.48331 C452.681756,458.40895 453.830331,459.396572 454.105445,459.196534 C454.000839,459.272988 455.927683,457.248521 455.280171,457.413997 C457.327312,456.890338 457.27187,457.813026 459.294952,458.626792 C461.259453,459.415423 463.740709,459.081329 465.83283,458.911663 C472.039108,458.406856 477.792441,457.013922 484.077173,457.195108 C485.587685,457.238048 487.33879,457.532344 488.837795,457.222338 C489.275049,457.131221 489.800171,456.298603 490.26253,456.366679 C492.77726,456.73743 491.546046,456.051436 491.349387,458.002591 C491.353571,457.95965 494.672721,456.556244 494.959342,455.454464 C499.010735,458.867676 503.742067,457.415045 508.329043,456.552054 C511.242321,456.004307 514.797881,458.409997 516.15253,455.728862 C516.878496,456.74895 517.760325,457.609846 518.798017,458.309455 C518.94342,457.560622 519.764577,452.848736 519.240501,453.462464 L519.241793,453.460204 L519.382651,453.301208 C521.579413,450.89338 522.367598,454.002275 523.665468,454.988134 L523.749022,455.048105 C525.313929,456.106944 527.491827,455.783322 529.243978,455.616799 C533.835138,455.17902 535.043338,454.256332 538.365627,457.621367 C539.186784,456.734288 539.725506,454.645934 540.527834,453.988218 C541.912818,452.851878 542.259064,454.39772 541.706744,456.031537 C543.539443,455.210439 544.995559,454.56948 545.841822,456.921758 C547.663013,455.539297 549.482113,454.155789 551.302258,452.772281 C551.871315,454.59671 552.549163,455.875486 554.125576,453.869871 C553.058594,456.977266 556.03359,454.763234 557.074421,454.812458 C557.463555,454.830262 557.817124,454.211297 558.161278,454.275184 C558.478234,454.333833 558.650834,455.30365 558.982435,455.360206 C559.501281,455.447133 559.722,456.553102 560.396709,456.607562 C561.123721,456.666212 560.504453,455.250237 560.65404,455.136079 C561.661396,454.371537 561.93651,452.040206 563.215843,451.054679 C564.878033,455.089997 565.285996,455.996975 569.07169,452.719915 C570.949369,455.753997 572.55821,456.206439 575.701622,454.760092 C576.621109,454.336975 577.367996,453.074956 578.545861,453.211108 C580.113906,453.394389 578.306313,455.614704 577.062547,455.396862 C580.167255,458.297934 585.108845,455.781228 588.712524,455.512067 C588.492851,455.528824 591.139384,454.938136 590.623676,455.144458 C593.804747,453.876155 596.122817,454.597758 599.24217,455.094187 C601.271527,455.417808 602.396043,455.625177 603.66596,453.754666 C605.409743,451.187688 604.328116,445.037833 601.79665,443.225972 Z M408.385274,414.81536 C415.77883,406.580294 402.590098,406.310086 403.984497,411.75719 C400.85573,407.985796 397.482184,408.690641 392.962156,409.106426 C388.196304,409.545253 383.437775,409.82384 378.679245,410.304559 C376.773323,410.496218 358.622079,410.096143 359.7717,414.941038 C359.632573,414.350351 363.269726,416.481644 362.823058,416.301505 C366.010405,417.590755 367.807537,417.511158 369.44776,414.136698 C370.312852,415.19449 370.391307,416.183158 370.532525,417.491259 C371.280458,416.647121 372.159149,415.973695 373.168598,415.470982 C373.231361,416.353871 373.295171,417.235714 373.358981,418.118603 C375.420766,415.851158 379.779701,417.747852 382.263049,417.721669 C385.328006,417.689203 386.87513,416.590565 389.37103,414.864584 C389.905567,415.672067 389.070811,417.0849 389.002817,417.879815 C391.376329,416.973884 393.896289,417.228382 396.322103,416.630363 C397.331552,416.472218 398.274052,416.140218 399.150651,415.636458 C399.915321,414.869821 400.456135,415.016445 400.773091,416.077379 C403.73135,416.512016 405.724096,417.779272 408.385274,414.81536 Z M600.765234,398.065594 C596.861336,394.568597 585.540868,397.256016 580.830457,397.497947 C573.91495,397.854035 567.037102,398.12948 560.124733,398.638477 C553.392287,399.133859 546.615907,398.811285 539.837434,399.264774 C536.955537,399.45748 533.066284,398.920206 530.329789,399.61772 C527.696855,400.288004 527.234496,401.66837 524.217657,401.247348 C518.526041,400.451385 511.629364,400.313139 505.935656,401.608673 C505.036044,401.813947 502.937646,403.346174 502.224233,403.288572 C501.834052,403.258199 500.059933,401.697695 499.20321,401.522792 C496.611072,400.992849 494.066006,402.669606 491.393321,401.930199 C489.408944,401.381404 489.504136,403.600673 488.582556,404.665796 C486.181847,401.017985 480.149216,401.672559 476.468129,402.035979 C471.578841,402.518792 467.211538,403.662464 462.419535,403.265531 C456.276021,402.757581 449.400264,403.87507 443.265119,404.408155 C439.56311,404.729682 433.503281,404.084534 430.13915,405.827272 C425.223712,408.373303 427.928824,414.170212 432.342154,415.213341 C435.273216,415.905619 437.716813,414.441468 440.546407,414.134603 C442.508817,413.92095 444.230633,414.21001 445.806,414.392244 C448.21717,414.67083 451.769592,414.039297 454.333486,413.429758 C457.234212,412.740622 459.431986,412.9836 462.400706,412.922856 C465.751238,412.85478 473.683515,413.796319 474.882301,409.860496 C477.571723,412.96789 482.808302,408.383777 484.535348,411.601139 C486.314697,409.655221 487.242553,411.125657 489.328398,411.527827 C489.19764,410.479461 489.066883,409.431095 488.935079,408.382729 C491.607764,410.895247 492.98961,410.187259 495.144495,412.759474 C496.798316,409.96418 499.787958,412.708155 501.208508,409.395486 C502.61546,410.529732 503.752527,411.577051 505.633344,411.771852 C505.287098,409.833266 505.302789,408.537732 507.209758,408.090527 C509.202503,407.624471 509.533058,409.619613 510.66385,409.966275 C511.924353,410.351688 513.262264,409.812319 514.324016,409.69502 C514.542643,409.670931 514.795789,410.404054 516.392078,410.244862 C517.169301,410.166313 517.973721,409.536874 518.633786,409.146225 C520.381753,408.109379 520.61084,406.799184 522.628691,407.528117 C523.576422,407.869543 523.910115,409.723297 525.727123,409.987221 C530.602811,410.697303 530.37477,406.82013 533.10185,404.494035 C532.93448,406.09748 533.357089,407.966944 534.629098,409.066628 C538.38341,405.795852 537.298645,408.365972 541.12095,408.628849 C542.50175,408.723108 544.452653,406.846313 545.583445,407.18355 C547.740422,407.82765 545.487207,409.117947 546.765493,409.872016 C548.623297,410.968559 553.887074,408.425669 555.601567,408.058061 C559.065074,407.314464 563.3466,406.631613 567.336275,408.763953 C567.132293,407.575247 566.928312,406.385493 566.72433,405.196786 C569.7328,409.320079 573.472467,408.433001 577.892073,408.113568 C579.920384,407.966944 586.99803,408.912673 588.123592,406.694452 C589.940599,408.92524 589.23137,406.51955 591.267004,406.324748 C593.054721,406.152988 594.208526,407.950187 596.616558,407.097669 C599.837378,405.955045 603.985009,400.948862 600.765234,398.065594 Z M683.418667,401.482994 C685.604933,395.341518 683.582898,394.00095 677.471812,394.546603 C671.706972,395.061884 665.72769,395.686086 660.081055,395.970956 C654.053653,396.274679 646.997975,395.548887 640.547965,395.781392 C633.18056,396.047411 625.82257,396.554313 618.462487,396.979524 C620.042039,399.748635 622.670789,401.592963 624.321473,404.303423 C625.405192,400.647234 629.393821,404.397682 631.780931,404.733871 C635.632526,405.27743 639.865933,404.245821 643.779246,404.498225 C646.517833,404.674174 647.197772,403.595436 649.629863,403.19955 C650.237624,403.299045 650.752286,403.560874 651.173849,403.985038 C651.61424,404.568395 652.142501,404.534881 652.759676,403.883449 C653.417649,403.417392 654.137338,403.083297 654.9177,402.881165 C655.530691,402.776433 656.008741,402.967045 656.351849,403.454048 C657.736833,403.423676 656.608133,405.328748 659.076836,403.673985 C658.096678,403.005796 656.818392,404.052067 656.891616,402.210881 C658.475352,402.486326 658.479536,401.242111 659.684598,400.978187 C660.189845,400.786527 660.607223,400.459764 660.937778,399.999991 C661.377124,400.29324 661.754752,400.649329 662.069616,401.069303 C664.694182,401.393972 667.954753,402.048546 670.805268,402.46119 C673.01141,402.781669 682.340178,404.512887 683.418667,401.482994 Z M836.539972,307.473581 C835.924889,309.836332 835.361062,312.213745 834.686353,314.560786 C830.404827,329.474603 830.404827,345.139348 835.64036,359.796572 C838.01178,366.436572 843.237898,379.917657 852.610601,376.156736 C864.117268,371.540155 860.360864,355.320332 857.947603,346.3689 C854.231995,332.593518 845.975439,318.214881 836.539972,307.473581 Z M194.719027,323.084912 C187.645565,321.638565 181.696618,321.333796 175.553104,325.732534 C165.271375,333.095184 162.013942,347.685379 163.657303,359.625859 C165.233716,371.074098 174.834461,381.490729 186.161205,372.978124 C191.692773,368.820269 196.827885,361.62519 199.40224,355.254351 C202.604232,347.328244 200.771533,338.574755 200.271516,330.339688 C200.049752,330.332357 200.249549,325.331411 200.026738,324.94495 C199.076915,323.294376 196.380171,323.425291 194.719027,323.084912 Z M520.746828,360.172559 C519.655787,353.724218 507.029835,360.908824 504.533935,360.532837 C503.145812,360.323373 502.557926,358.293669 500.176046,358.264344 C496.799363,358.221404 493.165348,359.013177 489.772973,359.205884 C485.920332,359.424774 482.093843,359.416395 478.250616,359.48866 C475.913716,359.532647 473.812181,361.152849 471.845587,361.219878 C470.688644,361.259676 470.209548,360.118098 469.094447,360.010225 C468.237724,359.927486 467.464685,360.481518 466.648758,360.530742 C464.718776,360.646994 463.045079,360.456382 461.100452,360.356887 C454.871161,360.037455 448.149176,361.034502 441.903148,361.362313 C435.823444,361.680698 429.703989,361.759247 423.634746,362.201215 C418.941072,362.541594 415.193036,364.311562 410.564218,363.971184 C404.574475,363.53131 398.382843,364.06649 392.449587,364.970326 C387.482891,365.72649 382.619755,365.286616 377.686533,365.73801 C375.450056,365.943285 374.232441,367.846262 372.487612,368.111234 C371.072292,368.326982 370.062844,367.113139 368.44668,366.86283 C363.530195,366.10143 358.469354,369.334502 353.440941,368.721821 C355.016308,372.935184 358.2183,374.575285 362.937079,374.620319 C365.323143,374.64336 367.379698,373.392862 369.764716,373.242048 C372.183209,373.089139 372.644521,374.084092 374.288929,371.609278 C374.38935,373.339449 375.93752,375.083234 377.872732,374.39724 C378.494092,374.177303 378.803726,372.939373 378.183412,373.115322 C378.298479,373.082856 378.373795,371.62813 379.358138,372.17902 C380.442903,372.786464 379.139512,374.262136 380.21277,374.996307 C382.15635,374.05372 384.339479,374.158452 386.442061,374.212912 C383.974967,374.148462 389.509308,373.573986 390.150972,373.867159 L390.171793,373.878204 L390.380815,373.74753 C391.334953,373.128368 392.300097,372.337342 393.351798,372.315544 L393.596069,372.324597 C394.667235,372.428281 395.192358,373.947941 396.220635,374.066288 C397.806463,374.247474 397.589929,373.012685 399.180987,372.497404 C399.798163,372.297367 400.997994,373.109038 401.617262,373.204344 C402.812909,372.306792 403.521092,372.349732 403.738673,373.334212 C403.883029,373.688206 404.038892,374.035915 404.207308,374.378389 C403.817127,374.275751 405.111104,374.814073 405.016959,374.774275 C405.658194,375.046578 407.66663,374.813026 408.446992,374.667449 C410.913603,374.203486 412.802788,373.650502 415.338439,373.480837 C417.679523,373.323739 419.873112,373.0263 421.614803,371.281468 C421.674428,372.247095 421.8146,373.200155 422.036365,374.141695 C423.203769,373.091234 424.372218,372.041821 425.539622,370.99136 L425.539622,370.99136 L426.529195,373.485026 C428.86191,372.321455 428.340972,373.306982 429.607752,373.235764 C431.176843,373.148837 432.508478,372.97184 434.302472,372.552912 C436.561963,372.026111 439.18339,373.035726 441.321538,372.494262 C442.69397,372.1476 443.217,370.469796 444.088369,370.259285 C446.635526,369.642414 445.547623,371.853303 447.39915,372.285846 C448.786227,372.610515 449.335409,371.42495 450.729807,371.158931 C452.3648,370.84683 453.42969,371.706679 455.112801,370.94842 C455.39733,370.820647 457.262456,369.401531 457.125422,369.388963 C458.141147,369.479032 458.827363,371.10866 459.849364,371.504546 C461.452975,372.127701 461.747964,371.781038 463.246969,371.521303 C466.330755,370.987171 467.737707,370.9369 469.074572,368.068294 C470.709565,369.340786 468.880005,370.445707 468.806781,371.879486 C468.722399,372.093576 478.491399,367.089917 479.632683,366.014089 L479.659793,365.985204 L479.634172,366.062835 C479.033891,367.835664 478.215745,371.00233 480.867556,371.313657 L481.058243,371.330691 C482.512267,371.421808 483.195344,369.798464 484.257096,368.746956 C488.693439,364.353455 488.25514,370.941089 492.616166,369.509404 C494.522089,368.884155 494.351581,367.149796 497.003344,367.892344 C498.486658,368.307083 497.170714,369.211966 499.115341,369.284231 C499.708457,369.306225 500.985697,368.159411 501.770243,368.069341 C502.284904,368.009644 501.69388,369.774376 502.924047,369.558628 C503.728468,369.41724 504.527658,367.75724 505.294421,367.793897 C506.748445,367.861972 505.51514,368.851688 506.376047,369.327171 C507.331101,369.85502 508.435741,370.908622 509.612559,371.497215 C509.696244,370.623751 509.778883,369.750288 509.862567,368.876824 C510.169063,369.137606 511.488146,370.989266 511.878326,370.785038 C512.001761,370.721152 514.640972,368.789897 511.686897,369.602616 C512.190052,367.276521 514.675492,366.392584 516.442289,365.242628 C515.64519,371.573669 520.287607,366.449139 521.588907,371.186162 C523.057576,370.12837 523.114063,369.083146 523.222853,367.384395 C525.803485,368.476748 527.380944,370.532635 530.3005,369.948231 C532.029638,369.602616 531.448028,367.90177 534.236826,368.798275 C536.286058,369.455991 536.54862,371.072004 538.752669,369.97965 C539.512109,369.602616 541.420124,367.131991 541.686869,366.281568 L541.686793,366.282204 L541.76793,366.513048 C543.211789,370.354863 547.981646,369.471826 551.276504,369.247408 L551.468582,369.235007 C554.960332,369.023449 557.055592,370.938994 558.787868,368.225392 C560.173898,369.919953 567.947175,372.129796 565.617598,368.036874 C570.346838,369.986982 575.108506,369.978603 580.065787,369.174262 C580.761417,369.061152 582.007275,368.408673 582.702906,368.578338 C583.712354,368.825505 583.587873,369.336597 584.171575,369.533493 C584.652763,369.696874 584.997963,370.322124 585.803429,370.515878 C586.696765,370.730578 587.872537,370.118944 588.750182,369.969177 C590.876823,369.6089 593.693864,368.762666 595.873855,369.103045 C598.087319,369.44866 598.597796,370.159789 600.914821,369.911575 C603.952581,369.586906 605.393006,370.326313 606.049932,366.849215 C607.516509,368.110187 605.816661,368.540635 607.930749,369.662313 C609.339793,370.409051 612.252026,370.193303 613.803333,370.05401 C614.409003,369.917859 614.800229,369.548155 614.97806,368.9449 C615.565946,369.541871 616.251115,369.748193 617.034615,369.56177 C618.459349,369.008786 618.58383,369.954515 619.188453,367.760382 C621.967836,370.689732 623.264952,368.309177 626.301666,368.177215 C629.17101,368.052584 629.042344,370.395436 631.308112,370.660408 C631.129235,370.639461 633.052941,369.339739 632.976578,369.380584 C636.249702,367.634704 635.465156,366.217682 638.27906,368.35107 C641.232089,370.590237 639.655675,369.280042 643.309565,368.553203 C646.796085,367.857783 655.856016,372.8116 656.646838,368.856925 C659.910547,372.657644 662.870898,368.275663 665.748611,369.147032 C666.278964,369.307272 666.373109,370.666691 667.269583,370.767234 C668.296815,370.881392 668.324012,369.928332 668.954787,369.927285 C670.689155,369.926237 670.293744,368.321745 672.402603,370.89396 C674.350367,368.810843 674.434052,368.500837 676.405876,368.810843 C678.467662,369.135512 680.691587,371.654313 683.70738,370.634225 C682.717806,370.312698 682.030544,369.672786 681.643502,368.713442 C683.6488,368.278805 682.708392,369.805796 683.536872,369.878061 C684.244009,369.939852 687.094524,370.210061 687.765049,370.426856 C690.383338,371.276231 693.863582,369.902149 694.628252,367.114187 C695.618872,363.497796 693.490138,364.364975 690.976455,363.609859 C690.750506,365.688786 692.779863,367.994982 689.686662,368.722868 L689.686662,368.722868 L688.862366,363.684218 C686.629027,365.055158 686.188635,363.994225 684.073501,364.006792 C681.554587,364.020408 679.935285,365.689833 677.542944,365.993556 C677.971829,364.417341 679.110989,363.538641 680.233412,362.464092 C675.797069,363.196168 671.461148,361.630426 667.072924,361.286906 C667.374189,362.281859 667.673363,363.276811 667.973582,364.271764 C665.129343,361.102578 660.486926,360.991562 656.55583,360.963285 C652.909263,360.937102 649.362072,360.401922 645.734333,360.290906 C641.388998,360.157897 637.00182,360.761152 632.647069,360.503512 C630.221255,360.360029 627.913645,359.833228 625.474232,359.897114 C622.308852,359.979852 623.526467,360.216546 621.727243,361.831512 L621.758793,361.801204 L621.761929,361.792049 C621.724473,361.488885 619.011655,359.597381 618.462603,359.383517 L618.412276,359.367171 C616.636066,358.957669 614.582649,359.411158 612.807484,359.512748 C608.823039,359.741064 604.985043,359.388117 601.012104,359.01213 C591.420775,358.104105 581.514581,357.739638 571.885593,358.13343 C562.422929,358.51989 552.851474,357.552168 543.451573,358.638237 C536.135426,359.483423 527.320273,355.674326 520.746828,360.172559 Z M659.960956,369.94924 C658.238782,367.809764 658.83109,366.83465 661.740371,367.02283 C662.39863,369.267088 661.805077,370.242201 659.960956,369.94924 Z M516.109641,317.06283 C496.566091,317.126717 476.753703,316.12548 457.281285,318.066162 C447.805022,319.010843 438.256581,319.301997 428.746844,319.845556 C425.777078,320.016269 413.786085,319.654944 412.699228,323.512218 C409.96901,320.372357 409.876956,323.815941 409.16982,326.140988 C407.269127,320.686553 401.28043,326.434237 399.087887,328.850401 C399.40589,328.49955 403.68114,330.756521 404.363171,330.847638 C406.129967,331.087474 408.232549,330.653884 409.879049,330.528206 C410.27969,330.892673 410.729496,331.163928 411.227421,331.34302 C411.819491,331.715865 412.144816,331.353493 412.203395,330.25695 C412.349844,329.821266 412.496292,329.385581 412.642741,328.948849 C413.255732,329.247335 413.855125,329.279802 414.438827,329.047297 C416.927405,328.52678 417.060255,329.34683 419.222462,330.762805 C419.775828,329.904004 420.329194,329.045203 420.881514,328.185354 C421.330274,328.977127 421.777988,329.7689 422.226748,330.560673 C423.930781,326.106426 425.036467,328.905909 427.894304,329.995121 C431.195672,331.250856 434.221925,329.406527 437.541075,329.165644 C438.369555,329.038919 439.199081,329.079764 440.028607,329.287133 C441.275512,329.154124 442.311112,329.564673 443.134361,330.519827 C443.841498,330.41719 445.038192,328.712155 445.86458,328.461846 C447.755857,327.89001 448.537264,328.934187 450.144013,327.222868 C449.950492,328.102616 449.756971,328.983411 449.562404,329.864206 C451.293634,329.013783 454.806306,328.702729 455.576206,327.063676 L455.570793,327.073204 L455.555259,327.109117 C455.336158,327.590083 454.171963,330.27693 454.505764,330.514074 L454.551067,330.5303 C456.045887,330.667499 457.169356,327.752811 457.269778,326.70654 C460.625541,331.67083 471.589302,327.84707 476.275653,328.1089 C480.40027,328.33931 483.6985,328.976079 487.653655,327.693114 C489.151613,327.206111 490.483249,326.220584 491.67262,326.809177 C492.86199,327.398818 490.767777,329.04625 493.187315,329.385581 C492.500053,325.006742 496.243904,325.620471 499.080821,326.822792 C498.094386,326.942187 497.10795,327.063676 496.122561,327.18307 C499.089189,329.447373 500.237764,327.035398 503.123845,326.838502 C504.68666,326.731676 505.482712,327.197732 506.622918,326.757859 C506.841544,326.673026 506.315376,325.426717 507.054941,325.274856 C508.353102,325.008837 509.05187,325.64037 510.110484,326.118994 C512.792583,327.332837 513.794709,328.677594 516.972641,328.521543 C520.280285,328.359209 522.482243,327.554868 525.798255,328.19478 C528.445834,328.705871 530.193801,329.078717 532.977369,328.839928 C539.043474,328.322553 544.086532,329.176117 549.995729,326.986174 C549.848234,330.049581 555.135024,328.591714 556.790938,328.619991 C557.792018,328.635701 558.304588,329.312269 559.249181,329.294464 C559.686434,329.287133 561.122675,328.629417 561.491935,328.488029 C561.704285,328.405291 563.501417,328.139272 563.464805,328.145556 C563.615438,328.12042 563.849755,326.648938 564.229475,326.751575 C566.07891,329.252572 566.836258,327.47213 569.171066,327.549632 C571.04456,327.610376 572.77056,329.164597 574.680667,329.412811 C577.45482,329.774136 580.327302,328.58124 583.139113,328.727865 C584.762599,328.81165 587.137156,330.156408 588.06815,330.142792 C589.773229,330.117657 589.378864,328.560294 591.519104,328.742527 C592.901996,328.860874 594.664609,329.348925 596.024487,329.456799 C596.062146,329.459941 597.99422,329.039966 598.189833,329.03054 C598.76935,330.446515 599.45452,330.549152 600.247434,329.341594 C600.839504,328.678641 601.194119,327.90572 601.309186,327.02283 C604.083338,331.174401 612.375461,328.521543 616.351537,328.16336 C621.958422,327.658553 626.745195,329.879915 631.263131,325.894868 C631.343678,326.514881 632.097887,329.180307 632.902308,329.06196 C633.837486,328.925808 633.018421,326.222679 633.043526,325.817367 C634.534163,326.810225 636.082332,327.938187 637.931767,328.01883 C639.146244,328.073291 640.110712,327.206111 641.241503,327.145367 C641.003001,327.157934 643.385927,327.482603 642.536526,327.812509 C643.954984,327.261619 645.617175,323.78871 643.469612,322.659701 C641.867047,321.815562 642.578369,323.683979 641.380629,323.425291 C640.335615,323.19907 638.840794,321.1369 637.472547,320.516887 C633.779953,318.845367 629.064312,319.614098 625.127986,319.607815 C604.931693,319.576395 584.750046,318.758439 564.557938,318.831751 C559.99293,318.848509 555.600521,318.479852 551.075263,317.96143 C547.293754,317.52784 544.884676,318.540597 541.210912,319.081013 C537.078972,319.688458 532.818367,318.026363 528.763836,317.433581 C524.562857,316.819852 520.342003,317.049215 516.109641,317.06283 Z M459.233187,325.19921 C462.809414,327.616097 461.029118,323.680024 464,325.496351 C463.180215,326.371034 462.268847,327.150506 461.264779,327.833721 C459.72126,328.647721 458.462545,326.264314 459.233187,325.19921 Z M504.992109,269.373177 C498.86324,268.132105 498.136228,270.433064 497.733495,276.376597 C497.314024,282.575676 496.2983,287.767234 490.282405,290.937468 C486.156742,293.110654 483.601216,293.243663 482.674406,288.568433 C477.908554,289.595852 473.142702,290.624319 468.37685,291.651739 C476.785085,304.127398 496.218799,310.075121 510.280992,310.322288 C519.001999,310.476244 527.930126,310.326477 536.349868,307.785682 C540.010034,306.681808 543.351152,305.046944 546.701684,303.224609 C547.468446,302.807777 554.692541,299.307638 554.611634,298.066565 C554.502158,296.415991 549.285453,297.075802 548.283327,296.98678 C545.69642,296.758464 543.500738,295.623171 541.162793,294.568521 C536.616613,292.515777 531.951183,290.324786 528.45211,286.656029 C525.010571,283.046969 524.167446,279.446288 523.796095,274.704029 C523.425789,269.968054 521.804395,269.265303 517.201729,269.392029 C512.888821,269.511423 509.270497,270.23931 504.992109,269.373177 Z M593.025432,293.216433 C588.691603,293.431133 582.531352,292.179587 578.409873,293.175587 C577.409839,293.417518 577.203765,294.206149 576.160843,294.427133 C574.941136,294.684774 575.516469,292.428849 573.621007,294.124458 C571.541439,295.983449 571.334319,298.957833 569.912723,301.222136 C570.714005,301.471398 571.765296,300.598982 572.180582,300.706856 C572.4944,300.788546 574.522712,301.605455 574.577107,301.600218 C576.653537,301.407512 577.440175,300.553947 578.595026,298.833203 C581.49889,301.413796 584.896495,302.146919 588.7188,302.045329 C591.582914,301.968874 594.329869,300.438742 596.915731,300.830439 C596.997324,301.362477 597.259885,301.775121 597.705507,302.06837 C598.617672,302.239083 599.532975,302.252698 600.452462,302.11131 C602.311312,302.130162 603.980824,301.749985 605.859549,301.953165 C608.282226,302.216042 610.481045,303.419411 609.039573,299.882616 C606.648279,294.0103 598.04443,292.968218 593.025432,293.216433 Z M451.12208,297.704193 C449.852163,303.502149 455.913038,300.264887 455.09711,297.89271 C453.884726,299.387234 452.408735,298.27184 451.12208,297.704193 Z M446.470249,298.026767 C446.746409,300.860811 447.375091,301.671436 450.047776,300.25965 C449.854255,299.962212 449.659687,299.664774 449.466166,299.367335 C447.998543,300.348673 447.775732,298.051903 446.470249,298.026767 Z M459.434078,298.751512 C458.085706,297.916799 456.830433,298.03724 455.665109,299.112837 C455.654661,299.109695 462.136052,300.578035 459.434078,298.751512 Z M476.256941,261 C476.637236,261.925773 476.885372,262.871134 477,263.837113 C476.554974,264.224742 476.111296,264.612371 475.667619,265 C474.335237,263.296907 475.242821,262.608247 476.256941,261 Z M398.640173,240.739486 C396.281307,237.903348 393.809466,240.638944 396.818982,243.009026 C390.649316,245.340357 393.859676,258.017102 393.859676,262.801253 C396.100338,261.134969 394.739413,259.660344 395.530235,257.476685 C395.89531,256.469165 396.779232,255.903613 396.781324,255.167348 C396.783416,254.193341 394.446516,251.989783 395.78129,251.648357 C399.463423,250.70577 400.908033,243.466704 398.640173,240.739486 Z M523.875595,187.467625 C519.529213,183.328622 511.742338,188.013278 507.054941,189.178944 C500.351784,190.847322 493.670595,192.055928 487.068907,194.140092 C482.331298,195.63671 476.327956,196.521695 474.002564,201.502742 C471.546413,206.761329 474.283954,214.488445 470.250344,219.046376 C468.222033,221.338956 459.600401,221.6343 460.520935,226.151385 C461.171584,229.345707 466.537875,227.578881 468.76703,228.044938 C475.357212,229.41902 469.143612,234.443007 471.157279,238.013316 C471.936594,239.394729 472.462763,238.563158 473.396895,239.150704 C474.283954,239.708925 474.967032,240.063966 475.899072,241.17936 C477.747461,243.39025 479.187886,246.210679 481.412857,248.078048 C498.361131,262.29854 530.706371,269.054792 547.607572,251.218956 C551.786584,246.80765 556.308704,240.094338 554.205076,234.01989 C552.854612,230.118628 553.215503,229.585543 554.760535,225.503095 C556.330672,221.353619 557.056638,217.299449 556.226066,212.887095 C555.597383,209.55348 552.814862,206.344496 552.470708,203.14389 C552.115047,199.841695 553.810712,200.050111 556.459337,199.384016 C561.657212,198.075915 570.21085,195.348698 573.082286,190.35613 C567.907424,189.257493 562.394685,193.54731 557.459371,194.54331 C552.12237,195.619953 546.617999,195.538262 541.216142,195.109909 C535.969102,194.693076 530.601765,194.10972 525.537786,192.614149 C521.066923,191.294527 517.168255,188.956912 523.875595,187.467625 Z M399.778287,251.014729 C398.851478,252.035865 402.148661,255.937127 401.386083,256.195815 C400.206126,256.594843 399.438318,260.020622 399.438318,261.495247 C399.829544,260.013291 400.863052,259.544092 402.166444,260.426982 C404.621548,262.086982 403.214596,258.56066 402.867304,257.535335 C402.662276,256.931032 401.726052,256.187436 401.414326,255.4009 C400.723926,253.658162 402.135062,252.364723 399.778287,251.014729 Z M509.920034,254.752409 C503.704577,253.407936 514.29316,245.463505 517.476934,250.854333 C520.001646,255.133559 512.715468,255.356476 509.920034,254.752409 Z M515.468993,209.000551 L515.630189,209.004509 C517.731542,209.161239 518.625556,214.854691 519.278312,216.514977 C521.803695,222.937743 526.869082,229.827563 525.871671,237.066366 C525.56357,239.303416 524.454407,242.79012 522.577602,244.157844 C520.083552,245.976949 515.776407,244.808793 517.72632,241.043111 C520.004177,236.645287 516.623423,231.661295 515.259424,227.509014 C513.992555,223.657653 512.912635,219.502237 513.005588,215.422051 C513.03692,214.068955 513.215514,208.824793 515.630189,209.004509 Z M388.533136,222.331815 C387.40339,223.108925 387.060283,224.639057 386.56445,225.812054 C385.359388,221.843764 383.690921,225.018187 383.53192,227.21965 C387.70361,226.965152 391.354361,228.469102 392.566746,232.769392 C393.063624,234.528887 393.533306,236.294666 394.01554,238.057303 C399.921598,231.593253 390.43592,228.297341 388.533136,222.331815 Z M485.905208,211 C488.580715,214.054321 487.120483,220.48163 491.900286,221.808169 C495.772063,222.883798 497.087644,218.555873 498.8414,216.004429 C501.324743,212.392178 504.341287,211.960232 503.968575,217.137228 C503.728898,220.467867 501.558084,224.196574 499.792714,226.976695 C491.935129,239.347491 479.147811,220.076152 485.905208,211 Z M343.769064,152.525934 C343.085987,153.843461 341.396599,154.069682 340.211412,154.704357 C339.546118,155.06254 339.12874,155.611335 338.95614,156.352837 C338.518886,156.077392 338.051297,155.966376 337.554418,156.019789 C334.48423,157.055587 332.114903,158.245341 329.318783,160.047777 C322.071675,164.716723 314.855949,169.618174 309.570205,176.578654 C300.307338,188.776774 299.695393,205.87425 311.157079,216.853291 C328.736127,233.691032 359.576086,229.133102 381.543359,227.54013 C383.280866,222.726654 383.495308,218.964685 377.436525,219.262124 C377.718961,219.248509 375.129961,216.399802 374.512786,216.140067 C373.907116,217.66601 373.35375,219.211852 372.805615,220.758742 C372.280492,218.393897 372.275262,216.085606 369.976021,214.737707 C367.148519,213.080849 366.256229,215.042477 363.892132,215.755701 C362.282245,212.614792 364.101344,214.33449 361.448535,213.376193 C360.976761,213.206527 358.789449,212.856723 357.56765,212.416849 C355.957763,211.836635 349.679307,209.06543 351.828961,213.152067 C348.576759,212.608509 347.107044,209.693821 345.749257,207.047247 C342.635135,209.924231 341.118347,206.676496 337.878697,206.132938 C338.017823,207.365632 339.602605,208.713531 338.595249,210.001732 C335.113959,206.944609 333.425617,202.429619 330.171323,199.1756 C326.836481,195.838843 327.066615,195.385354 327.728771,190.828471 C324.780972,190.521606 326.795685,196.982515 324.143921,192.662326 C323.063341,190.900736 322.468132,188.776774 321.256794,186.941871 C318.978474,183.493051 318.425108,176.523146 324.098941,179.11107 C324.84792,176.291688 324.95148,173.068042 325.536228,170.16278 C327.751784,170.762893 327.87522,173.268079 329.701641,174.311209 C331.214245,169.439083 330.152493,166.801934 328.65035,162.359209 C331.416135,163.205442 334.391131,164.932471 335.813773,167.559146 C335.649542,164.065291 334.283387,163.1049 332.37328,160.461468 C335.27296,159.879158 340.12982,162.700635 340.62356,158.03902 L340.62356,158.03902 L342.397679,160.106426 C342.66547,157.54678 343.03996,154.999701 343.769064,152.525934 Z M535.648427,209.473154 C538.737942,207.287145 539.838602,213.293533 539.968152,214.922767 C540.491535,221.498256 534.495947,232.614233 527.000684,225.940127 C523.955734,223.228161 522.007297,219.484827 522,215.39017 C521.995897,213.327432 522.291271,209.468018 525.228436,210.594922 C527.642217,211.520483 531.094474,223.303151 534.67939,215.706566 C535.419382,214.139995 534.095896,210.571295 535.648427,209.473154 Z M368,223.454667 C368.543496,222.541872 370.89177,223.258163 371.87357,223.422067 C372.677985,223.556994 369.436603,224.631883 368,223.454667 Z M567.238992,66.7672972 C569.211862,68.627335 574.6587,68.393783 574.034201,72.0604454 C575.236125,71.6509438 576.439095,71.240395 577.642064,70.8287987 C577.433898,74.8023256 581.317921,75.7658587 583.6339,78.2710448 C585.89339,80.7165338 587.350553,84.1548808 591.172858,81.7282435 C591.794218,88.1514486 599.63235,87.340824 601.028841,91.6274991 C601.51526,93.1199281 599.775661,91.6955748 600.768372,94.1002183 C600.980723,94.6144517 603.238121,96.1875243 603.69002,96.5299975 C606.25496,98.4759155 605.825029,98.6131142 608.12427,97.4484959 C608.739354,99.3420479 609.143133,101.982338 610.398406,103.573215 C610.301123,103.450679 612.252026,104.29796 612.268763,104.310527 C612.84828,104.768206 611.655771,106.175802 612.667312,106.580067 C613.221724,105.390313 613.658977,104.108395 614.754203,103.281013 C615.647538,104.855133 614.017776,105.108584 614.261508,106.610439 C614.596247,108.673657 615.959264,109.590061 616.996956,111.230162 C618.379849,113.415915 619.070249,117.900534 622.343372,115.701165 C622.343372,119.338502 621.947961,122.259474 623.738817,125.577379 C625.224223,128.33078 627.343542,130.766843 629.00887,133.417606 C634.139798,141.581455 633.547727,153.410919 632.813393,162.697493 C632.405429,167.848206 631.92738,172.495158 630.892826,177.556849 C630.085267,181.514666 628.947153,186.998426 632.66276,189.905783 C629.203438,190.695461 629.068496,193.51589 627.190817,195.927865 C625.415652,198.207878 621.476188,199.813417 621.99608,203.270616 C618.252229,201.699638 612.84828,208.189871 610.412005,210.250994 C607.957947,212.32678 605.632554,215.233089 602.786223,216.747512 C600.429449,218.000105 597.605085,218.041997 595.658366,220.090553 C599.474395,220.507385 603.55717,218.102742 606.901426,216.59984 C611.557441,214.507297 616.333754,212.722666 620.971987,210.5809 C630.652232,206.109897 640.80948,201.527878 648.501164,193.93377 C663.102078,179.516382 665.163863,158.616092 659.026626,139.777972 C653.114291,121.628988 642.568954,104.567121 627.627024,92.5418082 C611.223748,79.3393098 590.958416,71.3168492 570.505839,67.0249375 C569.423166,66.8667924 568.334217,66.7809123 567.238992,66.7672972 Z M352.634398,215 C353.697652,215.78946 352.13203,218.160882 351.844962,219 C351.229975,218.359514 350.614987,217.718014 350,217.076514 C350.877765,216.384343 351.756633,215.692171 352.634398,215 Z M529.623698,186.491524 C528.918653,185.185518 525.281501,184.422023 525.055552,186.535512 C524.887136,188.112774 528.922838,187.015184 529.623698,186.491524 Z M482.738216,87.7534675 C481.910782,82.6257956 479.170103,82.5545779 477.138653,86.8601047 C475.159507,91.0514738 476.582149,97.0808871 476.87923,101.584357 C477.095765,104.854086 477.133423,111.162086 480.797773,112.760294 C477.922153,113.082868 478.58954,115.432004 478.253754,117.488938 C477.709803,120.827789 476.372937,123.745619 475.165783,126.882338 C474.325796,129.069139 476.064349,130.019057 477.848929,130.509203 C479.656521,131.005632 480.258006,130.699815 481.518509,131.499966 C484.85335,133.614502 487.01242,135.938502 491.055444,137.291638 C495.426931,138.753695 500.27333,139.616685 504.833108,140.070174 C507.637596,140.348761 512.353238,141.488244 513.890947,138.718086 C513.553069,141.842237 513.848058,140.750931 515.923443,140.18119 C516.809456,139.937165 518.022886,139.336004 518.582529,138.581934 C519.699721,137.079032 518.767681,135.333152 519.971697,133.7716 C520.865033,134.326679 520.18614,136.316584 520.107685,137.028761 C524.78776,137.105215 523.041885,140.348761 526.34116,141.977341 C528.735593,143.158717 529.224103,141.262023 531.276474,141.385606 C533.297463,141.507095 533.023395,142.160622 534.303773,143.504332 C535.522434,142.1889 534.608177,137.167007 538.479647,139.30249 C540.302931,140.308963 539.178416,143.114729 542.163873,144.080357 C544.63676,144.881556 546.955876,143.597543 549.19863,143.764067 C551.002039,143.898124 554.141267,144.501379 555.865175,145.138149 C565.161515,148.574401 546.627413,160.544206 543.405547,163.707108 C549.81999,162.946755 555.523113,158.552206 560.616382,154.907537 C562.800556,153.344938 564.992053,151.872408 567.230623,150.404067 C568.159525,149.795575 569.9054,149.055121 570.543497,148.069594 C571.382988,146.77136 570.96067,145.834819 571.116217,144.601395 L571.139793,144.443204 L571.090034,144.465142 C571.069578,144.470588 571.047539,144.473625 571.02392,144.474254 L570.948323,144.468912 C570.885559,144.097114 571.036192,141.990956 571.375115,141.845379 C571.423234,142.104067 571.484952,142.359613 571.55713,142.612016 C571.853165,142.862326 573.369953,140.651436 573.405519,140.469203 C570.247462,140.616874 571.788309,138.674098 571.6314,136.939739 C571.642907,137.069606 570.94623,133.13902 571.510057,134.004105 L571.500793,133.991204 L571.345805,133.773675 C570.390149,132.546411 569.024947,132.609631 567.947027,131.713549 L567.75993,131.545001 C567.049655,130.850628 567.085221,129.768748 566.452354,129.114174 C564.341404,126.929468 564.074658,128.928799 561.609093,128.308786 C559.22826,127.710767 558.383043,120.306225 556.077525,124.954225 C554.365124,120.570149 555.167452,123.678591 552.673644,123.435613 C550.419383,123.216723 550.237369,121.615373 548.387933,120.711537 C547.24982,121.359827 546.173423,121.250906 545.15979,120.383726 C544.22252,119.958515 543.248638,119.647461 542.239189,119.450565 C540.484946,119.197114 539.140758,120.497884 538.373995,120.553392 C536.464935,120.690591 537.883393,120.564912 536.140656,119.014881 C534.200213,117.287852 532.73259,116.13266 529.67914,115.560824 C528.649816,116.060395 527.85481,115.815322 527.292029,114.823512 C526.455181,115.132471 525.679004,115.556635 524.966636,116.093909 C524.013675,115.729442 523.028286,115.500079 522.010469,115.406868 C520.700801,115.310515 520.29493,114.694691 520.795993,113.557303 C519.4267,113.0703 517.719529,113.422199 516.445427,112.646136 C515.312543,111.957001 514.822987,110.141997 513.467292,109.312521 C510.498572,107.496471 505.927287,107.658805 502.61546,106.619865 C500.962684,107.449341 499.872689,107.032509 499.343382,105.369367 C498.86847,104.458199 498.341256,103.577404 497.762784,102.729076 C496.777395,101.499524 496.255411,100.806199 494.698873,100.198755 C494.976079,100.951777 496.690572,105.234262 494.134,104.330426 C492.458211,103.737644 494.637155,101.464963 492.040833,101.185329 C493.91642,98.865518 493.346316,97.1866662 490.71652,95.3475748 C490.351445,95.092029 487.47164,93.4037514 486.882708,94.5086726 C486.498804,95.2281804 487.647378,96.5059091 487.847176,97.0850763 C484.849166,97.2212278 484.56673,94.0028177 483.830303,91.8610511 C482.045724,93.9682562 481.129375,94.5746536 481.589641,91.8086852 C481.822913,90.4105148 483.062495,89.7611773 482.738216,87.7534675 Z M359.847016,148.181657 C357.733973,148.355512 356.659669,149.975714 354.768392,150.397783 C353.402236,150.7036 351.91683,149.567259 350.700262,150.420824 C349.244146,151.443007 344.579761,150.904685 343.777433,152.511272 C344.729348,154.031979 347.845563,156.014553 349.733702,155.476231 C351.819547,154.882401 351.3938,154.182792 351.183542,151.968761 C353.600988,153.80471 354.419007,155.784143 356.787289,153.358553 C357.069725,153.069493 356.904447,151.862982 357.22245,151.360269 C358.155536,149.884597 359.25913,150.060546 359.847016,148.181657 Z M391.54579,147.091398 C390.344913,142.05589 379.554798,145.130818 376.320378,145.790628 C373.566101,146.351991 370.743829,146.191751 367.955032,146.354086 C369.977067,147.981619 370.446748,150.979045 373.561916,150.451196 C374.966776,150.212408 375.746091,148.732546 377.245096,148.530414 C378.584053,148.350275 379.975314,149.248874 381.177238,149.645808 C379.130097,145.190515 381.677255,149.260395 383.257852,149.357796 C385.491192,149.496042 386.873038,147.446439 387.988138,145.854515 C388.657617,146.619057 389.418103,148.876029 390.478809,149.19965 C391.28846,149.44577 391.77697,148.848799 392.096018,148.916874 C393.319909,149.174515 392.677628,145.870225 394.484175,149.632193 C394.598195,147.701985 394.430826,145.859751 392.937051,144.46996 C392.563607,144.123297 391.761279,146.96572 391.54579,147.091398 Z M365.772949,146.960483 C364.641112,146.970956 363.520781,147.096635 362.414049,147.337518 C365.353479,153.207739 367.824274,147.156332 365.772949,146.960483 Z M406.55676,147.78996 C409.550586,145.216698 403.647666,145.656572 402.257451,146.24307 C402.962496,147.357417 403.668587,148.471764 404.373632,149.586111 C405.107966,148.995423 405.836024,148.396357 406.55676,147.78996 Z M399.670543,144.620774 C398.949807,144.292963 396.119167,144.709796 395.891126,145.742452 C394.95804,149.970477 398.488495,149.514893 396.539684,146.377127 C397.845167,146.995045 399.150651,147.611915 400.456135,148.229833 C400.779367,146.474527 401.430017,145.419878 399.670543,144.620774 Z M413.831066,144.910881 C412.443989,144.910881 409.317314,145.740357 408.493018,146.919638 C406.440647,149.853177 412.669938,146.230502 412.548595,146.254591 L412.548595,146.254591 Z M537.162657,140.705897 C535.223261,143.381796 537.87607,143.091688 538.822755,143.797581 C538.30914,142.840332 537.794478,141.883083 537.162657,140.705897 Z M528,136 C529.576013,136.05151 530.524673,137.316375 529.690463,139 C529.484453,138.808267 529.277596,138.617488 529.070739,138.426709 C528.468819,137.754213 528.111906,136.94531 528,136 Z M559.276449,134.549984 C558.002347,133.968289 561.471038,131.62355 562.798454,134.144893 C563.660186,135.780224 561.543937,137.861554 560.496148,139 C560.530966,137.387618 561.310007,135.479898 559.276449,134.549984 Z M515.642824,116 C515.718956,116.497452 516.932594,122.588282 514.402317,120.603847 C513.124191,119.601422 515.266642,116.714483 515.642824,116 Z M512.418839,116 C512.612251,116.504314 512.806588,117.007515 513,117.510715 C512.685359,118.39243 512.295759,119.22182 511.8312,120 C510.136764,118.888951 511.393478,116.949624 512.418839,116 Z M489.070308,101 C489.380205,101.604913 489.690103,102.209826 490,102.814738 C489.398874,103.939624 488.686981,105.001377 487.864322,106 C485.856835,104.693756 487.807072,102.013545 489.070308,101 Z M606.420121,91 C607.639799,92.1998118 608.342664,92.4764743 607.831292,94 C606.744353,93.1878921 605.264636,92.0661857 606.420121,91 Z M487.256152,79.4042435 C487.662023,78.5360164 489.199732,73.3612151 486.986268,75.3647356 C486.103393,76.1638397 485.841878,77.1849754 484.795817,77.8269817 L484.795817,77.8269817 L484.798793,77.8282036 L484.787449,77.8332656 C480.969701,78.7857645 483.513918,82.2214538 485.052884,84.6328775 L485.135787,84.7633729 C485.859242,83.7612984 485.584063,78.979358 485.049758,77.9919677 L485.045793,77.9872036 Z" id="Combined-Shape" fill="#a34f2b"/></g></svg>