<svg viewBox="338.7125000000001 213.41803278688508 3193.5750000000007 1940.163934426229" xmlns="http://www.w3.org/2000/svg" overflow="visible" xmlns:xlink="http://www.w3.org/1999/xlink" width="3193.5750000000007px" height="1940.163934426229px"><g id="Master/Compositions/Stuff To Do" stroke="none" stroke-width="1" fill="none" fill-rule="evenodd"><ellipse id="Oval" fill="#f8e5d6" opacity=".5" style="mix-blend-mode:overlay" cx="1296.5" cy="1184" rx="924.5" ry="924"/><ellipse id="Oval" fill="#f8e5d6" opacity=".5" style="mix-blend-mode:overlay" cx="2574.5" cy="1184" rx="924.5" ry="924"/><g transform="translate(557.000000, 148.000000) scale(2.693359375 2.693359375)" id="Master/Doodles/Messy"><g id="Master/Doodles/Unboxing" stroke="none" stroke-width="1" fill="none" fill-rule="evenodd"><path d="M303.2527,421.0737 C307.9987,456.6657 312.7437,492.2577 317.4897,527.8497 L321.3217,556.5917 C321.8057,560.2187 321.3487,567.3727 323.1917,570.6197 C323.8427,571.7647 325.5537,572.3087 326.8117,572.9837 C331.1417,575.3087 335.4727,577.6337 339.8027,579.9587 C376.4327,599.6247 413.0627,619.2907 449.6907,638.9567 C484.8447,657.8297 519.9987,676.7037 555.1517,695.5767 C558.7897,697.5307 564.6737,702.6267 568.6007,701.2837 C572.3337,700.0077 576.1487,696.8597 579.5377,694.8747 C586.0437,691.0617 592.5487,687.2497 599.0547,683.4367 C638.4207,660.3667 677.7857,637.2957 717.1517,614.2257 C733.3937,604.7077 749.6347,595.1897 765.8767,585.6707 C770.3197,583.0667 774.7647,580.4627 779.2087,577.8577 C781.5327,576.4957 781.8347,576.5437 782.7497,574.2317 C786.1697,565.5887 787.7537,555.6877 790.1737,546.7197 C792.8407,536.8367 795.5077,526.9537 798.1747,517.0707 C799.3637,512.6607 798.8057,512.0917 796.8657,507.8347 C793.0277,499.4087 789.1897,490.9837 785.3517,482.5587 C776.8327,463.8587 768.3147,445.1587 759.7947,426.4587 C756.3497,418.8967 748.0517,413.5757 742.0777,408.0137 L649.3207,321.6547 C646.9647,319.4607 644.6087,317.2677 642.2527,315.0737 C641.8647,328.2577 639.2597,342.4307 643.0807,355.1667 C649.3517,376.0677 655.6217,396.9687 661.8917,417.8697 C664.9227,427.9727 667.9527,438.0747 670.9837,448.1767 C671.5467,450.0537 674.9747,457.4967 674.0587,459.1477 C673.5507,460.0627 669.2207,460.9887 668.2827,461.3447 C664.2537,462.8777 660.2247,464.4107 656.1947,465.9437 C644.9687,470.2147 633.7427,474.4857 622.5167,478.7557 C612.4197,482.5977 602.3227,486.4387 592.2257,490.2797 C588.8017,491.5827 584.7807,493.9947 581.1647,493.7937 C577.9297,493.6137 574.2517,492.0127 571.1217,491.2067 C565.6187,489.7897 560.1147,488.3717 554.6117,486.9537 C543.8017,484.1697 532.9907,481.3857 522.1807,478.6007 C510.0187,475.4677 499.7477,466.2667 489.3467,459.4567 C471.4687,447.7507 453.5907,436.0447 435.7137,424.3397 C431.6207,421.6597 431.6057,420.1307 429.9747,415.2377 C426.3097,404.2417 422.6437,393.2457 418.9787,382.2497 C417.0217,376.3787 414.6147,370.4827 413.1367,364.4717 C410.6987,354.5517 409.2527,344.2827 407.3217,334.2527 C406.7397,331.2267 406.1567,328.1997 405.5747,325.1737 C398.0877,328.2117 390.6007,331.2507 383.1127,334.2897 C382.0277,334.7297 376.7397,336.0427 376.2697,337.1217 C375.9717,337.8037 377.5447,340.8987 377.7697,341.5637 C383.9777,359.9507 390.1857,378.3367 396.3947,396.7227 C398.3477,402.5067 400.2997,408.2897 402.2527,414.0737 C397.5867,406.7407 392.9197,399.4067 388.2527,392.0737 C384.5867,404.4067 380.9197,416.7407 377.2527,429.0737 C368.5867,419.0737 359.9197,409.0737 351.2527,399.0737 C348.2527,409.0737 345.2527,419.0737 342.2527,429.0737 C332.9197,416.7407 323.5867,404.4067 314.2527,392.0737 C313.1437,398.5097 312.0337,404.9457 310.9237,411.3817 C310.5887,413.3247 310.6557,418.8977 309.3627,420.4357 C308.2977,421.7017 305.2317,421.0737 303.2527,421.0737" id="Accent" fill="#f26b4e"/><path d="M335.2623,62.3434 C359.2903,59.9564 384.1943,66.7074 404.8113,78.8674 C426.9533,91.9264 447.5353,107.3264 467.3293,123.7184 L469.532667,125.549791 C478.353028,132.911335 487.217762,140.715169 494.7473,149.3404 C503.3903,159.2404 510.6663,170.9674 518.2673,181.7044 C520.3873,176.3874 523.1723,171.3604 526.1693,166.4924 L526.376414,166.171414 C528.297299,163.306569 534.166602,157.049438 533.1033,154.0924 C532.3823,152.0864 529.7603,152.2424 528.2293,151.1304 C526.2933,149.7234 525.0183,147.4094 523.9653,145.3194 C521.5303,140.4824 520.4523,135.0534 521.4393,129.6924 C523.0573,120.8984 529.4663,114.1104 537.7373,111.0224 C547.2263,107.4784 555.9543,111.0124 562.4073,118.3844 C563.8063,110.6494 564.1423,102.2874 567.8063,95.1694 C571.4933,88.0064 577.5593,81.7594 584.0333,77.0734 C584.5573,78.1824 585.6923,79.5184 586.7203,78.8614 C587.6663,78.2564 586.1213,77.2714 586.2913,76.9014 C586.966883,75.44665 587.154265,75.5396917 588.298444,74.8320186 L588.6353,74.6174 C592.95599,71.7845724 597.219814,71.8369767 601.98392,70.4299368 L602.4963,70.2734 C614.9353,66.3424 629.4863,67.5634 641.9673,70.9714 C654.3393,74.3494 664.4413,80.9564 673.7423,89.6014 C675.3963,91.1394 677.7973,92.7044 678.8483,94.7534 C679.6863,96.3874 679.2363,98.0324 680.4543,99.2724 C681.0223,99.8514 682.2583,99.0194 682.9833,99.5134 C684.2483,100.3744 683.8913,101.7004 684.4823,102.9014 C685.5133,104.9984 686.5243,105.8154 685.4473,108.2474 C686.5943,108.6404 687.7823,108.3504 688.6253,107.4804 C689.1983,109.2704 691.2213,111.1644 691.3333,113.0284 C691.4053,114.2284 689.6343,116.6554 690.1383,117.4444 C693.7243,116.4254 693.2893,120.8004 693.7113,123.5744 C694.2503,127.1164 695.9343,130.7314 695.8973,134.3284 C695.8643,137.4994 695.4363,139.6154 696.1643,142.7864 L696.371931,143.701386 C696.97575,146.40648 697.3812,148.7832 696.8673,151.6524 C694.1593,150.6854 695.8583,153.2634 695.3143,154.7634 C694.2273,157.7574 693.5073,154.8654 691.1533,156.3464 C697.3713,156.6544 696.6463,160.5024 696.4603,165.8114 L695.907692,168.011816 C695.884402,168.113403 695.873933,168.166873 695.882351,168.148767 L695.86658,168.204423 C695.034653,171.0617 694.988784,188.022316 688.902509,182.460727 L688.7143,182.2834 L689.8803,188.8444 L689.492874,188.637007 C686.832088,187.249243 688.045241,188.744437 686.966476,190.104886 L686.8893,190.1974 C686.3623,190.7984 686.2533,191.4344 685.5313,191.9954 C684.7933,192.5664 683.6323,192.2284 682.9423,192.9024 C679.8933,195.8804 682.3803,200.0974 677.7553,202.3014 C672.2483,204.9274 667.8023,207.9644 662.8133,211.5294 C662.1533,212.0004 661.4683,212.5984 660.7583,212.9764 L660.2703,213.2834 L660.2703,213.2834 C659.6763,214.5564 659.0863,214.7514 658.5003,213.8694 C658.1323,213.214341 657.720895,213.179352 657.266919,213.766099 L657.1813,213.8834 L656.2733,214.6374 C655.2903,214.8544 654.4883,216.2944 653.4933,214.9064 L653.696828,214.648366 C655.104447,212.92006 657.443586,211.025638 655.6893,208.6904 C654.3043,213.1334 646.5253,211.3044 643.2403,211.4354 C637.7503,211.6544 634.4353,213.1984 629.6423,209.5624 C627.9723,208.2954 626.1253,205.7714 623.7793,206.2034 C621.6133,206.6014 619.3593,209.5154 617.6913,210.7294 C612.9283,214.1974 606.8773,216.5094 603.1573,221.2494 C630.5803,227.2254 657.9733,234.2424 683.9923,244.9104 C706.7733,254.2514 728.3083,267.1454 749.1023,280.2464 C769.9443,293.3784 790.4263,308.2854 808.5363,324.9884 C817.7693,333.5044 827.4873,341.7754 835.9933,351.0304 C843.392348,359.081829 849.816339,368.067498 856.299286,376.871329 L857.2723,378.1904 C871.1603,396.9764 884.1513,417.0834 890.7673,439.6984 C887.4673,440.3334 871.9633,439.8954 871.8583,444.8594 C868.4573,440.6024 861.2033,442.2534 856.4763,441.8024 L852.409647,441.414628 C847.647275,440.955499 842.838189,440.456511 838.1513,439.7464 C826.357895,437.959049 814.674304,433.708445 804.024381,428.343988 L803.1393,427.8944 C794.4163,423.4254 780.7853,415.7044 777.7683,405.5384 C776.2273,400.3454 780.1873,395.8654 783.4903,392.3554 C785.6223,390.0884 791.0623,386.1264 790.1563,382.4264 C792.7003,383.7244 793.1303,381.6204 795.0223,380.3494 C796.9243,379.0704 799.0013,378.4404 801.1593,376.9754 C805.8403,373.7954 810.5743,371.7264 815.4713,369.1154 C816.8743,368.3674 817.8723,367.0214 818.8113,366.1584 C819.3523,365.6614 818.8913,364.9574 820.2013,364.3614 C821.1103,363.9484 822.0493,364.5514 822.9483,364.3874 C826.5923,363.7244 828.0923,359.9194 825.4253,356.9374 C821.2523,352.2694 810.4483,360.2474 806.2243,362.3704 C796.7783,367.1214 787.8773,373.0144 779.9943,380.0724 L779.21127,380.78066 C772.83703,386.607685 767.01479,393.496282 765.3853,402.2154 C763.6843,411.3204 769.3603,419.4534 775.4693,425.6724 C778.3103,428.5644 781.7263,431.1594 785.4613,432.7774 C787.5363,433.6764 788.7913,433.8984 790.5173,435.3044 C792.2933,436.7504 793.5923,438.1304 795.6543,439.2964 C805.3283,444.7644 816.2063,448.5054 826.9633,451.1554 C837.4343,453.7354 849.2963,456.0964 860.1263,455.2564 C863.0483,455.0304 867.5673,456.2174 870.3263,455.2494 C874.9483,453.6264 871.5783,449.9324 870.2153,447.0804 C871.6733,447.4104 872.8863,448.4064 873.5093,449.7634 C874.5813,448.9254 875.7753,448.1594 876.6523,447.0994 L877.273152,447.880993 C877.658189,448.361511 878.019967,448.7764 878.5653,449.2184 C879.0183,449.5844 880.1793,448.7254 880.4683,448.9674 C882.5033,450.6704 881.4703,452.9014 885.0373,453.6904 C884.6723,450.5754 889.0103,452.8534 890.2073,453.5394 C890.4573,452.6034 890.4063,451.6844 890.0543,450.7804 L890.484386,451.244583 C891.969006,452.816759 891.952192,452.356778 893.3903,450.6724 C893.5313,453.7164 897.0783,452.3164 898.6673,454.0384 C900.3313,455.8394 899.9453,459.6684 900.3233,461.8584 C901.8483,470.6934 904.4893,478.7384 904.0893,487.8734 C903.1473,509.3874 905.0903,530.7664 898.9583,551.7544 C896.8583,558.9444 892.8243,567.4334 885.9583,571.2324 C877.6373,575.8364 872.7193,567.7224 869.2543,561.2764 L868.338731,563.168287 C862.509405,575.277925 856.0324,589.66615 845.2613,597.9264 C839.3703,602.4444 832.8503,600.8454 829.4243,594.2514 C828.0973,591.6964 827.3253,588.9384 827.2973,586.0764 C827.2763,583.8334 828.3723,580.4444 826.9313,578.4214 C821.123714,589.51809 815.001036,600.000444 807.21315,609.786556 L805.338733,612.114729 C798.822592,620.257057 792.81465,628.74545 784.0243,634.6554 L783.575124,634.954427 C779.360084,637.729972 774.52161,640.007228 770.1623,636.0824 C766.5103,632.7954 765.1233,627.2324 764.7893,622.5234 C763.9583,610.8384 768.5563,599.5084 771.2573,588.3474 C752.2843,597.4614 735.8913,610.8464 718.2243,622.1114 C686.87555,642.100587 653.356104,658.518872 621.453477,677.612107 L618.3713,679.4684 C610.1273,684.4654 601.6183,689.0454 593.7283,694.6034 C587.0673,699.2964 579.3513,707.4694 571.3893,709.7114 C567.8753,710.7004 564.9443,708.5934 561.8383,707.1844 C558.3093,705.5834 554.6333,704.1794 550.9643,702.9294 C546.875829,701.535518 542.819248,701.131974 538.600302,700.534907 L536.423435,700.218074 C534.016083,699.844353 531.588165,699.226346 530.7453,696.6014 L529.961604,697.1262 C528.94282,697.79004 527.9929,698.2638 526.6833,697.9894 C526.0103,697.4324 525.5953,696.7134 525.4373,695.8324 L523.8543,696.4514 L523.8543,696.4514 C520.9283,696.3274 520.6053,695.8654 517.7423,694.9454 C515.9253,694.3624 513.7943,694.6204 512.0863,694.3224 C511.0323,694.1384 510.8443,693.6774 509.6603,693.5874 C507.3463,693.4134 505.9733,695.3424 504.2203,692.7144 C502.9223,694.1084 499.5003,692.9774 497.5713,692.4604 C495.994425,692.03665 495.390499,691.451181 494.192323,690.57051 L493.604509,690.143981 C492.286336,689.174482 492.874586,689.444829 491.5133,689.4634 C491.2773,689.4664 489.3143,690.3674 488.6153,690.4364 L488.072748,690.482978 C486.910891,690.56468 485.838767,690.501067 484.8733,689.8944 C483.6353,689.1174 483.8913,687.6304 481.9543,687.3264 C480.8313,687.1514 479.9223,688.1794 478.9343,688.0934 C477.4003,687.9614 477.8963,687.6954 476.5843,687.0154 C476.6343,685.6914 476.2513,685.2344 475.4353,685.6434 C474.7913,685.7804 474.1433,685.8954 473.4913,685.9884 C472.6773,685.8394 471.7463,686.4504 470.9093,686.1924 C469.3273,685.7034 468.9503,684.0304 467.4763,683.5604 C466.5384,683.261421 465.473978,683.410692 464.410798,683.680822 L464.108879,683.759801 L463.4373,684.9054 L463.4373,684.9054 C463.4065,684.728233 463.379462,684.559711 463.355959,684.399481 L463.300879,683.993801 L462.393903,684.265213 C460.060817,684.936232 458.174226,685.12672 458.315155,680.785294 L458.3263,680.5144 C457.8073,680.9214 457.2593,681.0644 456.6803,680.9434 C456.2853,679.0994 458.2173,678.5264 456.0253,677.0134 L455.677812,677.389118 C452.860856,680.373373 453.444696,678.107513 450.9303,677.3454 C450.0063,677.0654 445.1103,677.9564 444.2903,678.8534 C445.0043,677.2994 443.4353,672.3014 441.3723,672.1834 C438.7903,672.0344 439.8723,676.1234 439.4073,677.7564 C438.2843,676.5734 436.6303,675.4184 435.8253,673.9664 C435.6093,673.5764 436.3383,672.5024 436.1263,672.2034 C434.4413,669.8294 433.2383,670.7034 431.4093,672.3474 C431.9713,672.8104 432.6003,673.1544 433.2933,673.3784 C433.0783,673.8194 429.9093,672.5304 429.5033,672.3894 C428.8613,672.2504 428.2593,672.3904 427.6983,672.8084 L427.1533,671.4764 L427.1533,671.4764 C426.8543,671.2084 426.8133,669.7084 426.6543,669.2954 L426.47622,669.37549 C425.529264,669.832218 423.0405,671.365 422.4133,670.3794 L423.192576,669.617228 C424.370854,668.44002 424.399353,668.099189 422.5543,666.8074 L420.2603,666.5054 L420.2603,666.5054 C419.7233,666.4184 419.3433,665.3184 418.8113,665.0244 L418.780832,665.756368 C418.741688,666.957262 418.781653,668.395047 419.4693,669.3174 C418.4233,668.6724 417.4053,667.5694 416.2283,667.1614 C415.5523,666.9274 414.2403,667.3764 413.6813,666.9914 C411.5173,665.5044 413.2123,662.6214 410.7693,661.1134 L410.58255,661.956398 C410.392681,662.848674 410.1407,664.13428 410.2463,664.1874 L410.042605,664.078763 C409.250824,663.637547 407.702778,662.610096 407.6553,662.7014 C407.9113,662.2064 407.8223,661.0714 407.7253,660.5364 C405.9893,660.8974 404.4743,661.8914 402.9483,662.7294 C403.6313,661.3744 405.9943,657.9734 404.8843,656.4304 C403.1403,654.0014 402.1403,657.2684 401.8213,658.8304 L401.305444,657.328313 C400.470904,654.983198 400.309021,655.537807 397.129947,656.057581 L396.9183,656.0914 C394.8943,656.4074 391.6633,656.6234 389.9263,655.2104 C388.9823,654.4424 388.3893,652.8524 387.4893,651.9354 C386.1793,650.6004 385.1253,650.6684 384.4963,648.5664 C383.9453,649.9424 380.7793,651.4454 379.3753,650.8644 C377.3093,650.0084 377.9363,647.3954 377.8483,645.5544 L377.459035,646.084066 C376.520001,647.328662 374.915143,649.149224 374.7193,646.4264 C373.6953,648.1334 358.9553,645.9854 358.3243,644.0514 C358.732336,644.010329 359.083539,643.951846 359.384984,643.877105 L359.471879,643.853801 L359.415166,643.60193 C359.152205,642.325434 358.746952,639.046637 357.407673,638.990992 L357.2703,638.9964 C357.3063,639.7914 358.1863,643.4184 356.9043,643.7044 L356.528001,642.772052 C355.916633,641.296705 355.096407,639.715543 353.3673,639.4724 C352.1983,639.3074 350.6133,640.9664 349.5593,640.5494 C347.7743,639.8424 348.7913,636.4774 346.1623,639.2954 C344.1823,635.8204 339.4103,636.9844 336.0823,636.1084 L334.997793,635.822998 C333.609581,635.449543 332.049657,634.970257 330.9583,634.2144 C330.1823,633.6774 329.0663,631.8084 328.4363,631.4994 C326.5153,630.5564 324.4083,630.9934 322.5483,629.7374 C322.4163,629.0924 322.1323,628.5234 321.7003,628.0304 C320.9343,627.9734 320.1663,627.9564 319.3993,627.9784 C317.9943,626.9004 317.8173,625.1114 316.7903,623.7564 L316.713574,624.014878 C316.133967,626.082297 316.010565,629.07589 313.0323,627.5834 C312.2083,627.1704 312.5123,625.6964 311.8423,625.2114 C310.5863,624.3044 310.3623,624.7264 308.8163,624.5294 L307.752898,624.397765 C301.865766,623.689909 295.382357,623.185857 290.1693,619.7944 C288.3113,618.5854 287.2893,616.3504 285.4493,615.8484 C285.0473,615.7384 284.2513,617.1514 283.7143,617.0864 C282.8013,616.9754 282.4683,615.7924 281.5643,615.3494 C281.0343,615.0894 279.5023,615.3064 278.6593,615.1254 C277.3253,614.8384 275.6293,614.2764 274.4743,613.4914 C272.4733,612.1314 272.1053,610.3564 271.1413,608.2444 C270.3203,609.1764 270.3613,610.5434 270.1333,611.6774 C267.7513,610.8884 262.8233,604.9624 261.0633,609.3864 C259.8933,608.3414 258.6833,606.3034 257.0583,605.9184 C256.0073,605.6704 256.1633,606.7344 255.6903,606.7574 C254.4663,606.8164 253.3063,606.8324 252.0273,606.6164 C250.0583,606.2844 249.1643,605.2484 247.5913,604.7164 C245.8223,604.1174 245.2613,604.1494 243.3823,603.4614 C242.1293,603.0024 241.1703,601.7344 239.8823,601.3154 C237.6173,600.5794 235.9423,601.7204 234.5603,599.4024 C232.323144,602.145067 229.783877,599.04914 227.066827,599.106497 L226.8813,599.1154 L227.6713,594.7514 C223.859776,596.740321 223.631724,599.804283 220.535388,595.184949 L220.3833,594.9554 L220.3833,597.7224 C215.8553,595.6264 211.4053,595.5934 207.8703,591.8124 L207.3093,594.1804 L207.3093,594.1804 C205.9533,592.6284 205.3463,590.6184 204.1703,588.9494 C202.4423,590.3744 204.1813,591.4744 204.8793,592.8004 C202.6773,590.6634 200.4143,591.8004 197.8233,591.3654 C195.2913,590.9404 195.2293,589.7044 193.9003,588.0774 C191.3883,585.0024 186.7693,587.3044 185.1533,583.2184 L184.512583,583.626736 C183.004534,584.602087 181.39705,585.6674 179.5193,585.3944 L180.3293,582.6874 L180.3293,582.6874 C179.2263,582.7684 179.2233,584.3374 178.3053,584.5744 C177.2443,584.8484 174.4853,583.3574 173.6433,582.9314 C174.3213,582.4024 176.1523,580.3224 175.8753,579.4384 C175.2593,577.4654 173.8733,580.6404 173.7123,580.7574 L173.334149,581.029146 C172.162584,581.853588 171.820922,581.892278 170.525369,581.985905 L169.6193,582.0554 C168.1853,582.1774 166.6223,581.6034 166.2993,583.5824 C164.3883,580.3594 163.0003,579.6344 159.3433,580.7064 C159.5593,578.2464 155.7423,581.2024 154.1053,581.0034 C151.3163,580.6644 151.1293,578.3744 150.6183,576.1034 C148.2603,577.1144 147.1143,576.0184 145.6043,576.2154 C144.4583,576.3654 144.6283,577.7154 143.1303,577.1844 C141.0283,576.4374 142.1813,573.6104 139.3373,573.4224 C140.2893,574.0354 140.9063,575.0584 141.0473,576.1754 L140.821229,576.134502 C139.465217,575.922326 136.916633,575.996622 137.3303,573.9944 C135.772393,576.411028 133.006049,576.129211 130.46678,575.593417 L128.244048,575.095694 C127.134518,574.841649 126.314767,574.596267 125.3493,573.8544 C124.4913,573.1954 123.8503,570.9144 122.6583,570.7334 L122.482486,570.857271 C122.125746,571.100071 121.317182,571.612694 120.9203,571.5844 C120.1023,571.5264 118.8403,570.9804 118.0563,570.7144 C117.1443,570.4054 116.3373,570.2194 115.5413,569.7814 C115.0793,569.5264 115.2753,568.5514 114.7593,568.3944 C113.3183,567.9554 112.2533,569.8194 110.7823,569.3924 C109.1453,568.9174 108.9203,566.3454 108.3643,565.0524 C104.2133,567.2984 101.5153,563.0074 100.3203,559.5254 C98.8063,555.1194 101.6093,553.1894 103.0953,549.3164 L102.256873,549.855019 C100.55601,550.924193 98.1730273,552.199158 96.4243,551.1394 C93.8443,549.5754 95.2513,547.1344 96.8613,545.7584 C100.4533,542.6854 107.6153,541.6674 112.0183,540.5384 C119.9563,538.5044 128.1463,535.9124 136.0853,534.3254 C137.4103,534.0614 137.2063,534.4594 138.6983,533.8834 C139.5883,533.5394 140.4243,532.6434 141.3533,532.2434 C144.8233,530.7454 148.9963,530.0824 152.6283,529.1494 C168.6623,525.0294 185.7593,521.4314 202.2543,519.9764 C206.7263,519.5824 211.3483,519.6284 215.7773,519.1334 C219.2383,518.7474 222.5353,517.4164 225.9903,516.8934 C230.9533,516.1414 235.9943,515.6994 240.9923,515.2354 C244.7303,514.8874 248.494749,515.42691 252.207559,515.284624 L253.004879,515.240801 L252.958836,515.235189 C251.164801,514.940993 255.504121,511.437232 256.357925,515.40965 L256.3943,515.5954 C257.6423,511.4224 263.7633,512.2574 267.0323,512.3514 C269.2563,512.4154 271.1463,511.9604 273.0773,511.6464 C274.671454,511.386092 276.77259,511.361808 278.811263,511.081182 L280.361361,510.845732 C285.140386,510.141237 302.591362,507.880681 301.7703,512.2044 L302.477321,511.926547 C306.348284,510.442399 307.918971,510.374867 307.346449,505.636557 L307.3103,505.3524 C306.4983,499.2624 305.9013,493.1834 305.3903,487.0504 C304.1863,472.5794 302.8583,458.1314 300.8563,443.7444 L300.706669,442.685782 C299.893632,437.04213 298.794947,431.454753 295.2213,426.8524 C291.3073,421.8104 286.5953,417.6564 282.9583,412.3464 C275.0833,400.8514 269.2623,388.1074 264.4513,375.0714 C255.1983,350.0034 246.9523,324.0964 240.4803,298.1694 L239.799501,295.440978 C238.32594,289.516822 236.888833,283.514 236.0083,277.4924 C235.1083,271.3334 235.3333,265.3524 233.7843,259.2714 C230.5323,246.5004 229.5293,233.5054 230.0523,220.3384 C231.7923,176.5074 249.6043,129.5764 278.6863,96.6494 L279.59724,95.6247143 C294.532461,78.935486 312.25484,64.62974 335.2623,62.3434 Z M639.7953,384.6254 C634.07409,373.09883 608.250049,389.197359 601.625138,393.101855 L601.4303,393.2164 C586.7763,401.8064 573.0763,412.1204 560.5473,423.5814 C549.7783,433.4334 540.0813,444.4634 531.3433,456.1444 C528.8853,459.4314 526.5183,462.7864 524.2893,466.2324 C522.5273,468.9544 521.1633,472.6634 519.0873,475.0914 C515.7163,479.0374 509.7943,475.1974 505.3503,473.8354 C491.6153,469.6254 477.6853,463.3634 465.1283,456.3804 C458.7873,452.8524 452.9023,448.4664 446.2403,445.5234 C441.6933,443.5154 437.1433,442.9024 432.9723,440.1714 C426.3033,435.8054 419.2453,432.4174 412.7043,427.7294 C407.4323,423.9514 401.7953,420.6624 396.6563,416.7044 C393.6833,414.4154 390.2413,409.4244 386.7043,408.2204 C382.928402,406.935553 384.428987,411.297316 384.765942,414.169219 L384.836906,414.868784 C385.431287,421.220001 386.09856,440.06875 375.5663,436.2324 C370.4093,434.3544 365.8393,429.1504 362.4813,424.9564 C358.8033,420.3624 357.4593,413.9194 353.0283,409.9644 L352.934773,411.977789 C352.633999,419.457455 352.20578,433.29355 343.3533,433.5074 C337.0943,433.6584 331.2883,427.2554 327.8893,422.7404 C323.2783,416.6134 320.1443,409.5674 316.5203,402.8534 C315.7523,409.9524 315.2993,417.1514 314.1533,424.2024 C313.1713,430.2394 311.3013,435.0474 312.2313,441.2534 C314.2933,455.0184 315.9583,468.8024 317.4503,482.6404 L319.15006,498.504747 C321.152078,517.053192 323.315533,535.698507 326.638583,553.986334 L327.1213,556.5964 C327.8333,560.3874 328.8863,564.0324 332.5643,565.8284 C334.3723,566.7114 336.4503,566.8514 338.2813,567.6824 C340.5113,568.6954 342.1573,570.4064 344.1083,571.8384 C348.4603,575.0314 353.5943,576.6194 358.4543,578.8324 C363.0773,580.9384 367.0643,584.0834 371.5653,586.4004 C381.7383,591.6354 391.7793,596.2474 401.4773,602.4044 C410.5903,608.1904 419.6713,614.1254 428.9103,619.7064 L438.21047,625.331019 C454.475073,635.161464 470.73166,644.8638 487.7383,653.4654 C508.1073,663.7694 529.1063,673.1924 550.0453,682.2704 C555.2343,684.5194 560.5243,686.6094 565.6003,689.1034 L566.101906,689.353323 C569.904687,691.27173 572.753133,693.178733 576.8203,690.5874 C580.8953,687.9904 583.9913,683.8944 587.8623,680.9774 C592.2233,677.6914 596.7333,674.5904 601.2753,671.5604 C620.1733,658.9524 639.5463,646.4794 659.7163,635.9984 L668.329029,631.523844 C686.223207,622.215182 703.800645,612.89809 720.8653,601.8524 C730.5893,595.5564 740.3583,589.3164 750.3113,583.3864 C753.571967,581.443733 756.8273,579.493956 760.077004,577.535585 L765.297402,574.381512 C768.345252,572.577325 771.728819,571.219511 773.9783,575.0184 L774.8493,576.4014 L774.8493,576.4014 C780.6603,562.4564 785.4023,547.7564 789.8363,533.3194 C791.7483,527.0964 790.2153,522.2514 787.5333,516.5524 C784.6183,510.3604 782.1003,504.0064 779.3083,497.7594 C773.4443,484.6344 765.3173,472.6634 759.2083,459.8144 C758.0393,457.3534 756.8653,457.6144 755.6923,455.4654 C755.1733,454.5154 755.3563,453.1644 754.7483,452.2104 C754.2813,451.4794 753.3843,451.9834 752.9813,451.3524 C751.5363,449.0914 752.7793,442.2084 748.0143,444.4074 L748.7273,441.0374 L748.7273,441.0374 C747.6413,440.8994 745.7433,441.1574 745.0383,440.0754 C744.6343,439.4564 746.0443,438.9844 746.0263,438.5234 C745.9193,435.8754 745.1013,434.0464 742.6733,433.5964 C742.2993,434.0004 741.8473,434.2624 741.3173,434.3834 C740.7273,434.2004 740.1863,433.9284 739.6943,433.5654 C738.1943,433.2204 736.8463,432.3124 735.1963,432.0294 C734.5203,432.0874 733.8613,432.0174 733.2183,431.8204 C732.4103,431.3814 732.0663,431.7154 732.1863,432.8224 C730.8643,432.9014 731.2553,433.8014 729.3973,432.5114 L729.185176,432.997919 C727.891985,435.855883 726.918941,436.182631 728.7253,439.5354 C702.0703,451.7744 676.1033,465.4174 649.6103,477.9884 C637.0143,483.9644 623.7973,488.4794 610.8213,493.5364 C604.6933,495.9244 598.6513,498.8674 592.3803,500.8234 L590.943072,501.263975 C589.325599,501.770215 588.059474,502.282313 586.7713,503.7364 C585.5493,505.1154 586.3023,507.2154 584.1473,504.7344 L583.7973,508.8594 L583.7973,508.8594 C586.7803,508.5304 586.7243,512.3204 585.8813,514.2454 C585.7573,514.5284 584.7863,514.2024 584.4633,514.9984 C584.192883,515.668483 584.210682,517.008268 584.261742,517.791509 L584.2763,517.9904 C584.5563,521.4544 585.3043,519.0304 586.8093,521.5294 C588.0983,523.6674 586.8333,528.3164 587.1773,530.7174 C587.5863,533.5754 587.5133,535.3834 586.9463,538.2474 C588.0333,539.6984 587.8723,540.5074 586.4643,540.6744 C585.7253,540.8504 585.2313,541.2944 584.9823,542.0054 C584.4023,543.0544 584.4863,543.3484 584.8133,544.4174 C585.4343,544.4404 585.9573,544.6754 586.3793,545.1224 C586.6353,545.9004 586.7383,546.6944 586.6873,547.5034 C586.9553,549.4554 586.1703,551.5764 586.0003,553.5134 C585.6213,557.7874 585.8253,562.0514 585.2143,566.3234 C584.7683,565.4434 584.1763,564.6724 583.4423,564.0124 C582.9113,565.9714 582.5593,567.9764 582.1573,569.9644 C589.0223,568.3354 581.8743,582.2434 581.5263,584.6614 C581.1643,587.1814 582.3723,589.1024 582.2653,591.5334 C582.1573,593.9934 581.0333,596.2084 581.0553,598.7794 C581.1023,604.1274 579.9863,609.5394 580.1493,614.8404 L580.164609,615.103968 C580.381712,617.792831 582.5493,625.607824 578.7873,626.1044 C574.1233,626.7204 574.3213,614.4884 574.0243,611.7754 C572.9413,601.8924 570.9343,592.1364 570.4703,582.1834 C569.9693,571.4484 569.6213,560.5994 569.4053,549.8514 C569.1773,538.5044 569.4003,526.8724 570.4913,515.5734 C570.8943,511.3894 573.0053,505.8814 572.3863,501.7394 C571.9423,498.7624 569.5713,497.6974 567.0653,496.4054 C557.3763,491.4094 546.5023,488.1514 536.1373,484.8894 C532.4723,483.7354 522.3883,482.4844 520.7183,478.4264 C523.1413,478.1934 523.1833,476.4214 524.8393,475.2874 C525.7353,474.6734 526.6253,475.5074 527.1973,474.6774 C527.5093,474.2234 527.2483,472.2654 527.4653,471.5084 C527.7913,470.3754 528.7163,468.7964 529.5183,467.9424 C530.6113,466.7774 531.9343,467.1274 532.3643,466.7924 C533.9453,465.5594 534.7603,462.7414 535.5623,460.9884 C537.026723,457.789362 540.298654,454.52468 541.082461,451.08323 L541.162879,450.672801 L541.522197,450.984046 C542.078594,451.449904 543.097378,452.252702 543.418441,452.245161 L543.4693,452.2344 C543.5333,452.2044 543.8293,449.9874 543.9843,449.7094 C544.9163,448.0484 546.5633,446.1074 547.8853,444.7274 C550.1783,442.3324 554.0033,440.9434 553.8413,437.0534 C554.5643,437.6644 555.3903,438.0494 556.3193,438.2094 C556.2463,437.5444 556.0333,436.9284 555.6783,436.3604 C559.5783,436.2404 558.8893,433.5164 560.9803,431.7184 C561.8143,431.0024 564.2073,430.8714 565.7483,429.7534 C569.0003,427.3924 570.7573,423.5094 574.1073,421.2514 C576.28605,419.78315 578.549019,418.5354 580.727386,417.060642 L581.6553,416.4134 C582.9383,415.4894 584.4113,414.6484 585.5623,413.5664 C586.5003,412.6824 587.0563,411.1294 587.9283,410.4244 C588.9103,409.6304 589.0663,410.6744 590.0773,410.2254 C591.4303,409.6244 593.2493,408.6654 594.3983,407.7344 C596.3093,406.1854 597.9413,401.4164 599.0853,405.0834 L599.9943,401.7214 L602.0183,401.7054 C602.7243,401.1224 603.1733,400.2484 603.9133,399.7094 C605.9403,398.2334 608.6883,397.9354 610.9123,396.7184 L611.845441,396.201377 C613.930318,395.032356 616.368367,393.57 618.0523,392.2804 C619.1763,391.4194 620.4783,389.4834 621.9633,389.2054 C620.7673,392.4224 625.8783,388.7724 626.8693,388.2414 C630.9303,386.0664 635.0463,384.3294 639.7953,384.6254 Z M464.6853,682.7804 C464.945753,682.129268 462.986422,680.074639 463.253827,683.513037 L463.300879,683.993801 L463.845372,683.834292 L463.845372,683.834292 L464.108879,683.759801 L464.6853,682.7804 Z M444.4133,669.3214 L444.395963,669.54757 C444.295441,670.565163 443.893041,672.458956 445.1273,672.8284 L446.7853,672.5974 L446.7853,672.5974 C446.0833,671.4434 445.2563,670.3724 444.4133,669.3214 Z M395.5183,650.1574 L391.5243,652.3964 L391.5243,652.3964 L392.143247,652.628411 C393.91993,653.272883 394.058919,653.001971 395.5183,650.1574 Z M360.5833,637.7364 C358.0145,638.88495 361.61158,642.3439 359.821412,643.725205 L359.762879,643.764801 L359.87537,643.725257 C362.171587,642.843168 360.445979,640.585384 360.572643,637.907866 L360.5833,637.7364 Z M891.0243,457.9254 C882.1523,474.0574 868.9853,487.6094 854.3793,498.6264 C850.9943,501.1794 847.5783,502.9424 843.9193,505.0374 C840.7083,506.8764 838.0683,509.5244 835.0013,511.5744 C827.5323,516.5674 819.2633,520.9014 811.2233,524.9184 C808.1613,526.4474 803.8233,527.4374 801.0773,529.5174 C798.0223,531.8324 797.4463,535.5434 796.7173,539.1274 C795.075567,547.215667 793.076678,555.060022 790.669412,562.940964 L790.1473,564.6304 C787.1013,574.3724 784.2723,584.1794 781.1693,593.9034 L779.889589,597.908492 C777.423227,605.682252 775.1243,613.636606 775.1243,621.8274 C779.913255,621.348218 783.747317,616.137398 786.854358,612.733651 L787.2933,612.2604 C792.3843,606.8734 796.5863,601.1174 800.4773,594.8194 C808.2123,582.2984 815.2393,569.5364 822.1103,556.5294 C824.3763,552.2394 827.4883,542.6054 832.2903,540.4464 C837.2173,538.2304 840.0793,545.1364 841.0233,548.9184 C843.7953,560.0154 839.6723,571.7374 838.1593,582.7154 C849.7183,574.2904 855.1063,559.0974 860.3063,546.3664 C861.7953,542.7194 863.3793,539.1024 864.7933,535.4274 C865.7493,532.9434 866.3933,529.0084 868.8363,527.4144 C873.6313,524.2874 876.4363,531.8494 877.2703,535.3114 C878.8293,541.7814 877.2553,548.1154 877.8043,554.5114 C878.3643,561.0264 883.3773,553.6204 884.8573,551.2434 C894.0263,536.5124 893.6623,514.7634 894.1873,498.0094 C894.4023,491.1634 894.7983,484.2704 894.5833,477.4204 C894.3723,470.7394 892.4643,464.4064 891.0243,457.9254 Z M256.1683,599.3664 C253.0833,597.3094 253.8723,600.1904 254.8863,600.1634 L256.1683,599.3664 L256.1683,599.3664 Z M230.5163,596.4354 C231.3403,594.1364 230.7913,593.3674 228.8683,594.1274 C228.5873,596.0184 229.1373,596.7884 230.5163,596.4354 Z M580.2073,594.7364 L580.6133,592.2114 L580.6133,592.2114 L577.0113,593.1184 L580.2073,594.7364 Z M213.7323,589.7534 C212.5993,590.5104 211.3493,590.8904 211.7023,592.5764 L212.192328,592.423948 C213.619302,591.967765 213.628987,591.777962 213.7323,589.7534 Z M184.2401,584.2191 C184.7321,586.8851 186.9171,587.5111 189.2391,587.9801 C190.5701,588.2491 191.0521,588.7481 191.7121,589.9111 L183.2301,587.9901 L183.2301,587.9901 L184.2401,584.2191 L184.2401,584.2191 Z M159.8313,575.9334 L159.685945,575.739614 C159.336805,575.296063 158.502769,574.318231 158.2313,574.6254 C157.5323,575.4144 159.1603,578.8244 159.4793,579.5494 C159.9163,576.4184 162.4573,578.2834 164.3643,578.7024 L165.9853,577.8364 L165.9853,577.8364 C164.3773,576.6314 161.5003,572.5574 159.8313,575.9334 Z M146.0398,578.0414 C145.299171,576.380192 146.302164,577.085999 147.200313,577.863443 L148.247879,578.803801 L148.12152,578.863162 C147.226592,579.245502 146.558179,579.021907 146.115565,578.19381 L146.0398,578.0414 Z M583.9193,571.0374 C582.7663,571.3044 583.5053,573.2034 581.9173,572.6094 C581.9983,572.6384 582.5803,575.9524 582.6883,576.3384 C583.8233,574.7074 584.3323,573.0144 583.9193,571.0374 Z M578.7403,568.9654 C577.2243,569.8974 577.3443,571.5124 578.2733,572.6574 C579.3723,571.5324 578.8993,570.5124 578.7403,568.9654 Z M580.8683,511.9894 C576.2543,509.4104 577.5923,512.8624 578.8723,512.7044 L580.8683,511.9894 L580.8683,511.9894 Z M808.9266,247.8736 C814.5816,243.5896 819.2906,251.6746 823.0486,253.8836 C822.7856,253.7286 824.5896,253.9576 825.1486,254.2426 C825.030671,254.183171 827.200279,255.905141 827.223389,255.876815 L827.215879,255.864801 L827.750978,256.397096 C829.770412,258.487601 831.34583,260.985332 833.295098,263.163903 L833.8366,263.7496 C835.7316,265.7286 837.7466,267.6356 839.5216,269.7226 C841.5856,272.1526 842.5006,275.0396 844.3746,277.5516 C846.537457,280.4516 848.75655,282.115319 850.33649,285.310492 L850.5686,285.8016 C851.7906,288.5096 853.5316,289.0686 855.2946,291.1316 C856.9136,293.0256 857.0726,296.3576 858.3936,297.6916 L860.103482,299.405057 C862.187727,301.499802 864.077021,303.502074 865.8186,306.3576 C867.5796,309.2446 869.7156,311.6986 871.6146,314.4816 C873.1596,316.7436 873.5636,319.2866 874.9306,321.5416 C875.9606,323.2426 877.3056,324.6686 878.3026,326.4176 C879.1606,327.9226 879.8836,329.4606 880.8566,330.9016 C880.4006,332.2446 880.8086,332.8236 882.0806,332.6396 L882.9956,333.3596 L882.9956,333.3596 C884.5206,336.0916 885.3456,338.5796 887.2536,341.1666 C889.3616,344.0236 890.9966,347.0896 892.4586,350.3206 C893.9626,353.6446 894.8256,357.2166 896.2896,360.5236 C897.4286,363.0956 900.5576,364.9246 898.8496,367.9346 C903.6046,367.9846 899.4586,369.5866 899.6506,370.6446 C899.9716,372.4176 901.9946,373.1486 902.7016,374.6496 C902.8796,375.0276 903.3786,377.0696 903.6226,377.8396 C903.8706,378.6226 903.5596,384.5216 903.7666,384.6576 C904.8586,385.3786 905.9046,383.8696 906.8586,383.6376 C907.5586,385.1616 910.2076,387.9616 910.0586,389.6656 C909.9056,391.4066 907.4156,391.8226 907.8536,393.6846 C908.1916,395.1206 915.0856,396.5196 912.7506,399.8956 C912.1566,400.7546 910.2366,399.8396 909.8136,401.0656 C908.9826,403.4716 913.7196,403.9076 914.6386,405.0216 C916.2866,407.0186 914.9536,410.0066 915.7616,412.2676 C916.3236,413.8386 918.0106,415.1626 919.1386,416.4456 L918.736105,416.451202 C915.846359,416.537093 917.389475,417.610267 918.0996,419.6496 C918.7016,421.3806 918.8736,423.2646 919.1296,425.0706 L919.169845,425.321522 C919.580095,427.631781 921.214421,431.265279 918.1586,429.7716 L920.3326,432.4006 L920.3326,432.4006 C921.4406,433.0656 921.5516,433.8666 920.6666,434.8056 L920.949832,436.285452 C921.330647,438.185721 921.71435,439.1496 923.7326,440.3716 C922.973071,441.259129 923.978081,446.618244 924.22817,448.35532 L924.2656,448.6366 C924.6146,451.6356 925.5836,454.4936 926.1976,457.4396 C927.5346,463.8606 926.1746,470.6586 928.3766,476.9186 C929.2576,479.4206 927.7166,482.0376 926.4086,484.0576 C924.4906,479.1506 924.3866,473.7516 923.9626,468.5686 C923.5016,462.9326 922.3506,457.4776 920.9036,452.0196 C918.6706,443.5976 916.4816,435.8656 913.2506,427.7986 C911.1746,422.6156 908.9176,417.5126 906.7806,412.3556 C905.2656,408.6966 905.1056,404.4576 902.9036,401.3386 C900.3936,397.7836 898.1906,393.5586 896.8316,389.2666 C896.4396,388.0286 896.5706,386.1386 895.9616,385.0456 C895.6126,384.4166 894.2056,383.7536 894.0346,383.3346 C888.9696,370.8726 880.5936,359.9606 873.8706,348.4006 C868.353667,338.912333 861.975204,329.988547 856.140141,320.685304 L854.8986,318.6856 C848.4336,308.1606 841.3086,298.1896 834.8496,287.6766 C832.2546,283.4526 827.3826,278.7216 826.1056,273.8776 C825.6416,272.1156 825.9516,271.5616 825.3146,270.4326 C824.3466,268.7216 822.8806,269.5616 823.1626,267.0306 C820.3936,269.1526 817.0646,261.7466 815.9836,260.2146 C814.9826,262.2186 810.3476,257.4666 809.4556,256.5026 C807.3786,254.2586 805.9516,250.1266 808.9266,247.8736 Z M629.3863,417.0824 C626.433133,416.833 623.417359,419.337408 620.973994,420.835201 L620.7233,420.9864 C616.6933,423.3724 612.7463,425.8034 608.9003,428.4814 C602.1313,433.1954 595.4413,438.0794 589.4183,443.7334 L588.43185,444.666925 C581.66951,451.12251 565.7287,467.58145 574.9893,475.8854 C581.1013,481.3664 594.2323,479.7004 598.6133,472.7574 C600.4353,474.9774 605.5103,473.1734 607.4123,471.4424 C608.4023,470.5404 608.2993,468.9374 608.9103,468.3214 L609.505136,467.72283 C610.311782,466.930271 609.643202,467.795594 611.288942,467.616687 L611.4743,467.5934 C612.9303,467.3884 613.1043,468.1374 614.3223,467.0834 C615.2433,466.2854 614.8913,465.1304 616.0623,464.3944 C617.0503,463.7744 617.9723,464.8884 619.0053,463.9354 C619.9283,463.0834 619.8213,461.2914 620.1003,460.1614 C621.1863,460.0444 621.0443,461.2234 620.8513,461.8974 C622.9763,460.7144 623.3423,459.5504 621.9053,457.5114 C625.3403,459.3334 629.1733,454.8344 630.1383,451.9614 C630.5833,450.6364 630.8173,447.3854 628.8353,447.3314 C628.6673,446.7514 629.6153,445.9114 629.4923,444.6954 C629.3783,443.5714 628.7563,442.0944 628.0483,441.1764 C626.8823,439.6644 625.5193,439.0364 623.6603,438.7734 C619.2623,438.1524 614.6483,440.2674 610.2203,440.2674 L615.7433,437.2904 L615.7433,437.2904 L613.3303,436.5934 L613.3303,436.5934 C613.9393,435.4644 617.2033,435.9074 618.2753,435.3174 C619.9363,434.4044 620.2733,432.0504 622.5013,432.3344 C625.2423,432.6824 626.2623,431.4494 625.7033,428.8304 C627.4683,429.0044 628.5823,427.6354 630.2043,427.3024 C631.1623,427.1064 632.1813,427.4684 633.1483,427.2794 C634.7943,426.9574 639.6283,424.8194 640.8593,423.4974 C643.4913,420.6674 639.4383,420.1654 637.3523,419.8614 C634.4673,419.4404 632.1263,417.3144 629.3863,417.0824 Z M617.444798,448.506268 L617.5484,448.5109 C621.502945,448.943627 616.558317,453.051561 614.661924,454.528165 L612.957031,455.827935 C605.14091,461.764609 594.191221,469.833285 584.1794,467.4909 C586.4214,463.4409 590.5324,461.8939 593.8934,459.0419 C596.2724,457.0239 598.5114,453.1489 602.2004,454.8379 L602.156441,454.393091 C601.830169,450.733906 603.130745,454.089918 604.7034,453.4279 C605.676006,453.017718 607.099962,450.560477 607.901146,451.697593 L607.9744,451.8149 C609.269956,454.141011 615.531353,448.531408 617.444798,448.506268 L617.444798,448.506268 Z M890.6555,446.4976 L890.549797,447.225238 C890.358468,448.416636 890.168537,448.543341 888.8865,449.3986 L888.813526,448.625065 C888.663858,446.860793 888.868129,446.823543 890.6555,446.4976 Z M598.2479,446.2141 C599.4199,447.1121 597.6969,448.3171 597.0789,448.7031 L596.2659,449.2431 L596.2659,449.2431 C596.4319,447.9881 597.1889,446.8881 598.2479,446.2141 Z M691.7653,445.2664 C694.2943,444.3064 686.3583,442.9844 686.382192,444.2964 C686.4113,445.7814 690.8943,445.5964 691.7653,445.2664 Z M601.9295,445.2086 L601.7485,441.3246 L601.7485,441.3246 L601.855433,441.345969 C602.813752,441.510584 606.826333,441.712433 604.8445,443.2726 C603.8995,443.9576 602.9275,444.6036 601.9295,445.2086 Z M719.9313,413.7654 L721.2463,417.5184 L721.2463,417.5184 C719.3993,416.7554 717.4783,415.0234 715.5603,416.7654 C717.3503,418.2734 715.2193,419.6724 713.7363,419.9664 C712.8123,419.9254 711.9083,419.7714 711.0223,419.5074 C710.2773,419.6994 710.0623,420.1644 710.3773,420.9004 C710.5713,421.7764 710.3343,422.5154 709.6693,423.1154 C708.7323,423.4864 707.7913,423.8484 706.8473,424.2014 C705.6753,424.6944 704.5683,425.3354 703.3673,425.7664 C699.5193,427.1474 695.4033,427.1604 691.6473,428.8814 L691.306691,429.040631 C688.247333,430.496811 685.363086,432.493364 683.4403,428.2804 C681.3443,430.5424 679.6073,433.5184 676.0493,433.0634 L676.973889,434.668859 C678.674255,437.569072 681.713167,442.17005 684.4833,440.4624 C687.4203,438.6524 691.5083,438.1064 694.8213,437.2284 C698.6373,436.2164 702.4863,434.9164 706.4313,434.6104 C709.8873,434.3424 710.5873,433.9334 713.5453,432.5044 C716.469826,431.089979 720.191339,430.801032 723.438684,430.228661 L724.614986,430.007348 C727.7078,429.401393 738.4108,427.116983 736.5903,423.9444 C735.5763,422.1764 729.3123,423.5474 729.9883,420.1634 C731.0453,420.8454 732.1963,421.0954 733.4413,420.9154 C732.7323,418.4854 730.4433,415.3554 727.8213,414.7634 L728.091954,415.088361 C728.83437,416.010175 730.324848,418.092013 729.4713,418.7644 C727.1793,420.5704 727.0123,415.2094 726.4293,414.4904 C725.4193,415.4424 725.6023,417.8014 723.8443,417.9334 C723.5673,417.9544 720.8473,414.1544 719.9313,413.7654 Z M256.7613,284.3314 L256.481492,284.243042 C254.362178,283.550588 248.981709,281.395355 247.4363,283.4524 C246.3223,284.9344 247.6333,288.8874 247.9663,290.4464 C249.5003,297.6224 251.9593,304.6014 254.2403,311.5634 C257.8713,322.6484 260.8423,333.9474 264.4353,345.0504 C268.4463,357.446127 272.637709,369.820898 277.87405,381.759846 L279.082251,384.4827 C283.303679,394.084223 287.411955,405.79871 296.2783,411.9674 L296.333501,411.713506 C296.866252,408.970635 296.5903,401.445257 300.9213,402.5694 C304.5263,403.5044 304.6353,411.3384 305.5063,414.1834 C311.5783,413.1254 305.0563,380.7094 307.1953,375.4594 C310.98176,366.16506 320.37311,387.032829 323.863281,395.367943 L325.1663,398.5454 C326.5643,401.8834 338.4993,424.9944 342.9533,415.8094 C346.1933,409.127145 342.979541,398.26031 341.882041,391.012295 L341.758279,390.184027 C341.246358,386.943832 339.820478,380.315822 342.2323,377.8524 C344.2403,375.8014 344.9443,377.7014 346.3443,379.1114 C348.5233,381.3054 350.9753,381.3964 351.9003,385.0624 C353.966429,393.255303 356.877303,400.036864 361.433198,407.158988 L363.37656,410.157222 C366.68066,415.227776 370.847454,421.147573 376.6663,422.6594 C376.6663,416.4694 376.5593,410.2434 376.2173,404.0634 L376.153959,403.043611 C375.886723,399.052415 375.469511,394.8004 378.1903,391.5104 C385.0613,383.2034 392.8543,397.6154 399.0033,400.3414 C390.7583,387.9444 386.4103,373.4594 380.6743,359.8444 C374.3073,344.7304 367.1903,329.9604 361.1433,314.7084 C359.5223,310.6204 358.5933,302.7404 354.2293,300.6814 C352.0733,299.6634 348.6373,299.9374 346.3673,299.6634 C342.8673,299.2414 339.3693,298.8074 335.8733,298.3494 C321.8823,296.5154 308.0063,294.0704 294.0993,291.7054 C281.5823,289.5754 268.9443,287.9974 256.7613,284.3314 Z M852.3853,392.8954 C849.869933,388.127217 841.090701,390.212736 836.765343,390.284528 L836.5493,390.2864 C829.1713,390.2894 821.6203,391.0674 815.0113,394.6014 L814.473731,394.892663 C809.583966,397.577386 801.905011,402.794352 805.8973,408.9264 C809.068767,413.7984 815.990367,416.338436 821.44728,418.161198 L822.5923,418.5414 C825.7913,419.6004 836.2393,422.6664 838.4083,419.8594 C841.4163,422.9824 846.5213,420.7674 849.2793,420.1824 C849.3633,420.1644 850.1573,420.8974 850.7083,420.8044 C852.0523,420.5774 852.9003,419.2344 853.4013,418.1174 C854.1773,416.3874 853.9603,411.8754 853.2543,410.0834 C851.639933,405.988706 845.146958,404.621196 841.103745,404.401642 L840.57428,404.378537 C838.686204,404.315418 835.548154,404.437522 835.5453,407.0334 C835.5423,409.4694 839.2423,410.2434 840.9083,411.2514 C839.5023,414.2424 821.0733,407.7034 819.6343,405.0024 C820.5603,405.2774 822.0833,403.5664 822.9233,403.3814 C823.7503,403.1994 825.6703,403.5184 826.6373,403.4664 C831.5033,403.2044 836.2673,403.2164 841.1263,403.6284 C848.5293,404.2554 856.1263,405.9804 863.5353,405.9804 C862.8253,403.5684 862.2743,400.9624 860.9933,398.7704 L860.666109,398.203457 C860.267483,397.520157 859.757069,396.716785 859.1863,396.3714 C858.6943,396.0734 857.6363,396.8824 857.4713,396.7704 C856.0023,395.7794 854.0783,389.6004 852.3853,392.8954 Z M715.5653,399.6164 C714.9623,399.6454 714.4713,400.8294 714.4023,400.8244 C714.0103,400.7964 713.1493,401.3204 712.6333,401.3154 C711.6283,401.3054 711.0273,400.0954 710.2043,400.2244 C708.9403,400.4234 709.4213,401.7614 708.4243,402.1364 C707.6573,402.4254 706.8883,402.2204 706.5233,402.2614 C706.1523,402.3044 705.5743,401.5454 704.5403,401.9624 C703.9753,402.1904 704.1353,403.5864 703.4233,403.9004 C700.5653,405.1634 700.3873,402.9524 700.7253,400.9774 C699.7823,402.2594 696.8763,404.2774 698.0473,406.1744 L697.849816,406.120359 C696.14012,405.621882 692.901954,403.999323 693.4933,407.1974 L693.112212,406.936212 C691.052778,405.49757 690.621744,404.794956 688.1133,406.4534 C692.8583,408.7604 685.9643,408.9564 684.2053,409.0104 C683.6743,409.0264 682.1353,408.9044 681.7793,408.9794 C680.4433,409.2594 679.7023,410.4744 678.6063,410.7804 C675.6813,411.5964 677.2053,409.7394 674.7643,409.5184 C675.2383,414.5464 670.7493,409.5314 669.2643,412.4764 C668.3183,414.3544 668.0983,418.1904 669.4263,419.9564 C670.9393,421.9704 672.8483,421.4374 675.1713,421.0554 C680.3413,420.2064 684.3243,416.3954 689.4113,415.5374 C691.0583,415.2594 692.4423,415.9834 693.9053,415.8934 L695.0403,416.6464 L695.0403,416.6464 C695.5043,416.0374 696.0593,415.5234 696.7033,415.1044 C699.3733,413.7704 701.8623,412.7354 704.7803,412.0174 C710.1673,410.6934 718.8093,411.1094 723.0933,407.1814 C720.7253,406.0134 718.6723,404.5854 717.1283,402.3954 C716.8063,401.9364 716.4473,399.5734 715.5653,399.6164 Z M409.3833,397.0974 C408.436371,399.688436 410.743907,401.608122 407.081294,400.570031 L406.6493,400.4424 L408.0823,402.0474 L409.6163,404.1714 C405.706362,405.191212 412.055166,408.651921 413.391514,409.640226 L413.4513,409.6854 C415.4673,411.24526 419.217725,415.716818 422.194987,415.264209 L422.4063,415.2234 L417.9263,397.1534 C415.3333,401.5224 412.6603,399.2794 409.3833,397.0974 Z M864.7803,404.9964 C863.2033,406.5744 868.3333,408.3784 868.6813,406.0984 L864.7803,404.9964 L864.7803,404.9964 Z M694.3393,380.0914 C693.5373,380.3974 692.8073,382.7114 691.9923,383.3054 C691.5883,383.6004 690.1883,383.3094 689.6373,383.4684 C688.4263,383.8164 687.6373,384.8424 686.5293,385.3734 L685.543767,385.862523 C684.71684,386.259993 683.927411,386.533233 682.9163,386.2494 C682.2173,386.0524 682.5773,384.4694 681.4993,384.7174 C679.0103,385.2894 679.7083,388.7404 676.7833,388.7754 C674.5563,388.8024 673.7503,385.8284 671.2353,386.4924 C673.6543,387.5904 673.8183,390.0904 670.9553,390.3724 C669.4193,390.5224 668.4333,388.9014 666.7993,389.5844 C665.5553,390.1054 665.8713,392.5624 664.2873,392.8074 C662.0553,393.1524 663.4423,389.9784 662.2893,389.0034 L662.201591,389.427166 C661.449472,393.371187 662.150861,398.868716 666.5113,399.0974 C669.6533,399.2624 674.7433,396.6074 677.6963,395.6804 C681.3318,394.53915 684.90596,393.594525 688.645234,392.98209 L689.6693,392.8234 C691.6563,392.5334 702.1453,391.5214 702.291711,388.2304 C702.3133,387.7194 700.5763,388.0424 700.5153,387.6674 C700.3823,386.8534 700.8303,386.8744 700.9623,386.1044 C701.2933,384.1894 703.7613,383.4834 700.4473,382.1114 C701.7043,384.8364 695.5763,384.1494 695.5763,381.9444 C696.4163,382.6884 696.9513,382.5724 697.1823,381.5954 C696.8053,381.4714 694.1753,380.1534 694.3393,380.0914 Z M412.5023,372.6414 C411.7773,375.4844 413.0883,379.5064 409.5423,380.8014 C409.0803,380.9704 403.8983,380.6504 403.9063,380.6754 C404.2793,381.8174 402.2803,382.8664 402.1503,384.1284 C402.0243,385.344491 403.193965,387.76422 403.822403,388.847945 L403.9083,388.9934 C406.1253,392.6744 406.4163,390.9564 409.0413,389.5904 C412.1133,387.9924 416.1663,389.0884 415.8433,384.1494 C415.7013,381.9634 414.1693,380.2214 413.6403,378.1774 C413.1893,376.4384 413.9643,373.9854 412.5023,372.6414 Z M361.6449,384.7898 L366.0319,389.2088 L366.0319,389.2088 C365.030433,390.118433 362.700187,388.201372 361.792601,387.706722 L361.7039,387.6608 C360.2829,386.9708 360.8369,385.6758 361.6449,384.7898 Z M483.0793,292.7124 C470.72707,283.14999 452.227653,296.109298 441.403928,302.983969 L439.722252,304.054565 C432.83561,308.487959 415.20122,320.65554 425.1113,327.7254 C425.843467,325.728233 428.338967,324.45936 430.024282,323.246356 L430.2393,323.0884 C430.8753,322.6104 432.2933,321.8804 432.7013,321.1414 C432.972567,320.649133 432.701531,319.637849 432.932989,319.108728 L432.974879,319.031801 L432.974432,319.041131 C433.057207,319.27439 437.186292,317.355765 437.050392,317.481607 L437.036879,317.490801 L437.276932,317.359846 C440.461668,315.529506 443.109821,312.656686 446.067001,310.455778 L446.6253,310.0514 C449.042633,308.348844 451.564621,306.799943 454.101396,305.280012 L456.94175,303.586826 C462.214682,300.472911 469.056402,296.890849 475.2863,298.0764 C484.115963,299.757299 483.088915,310.984015 481.893117,317.69634 L481.8523,317.9234 C480.2623,326.6914 477.2013,335.3894 473.3693,343.4264 C469.7673,350.9784 465.2023,358.0284 460.1223,364.6644 C457.7503,367.7614 455.2983,370.8814 452.6153,373.7134 C450.9773,375.4414 447.0813,378.3144 447.6473,381.1584 C448.3543,380.9874 448.8463,380.5654 449.1233,379.8924 L449.402348,380.296715 C450.982536,382.674757 451.515443,384.903596 454.5743,381.8154 C455.5773,380.8024 456.2473,379.4074 457.2683,378.3504 C458.7473,376.8204 459.1173,377.3834 460.2423,375.2744 C460.9833,373.8844 461.0463,372.8224 462.0813,371.6314 C462.5893,371.0454 463.7203,370.7194 464.3653,369.8894 C466.0033,367.7814 467.7933,365.5564 469.4373,363.3884 C466.4573,363.3884 473.4083,357.1304 474.2703,355.7724 L474.467089,355.436866 C475.643396,353.331131 479.67484,344.825083 476.6443,344.3484 L477.243889,343.432613 C479.863287,339.406551 481.437024,336.57871 482.6753,331.5474 C483.8723,326.6894 486.4153,323.3134 486.4933,318.1304 C486.562947,313.4744 487.010836,309.037196 486.487197,304.48197 L486.3773,303.6264 C485.8873,300.1804 486.1903,295.1204 483.0793,292.7124 Z M644.4113,381.6314 C643.0293,381.1044 639.2253,378.5364 637.8533,380.5854 C636.2023,383.0514 640.3703,381.9274 640.8813,382.3854 C642.2813,383.6374 643.2723,382.4184 644.4113,381.6314 Z M677.0813,360.2684 C676.4773,360.9244 675.9303,362.5464 675.2753,362.9784 L674.038436,363.791556 C672.024655,365.137572 671.373377,365.869169 671.5333,368.9864 C670.4323,368.4324 669.0483,366.9464 667.8123,366.8224 C666.4653,366.6884 666.2903,367.8814 665.4093,367.9064 C665.4423,367.9054 664.9653,369.1624 664.5033,369.3274 C663.5143,369.6824 662.4713,367.3634 661.9193,366.9814 C660.8123,368.6604 658.1793,368.7724 656.5553,369.6454 C656.5313,370.6324 657.6743,370.9834 657.7303,371.8614 C657.7743,372.5494 657.2973,372.5764 657.2893,373.0384 C657.2603,374.5094 656.4833,376.5014 657.8393,378.1574 C659.562563,380.260926 661.88304,379.396799 663.997774,378.468838 L664.7343,378.1434 C667.8293,376.7844 677.3953,370.1484 680.0273,374.9574 C681.3273,371.4124 685.5813,370.6384 688.8793,371.2814 C687.3283,367.5424 684.9173,365.4644 681.0473,364.7364 L679.923437,364.527859 C677.614835,364.084506 676.578691,363.630139 677.0813,360.2684 Z M441.4063,333.9794 L441.333916,333.498418 C440.665172,329.515579 438.628168,328.230702 434.8763,330.2274 C430.4453,332.5864 425.6553,336.5214 422.5353,340.4334 C420.8933,342.4914 419.9183,344.9174 418.3313,346.9924 C416.8823,348.8854 414.9413,349.6004 416.6083,352.2554 C413.3783,349.7984 410.7113,356.5494 408.0933,357.7474 C404.6433,359.3274 397.4793,358.4604 394.7903,360.9724 C393.0973,362.5534 393.6303,365.6824 394.9913,367.4104 C396.9783,369.9354 398.6103,368.9564 401.3673,368.3154 L403.938884,367.727496 C408.447377,366.661086 411.662762,365.398169 410.9503,359.6604 C413.951512,361.444642 416.576599,361.204393 419.4766,359.689165 L419.7493,359.5434 C421.4383,358.6204 424.6433,357.3884 426.0103,356.1784 C428.0693,354.3584 427.2513,352.4854 429.6263,350.8534 C432.3343,348.9944 434.8393,347.6704 437.3263,345.3054 C438.3333,344.3474 437.7083,343.6044 438.3893,342.5874 C438.7803,342.0054 440.0713,341.9984 440.4623,341.3784 C441.6893,339.4344 441.7003,336.1704 441.4063,333.9794 Z M893.9896,358.3706 L893.598489,358.878526 C892.62547,360.173938 892.9746,360.100359 893.6766,361.8056 L893.805848,361.48723 C894.339801,360.247002 895.025292,359.3906 893.9896,358.3706 Z M659.2293,345.1434 C654.6253,344.1984 651.0903,351.7604 652.1923,355.4214 C653.9433,361.2404 665.6013,354.5484 669.3713,353.6344 C666.9833,352.3924 668.1843,348.9554 665.8013,347.6064 C664.7383,347.0054 662.7443,347.3114 661.5183,346.7294 C660.6403,346.3134 660.3613,345.3754 659.2293,345.1434 Z M415.5483,331.2224 C410.1313,329.7594 408.3623,338.8804 407.6153,342.1454 C406.117739,339.32979 406.361998,334.304067 403.112635,332.722473 L402.8623,332.6104 L402.4283,335.6194 C399.9673,333.2794 399.5743,336.0494 398.4983,337.6134 C396.7083,340.2174 395.3293,340.6464 392.6783,339.9644 C391.9833,339.9894 391.3253,340.1594 390.7043,340.4744 C391.6763,338.6584 392.2383,338.5704 394.2333,338.9174 C393.4433,333.7134 387.8813,340.8734 385.1913,340.6664 L388.6613,350.0234 L388.6613,350.0234 L389.712935,349.578718 C393.909898,347.78395 398.009069,345.847477 402.6263,345.5964 C404.2703,345.5064 406.3843,346.5024 407.7373,346.1134 C409.3143,345.6614 408.5013,342.6774 410.5683,345.8854 C411.5083,343.3234 421.6293,332.8654 415.5483,331.2224 Z M426.1668,343.6948 C426.0358,343.8218 426.4228,345.7388 424.3928,346.1538 C424.2538,345.0318 424.8458,344.2128 426.1668,343.6948 Z M772.8613,312.2204 C770.1903,309.6334 759.6983,315.4504 756.5833,316.5714 C744.5093,320.9164 731.8383,323.0344 719.3233,325.6674 C713.8443,326.8204 709.4903,329.2084 704.2993,331.0484 C702.2403,331.7784 700.1323,331.7414 698.1153,332.4304 C696.5713,332.9584 697.1823,333.9074 695.2973,333.5104 C696.0653,333.6714 691.6273,336.2594 691.8333,335.5034 C691.0843,338.2484 696.5253,338.7614 698.4823,338.7044 C699.6583,338.6704 702.0503,338.0154 703.3733,337.7734 C705.0593,337.4644 706.2733,337.7544 706.7703,335.6334 C711.8603,339.3644 721.2363,336.2054 726.7603,334.9344 C734.1523,333.2334 741.7693,330.9954 748.9623,328.5904 C751.9923,327.577257 755.055361,326.758808 758.105513,325.85482 L759.6293,325.3944 C761.0803,324.9464 763.3283,324.5044 764.4943,323.4814 C765.5583,322.5484 764.1123,321.2124 766.1793,320.4574 C768.0613,319.7704 769.8833,321.5004 771.9753,320.6864 C774.8963,319.5494 774.9543,318.5944 774.7643,316.2214 C774.7873,316.5084 772.5793,311.9464 772.8613,312.2204 Z M645.0223,329.8204 C645.4993,331.3774 645.5443,334.8014 646.8303,335.9464 C647.6113,336.6424 651.3513,337.1534 651.3503,335.1044 C651.3483,332.3694 647.1963,330.3674 645.0223,329.8204 Z M417.4103,327.1324 C417.7323,326.8144 413.2723,327.6454 415.0293,329.5024 C415.8283,328.7174 416.6213,327.9274 417.4103,327.1324 Z M360.7803,166.6354 C356.1743,165.0894 351.1813,165.9324 346.5343,166.8024 L346.704555,167.23953 C347.601244,169.482104 348.699936,171.489703 347.1133,173.8194 L347.0182,173.506149 C346.548944,171.842559 346.629829,170.331694 344.5263,170.8644 C342.4053,171.4024 343.1873,174.6854 341.2483,175.6414 C341.1783,174.7734 340.9163,173.9674 340.4603,173.2254 C340.1093,174.7834 339.7973,178.5454 341.0843,179.8684 C342.8713,181.7034 344.1443,179.5444 345.0053,182.2074 C345.3213,183.1834 344.7103,186.4814 344.1703,187.3814 C343.2713,188.8814 343.1733,188.0984 341.2103,188.9274 C338.8983,189.9064 338.9693,191.1494 337.1903,192.7924 C334.6983,195.0944 330.6083,196.3944 327.6243,197.9274 C320.7143,201.4794 313.6743,204.7224 306.5983,207.9264 C292.259733,214.4195 277.785672,219.751086 262.506774,223.51648 L260.9233,223.9004 C258.7373,224.4214 240.6163,226.5504 243.3953,229.5834 C247.0203,233.5434 254.3613,234.8454 257.4403,229.5184 C259.4003,231.6864 261.6623,229.6954 263.7743,228.9844 C266.1223,228.1944 267.1773,228.4784 269.5753,228.7564 C271.4933,228.9784 273.5833,229.1434 275.4993,228.7844 C277.1703,228.4714 278.5013,226.8964 279.6983,226.5784 C280.2863,226.4224 281.4843,227.2254 282.3003,226.9594 C282.8343,226.7844 283.0003,226.1354 283.4513,225.9844 C285.6743,225.2334 287.2183,224.3984 289.7233,224.0584 C294.7053,223.3804 298.4163,220.3504 299.2773,215.2254 C304.4943,222.7874 311.5193,208.2904 315.9003,212.5494 C316.3243,210.4834 318.8633,211.4374 320.1523,210.0584 C318.4513,209.1224 323.0103,207.1644 325.1463,208.7414 L325.10084,208.001508 C324.854706,203.655605 325.502448,207.270777 326.3753,207.0654 C330.8283,206.0184 334.2443,202.5094 338.9543,201.6084 L339.773923,201.447196 C342.915961,200.802643 341.850609,200.564182 342.1223,196.4814 C344.6243,199.1304 343.4473,203.2944 343.8233,206.6014 C344.3673,211.3884 345.9073,215.9884 346.2713,220.7964 C346.6223,225.4334 346.1763,230.0054 348.0953,234.3624 C349.5133,237.5814 350.7543,240.4904 351.8973,243.7944 C352.6403,245.9424 355.0293,248.2084 355.4413,250.3204 C355.6783,251.5334 354.6803,252.6704 354.9293,253.8654 C355.3023,255.6504 356.8243,256.9974 357.4813,258.7084 C358.6863,261.8434 358.9103,265.2424 360.1803,268.3864 C361.0033,270.4224 363.4643,273.8304 361.8933,275.9924 L360.0243,273.9984 L360.0243,273.9984 C360.8953,276.7924 361.8563,281.2994 363.2803,283.7624 L363.555966,284.231092 C364.558483,285.892552 364.810221,285.673268 366.4193,283.5834 C368.2153,287.9374 372.5723,289.1944 372.7083,294.4924 C372.8333,299.2754 370.1243,301.8164 365.4173,301.8164 L367.58639,305.852144 C369.2722,308.99807 370.9291,312.1683 372.3753,315.4184 C373.9973,319.0624 375.1183,323.0244 377.3853,326.3484 C379.680467,329.711837 380.745535,328.981338 384.21645,327.671744 L384.4413,327.5874 C388.5143,326.0684 392.5013,324.6974 396.7473,323.6884 C398.9173,323.1714 401.3893,323.1654 402.5003,321.0294 C403.774482,318.576067 402.302952,312.892761 402.015646,310.15249 L401.9923,309.9044 C401.1293,299.3864 399.4643,288.9644 397.8033,278.5484 C394.3173,256.6804 393.8483,234.4524 390.1423,212.6544 L389.513881,208.962723 C388.179249,201.205022 386.616645,193.101366 383.5313,185.9824 C382.6113,183.8594 381.5343,181.7764 380.1833,179.8924 C379.1073,178.3914 376.7433,176.6584 376.4313,174.7294 C375.7393,170.4434 381.3623,170.9124 382.0163,167.4824 C380.9553,168.4984 379.1853,166.9144 377.1243,168.2594 C374.5853,169.9164 373.9233,171.5494 370.4793,171.0304 C366.9623,170.4994 364.1113,167.7524 360.7803,166.6354 Z M420.6853,326.5844 L419.7293,322.9924 L419.7293,322.9924 L419.434729,323.449066 C418.556044,324.837954 418.733482,324.983491 420.6853,326.5844 Z M416.4463,289.8024 C412.6023,295.9524 402.6743,303.1304 406.3103,311.4154 C407.5683,310.4604 405.7453,308.3264 406.6713,307.8024 C409.2803,309.0654 407.4773,306.2394 408.2303,305.8034 C408.4623,305.6684 410.4993,305.0734 410.2663,305.3694 L410.974965,304.460494 C412.932027,301.918932 415.343551,298.491487 416.196893,295.537132 L416.2953,295.1704 C416.7673,293.2654 418.3263,291.5284 416.4463,289.8024 Z M589.2203,112.3824 C585.1923,111.4324 578.1513,120.9304 575.5313,123.5724 C569.678367,129.476667 564.485736,135.961964 559.091587,142.275421 L555.796339,146.111575 C544.804435,158.971765 534.514997,172.092309 525.9543,186.8004 C524.9463,188.5324 524.0723,190.1484 523.8723,192.1634 C523.7243,193.6534 524.3773,195.2094 523.8793,196.6934 C523.0163,199.2704 520.6633,199.1834 519.1903,201.3684 L518.780786,201.980991 C515.792041,206.492718 511.725833,213.548689 511.8233,218.7794 C512.0333,230.1894 511.4093,241.5144 513.7733,252.7634 C515.8153,262.4834 519.1043,272.0374 523.4073,280.9874 L523.859397,281.913646 C530.573003,295.45987 540.943922,307.246133 556.5473,309.8744 C563.5623,311.0554 570.7443,310.6544 576.1133,305.5254 C582.37475,299.543775 586.669357,290.002059 590.085254,282.105495 L591.102218,279.748184 C592.619729,276.194645 594.088014,272.373257 594.0083,268.5504 C593.9033,263.4644 594.1073,258.7584 594.3893,253.6574 C594.9543,243.4854 590.3383,233.6464 594.7573,223.7644 C587.9113,224.8434 580.7053,223.2274 574.0943,221.5244 C575.031633,233.250554 579.044491,244.650884 583.391828,255.536676 L584.0993,257.2974 C584.9313,259.3584 590.9283,271.6354 586.7183,271.6874 C584.0833,271.7194 581.9123,265.6974 580.9433,263.9324 C578.8693,260.1494 576.5683,256.5084 574.6473,252.6364 C570.221603,243.719067 567.329555,234.226262 566.281175,224.339439 L566.1883,223.4114 C565.6743,217.9514 564.6153,213.5744 561.7473,208.8554 L560.802579,207.29907 C558.517151,203.513048 556.44806,199.82268 555.5003,195.3734 L555.408682,194.930628 C554.638251,191.109665 553.385633,182.4124 556.2113,179.5704 C558.2363,177.5344 558.7463,180.3674 559.3673,182.4864 C560.3993,186.0094 560.6023,189.7164 561.6763,193.2314 L561.981263,194.21412 C562.48275,195.779684 563.133241,197.469518 564.2483,198.6134 C565.6003,200.0014 567.4583,200.2144 568.8113,201.5974 C570.3713,203.1914 570.7813,205.5874 572.3893,207.1974 C573.7323,208.5424 575.6693,209.3894 577.4213,210.0064 C581.0783,211.2944 585.0833,211.5864 588.9323,211.3724 C598.07032,210.863184 605.284585,206.141834 612.222082,200.576818 L613.0703,199.8914 C615.4163,197.9814 624.7773,192.2664 624.2253,188.7964 C619.5373,189.7084 615.1883,181.3974 618.3513,177.8814 C620.1583,175.8724 622.1223,177.3384 624.1233,178.5374 C625.1673,179.1644 626.2363,179.5774 626.9923,180.5924 C627.8443,181.7374 627.5233,183.5534 628.7663,184.4474 C631.8953,179.8334 634.7613,175.0474 637.8773,170.4284 L638.120383,170.078687 C640.160504,167.219989 643.452339,164.289125 641.0523,160.8524 C638.644479,157.404114 633.642384,154.573247 630.152619,152.091703 L629.7713,151.8174 C625.5233,148.7224 621.1343,145.8514 616.7903,142.8974 C609.8333,138.1704 603.9423,132.3164 598.8353,125.6474 C596.9003,123.1214 595.1493,120.5484 593.5573,117.8014 C592.5943,116.1404 591.3533,112.8854 589.2203,112.3824 Z M472.1963,247.1464 C468.695406,244.54006 463.914759,246.659037 460.477535,248.372294 L460.2553,248.4834 C450.853405,253.194084 442.16066,260.155465 435.080791,267.933027 L434.5103,268.5654 C429.279023,274.418166 422.045737,280.33128 419.678702,288.12634 L419.5313,288.6374 C419.3273,289.3854 418.8003,295.3514 421.5083,292.3834 L421.616566,291.112193 C421.712766,290.087571 421.870967,288.759659 422.0843,288.3964 C422.753608,287.259169 423.849637,286.338879 424.891363,285.497402 L425.4513,285.0454 C428.2123,282.7994 430.7673,281.0414 433.1603,278.4224 C434.5443,276.9064 436.3633,275.7734 437.5903,274.3414 C437.7133,274.1984 438.3703,272.5634 438.9183,271.9254 C441.1835,269.292467 444.118584,267.60556 446.464159,264.984938 L446.9573,264.4084 C448.2083,262.8764 449.3643,262.3564 450.7233,261.2574 C451.4003,260.7104 452.0443,260.0174 452.7323,259.4284 C452.8833,259.2994 453.9443,259.9434 454.0633,259.7864 C454.2723,259.2924 454.2923,258.7904 454.1243,258.2804 C454.2683,257.4484 454.7493,257.2014 455.5653,257.5404 C456.1083,257.0074 457.7313,256.3124 458.5793,255.5374 C460.537737,253.743962 462.729085,252.608826 465.168998,251.60547 L466.484341,251.078437 C468.658054,250.230562 471.400672,249.393493 472.7563,251.7654 C473.4593,252.9954 472.1803,257.9734 473.5353,258.5054 L473.708357,258.054286 C475.004816,254.533992 475.558133,249.64765 472.1963,247.1464 Z M696.8983,258.4244 C696.1843,258.0054 695.6133,258.1714 695.1843,258.9224 C692.6603,258.6414 690.1573,259.1104 687.7193,259.7344 C683.138675,260.906275 678.8393,262.963209 674.474282,264.74834 L672.566972,265.51861 C666.463888,268.016628 658.213645,272.045691 655.8103,278.3774 C653.1153,285.4784 660.6193,286.7104 665.4693,288.9394 C666.0573,289.5084 666.7163,289.9784 667.4463,290.3474 C667.9383,290.2104 668.3613,289.9514 668.7143,289.5714 C670.1543,289.7954 671.0053,290.7904 672.5353,291.2414 C674.7433,291.892694 677.648435,291.473926 680.005981,291.55163 L680.4413,291.5724 C682.9313,291.7304 701.0413,294.1594 700.0443,289.3794 C703.1963,294.8334 714.5573,290.5554 718.9953,289.4154 C722.2403,288.5804 725.6303,288.7854 727.9963,286.6544 L728.26507,286.406966 C730.095881,284.694519 733.222252,281.364948 734.1653,285.8794 C739.1993,282.8034 732.0103,278.1734 728.8543,277.7724 C724.896522,277.26877 720.801504,279.261426 716.958574,280.091937 L716.5163,280.1824 C714.2663,280.6144 688.0603,283.2834 688.4743,280.4014 C688.4853,280.3264 697.6163,278.2094 698.6573,277.9474 C703.1723,276.8124 707.8323,275.1004 712.4143,274.3404 L713.076141,274.239326 C716.16126,273.8008 719.0811,273.720533 716.9363,269.5504 L716.726911,269.156145 C715.280787,266.529244 714.953944,268.0844 712.3663,268.1704 C711.997862,267.37915 711.402667,267.038779 710.57989,267.148463 L710.4123,267.1764 C709.4343,267.3254 708.4813,267.5684 707.5543,267.9064 C705.3143,268.5684 703.0843,269.3524 700.8743,270.1064 C696.6453,271.5504 692.4913,273.1754 688.6213,275.4274 L687.802802,275.909624 C681.62083,279.588152 675.475821,283.917935 668.4383,279.1474 C670.7073,275.9904 675.2473,275.6834 678.4073,273.8544 C679.8753,273.0044 681.2973,271.2314 683.0063,270.8584 L683.463929,271.010802 C683.896878,271.151134 684.517425,271.332775 684.7743,271.2984 C689.1533,270.7134 693.1173,268.3314 697.3683,267.2724 C698.7783,266.9214 703.9173,266.7914 704.5943,265.2284 C705.6183,262.8654 700.4933,261.4664 699.1013,260.3964 C698.1893,259.9374 697.4553,259.2804 696.8983,258.4244 Z M737.6813,275.3364 C735.0663,279.5904 739.4863,278.6034 741.0853,280.7774 C742.0903,280.0394 738.0343,276.8394 737.6813,275.3364 Z M357.4133,274.3014 C354.0583,274.4394 356.3473,279.4884 357.6313,276.2824 C357.7063,275.6064 357.6333,274.9464 357.4133,274.3014 Z M657.4963,244.7524 C653.717273,244.295103 649.435561,247.847927 646.326627,249.759981 L646.0703,249.9154 C637.797879,254.854979 629.949081,260.428198 622.466088,266.491361 L621.2223,267.5064 C620.1223,268.4114 616.0843,272.9204 619.9073,274.1994 C619.0533,273.9144 623.4083,272.3484 623.3433,272.3944 C626.6413,270.1004 630.2713,268.7894 633.7453,266.7184 C637.3663,264.5584 640.5033,261.7424 643.8673,259.2254 C647.9603,256.1604 652.8623,254.3214 656.9423,251.3284 C657.5313,250.8964 658.0293,250.0224 658.6643,249.7054 C659.2243,249.4254 661.0373,249.2704 661.2663,248.8844 C662.4933,246.8214 659.1253,244.9504 657.4963,244.7524 Z M719.4213,267.9884 L719.0593,269.2404 L717.5313,269.0254 L717.5313,269.0254 L717.572873,269.102903 C718.068797,269.989612 721.379775,275.015027 722.1343,271.4704 C722.473729,269.872579 719.649818,269.307817 719.434227,268.122715 L719.4213,267.9884 Z M353.6913,269.2084 C354.1603,269.8924 354.6433,270.5644 355.1403,271.2274 C356.5783,273.0284 358.3983,272.9574 358.6143,270.3954 C356.7913,272.0754 355.4193,269.5574 353.6913,269.2084 Z M353.8123,256.9554 C352.7263,255.9684 351.9393,256.4264 351.7603,257.9614 C351.5723,259.5704 356.6973,264.9464 357.5743,262.6904 C356.3613,261.5714 354.6943,260.3574 353.8673,258.8734 C353.6383,258.4634 354.1713,257.2824 353.8123,256.9554 Z M345.5323,230.0604 L343.4843,225.8084 L343.4843,225.8084 L343.441598,226.306081 C343.222709,229.073778 343.553381,229.517427 345.5323,230.0604 Z M341.9063,228.8644 L341.9063,224.4584 L341.534425,224.760937 C338.989968,226.862631 339.037349,227.563315 341.541023,228.702424 L341.9063,228.8644 Z M298.8573,218.0494 L298.2153,220.3094 C299.2453,220.8054 300.5063,218.9294 301.1123,218.3944 L298.8573,218.0494 Z M337.2833,205.4064 C337.2833,206.891162 336.936815,208.744178 337.835033,210.081742 L337.9793,210.2784 L338.6873,209.5024 C339.0563,207.9894 338.7083,206.2674 337.2833,205.4064 Z M662.5073,204.2814 C661.6153,203.7724 660.8383,204.2144 660.1803,205.6064 C656.3573,209.3024 661.1053,207.5374 662.5073,204.2814 Z M588.9725,196.62368 C592.1335,196.9357 601.8215,202.8867 596.6035,205.9107 C593.9585,207.4427 589.0245,205.4487 587.0735,203.4787 C585.0345,201.4197 585.0665,196.6157 588.9725,196.62368 Z M608.104,178.7566 C609.026,176.5826 609.825,166.8506 613.565,169.1086 C618.61,172.1546 613.921,186.5736 612.064,190.2226 C609.514,195.2346 598.178,199.1536 597.157,190.8676 C596.735,187.4316 598.126,181.7826 601.917,180.7516 C605.352,179.8176 606.559,182.3976 608.104,178.7566 Z M393.0303,107.0854 C390.7573,107.1594 388.0543,107.4984 385.9323,108.3184 C384.0443,109.0474 383.2803,110.8704 381.6743,111.5694 C382.1447,111.36492 379.865967,110.731896 379.826243,110.695737 C378.8953,110.6054 377.2653,111.5174 376.3693,111.8144 C373.1283,112.8904 369.8893,113.9714 366.6893,115.1604 C360.6963,117.3864 354.7593,119.8224 348.8903,122.3564 C337.742078,127.172122 326.887315,132.826301 316.245141,138.687964 L314.3693,139.7244 C293.7873,151.1304 270.3953,164.6864 256.7193,184.4164 C252.511486,190.488819 260.130772,192.709821 264.81491,193.269238 L265.1443,193.3064 C268.5353,193.6664 277.6963,196.9204 278.5933,191.5744 C280.3633,194.6904 285.9423,192.1214 288.5613,190.9614 C289.6603,190.4754 291.3123,190.4824 292.2863,189.9704 C293.6423,189.2584 293.1163,187.8414 294.4123,187.3394 C295.2983,186.9964 295.4313,188.0784 296.4603,187.8694 C297.2353,187.7124 297.9033,187.0154 298.6683,186.8534 L298.836428,186.826676 C300.492042,186.617573 308.623755,186.639452 303.7263,184.5934 C305.1943,183.3094 307.2303,183.1694 308.6093,181.7474 C309.5253,182.5214 309.6453,183.3904 308.9673,184.3524 C311.7093,184.1254 316.6113,181.4994 318.9153,180.1664 C321.1203,178.8914 320.9783,177.7134 322.3073,175.8004 C323.385454,174.248708 325.077951,172.954341 326.460622,171.622352 L326.7993,171.2884 L327.1453,175.5694 C329.7823,175.3934 329.1863,173.0864 329.2753,171.1554 C333.0783,171.5824 336.1313,169.8024 338.4943,167.0884 C339.1913,166.2864 338.9133,164.6934 340.3603,164.6174 C341.117443,164.5774 342.265515,166.376856 342.485438,166.506859 L342.503879,166.510801 L343.002445,166.304369 C343.621688,166.05409 344.566491,165.691901 344.502437,165.804488 L344.481879,165.826801 C345.771157,164.699383 345.410993,157.398092 347.879765,162.300628 L348.0863,162.7254 C349.7573,161.4744 350.0993,160.3774 350.8123,159.2014 C351.5303,158.0174 352.0613,157.6244 353.5463,156.3994 C356.1883,154.2184 356.7613,150.0394 360.2403,148.7114 C359.8843,149.8394 358.7023,150.9504 359.0713,152.2504 C362.5663,150.9654 362.4363,144.0464 361.4033,141.2614 C359.6773,136.6154 354.3823,137.3864 350.3863,138.3454 C344.3863,139.7834 339.2843,143.1964 333.8043,145.8704 L333.332433,146.095177 C329.540218,147.86377 323.596627,149.850298 322.7583,154.4304 L324.6831,153.655072 C327.19046,152.64192 329.4687,151.6376 331.6023,149.7584 C332.6053,148.8744 333.6663,146.8234 335.1903,146.7214 C335.5743,146.6954 336.3893,147.1254 336.5713,147.0684 L337.866852,146.662777 C340.878677,145.740571 345.777765,144.454656 347.6923,146.1644 C347.9863,145.5164 348.2613,143.9684 349.0613,143.6484 C351.0533,142.8524 349.5453,144.1894 350.8023,144.5804 C352.5793,145.1314 354.1023,146.0624 355.9493,146.8174 C355.4343,148.6504 354.4603,146.8264 353.6663,147.0614 C352.6293,147.3674 351.9103,147.6874 350.9203,148.4104 C348.8043,149.9574 347.1773,151.8364 344.8853,153.2334 C341.2743,155.4334 335.3943,157.5754 333.2113,161.4484 C332.2133,163.2204 333.2253,164.4504 331.0053,164.9884 C330.6853,165.0664 330.3813,163.6344 329.8733,163.6354 C328.9409,163.6381 328.2515,163.97209 327.392486,164.275057 L327.0993,164.3744 C324.6253,165.1744 322.2773,166.3434 320.1893,167.9104 C318.7053,169.0254 317.0303,171.7574 315.0973,172.0784 L315.131818,171.738215 C315.320988,169.417745 314.108845,170.865782 311.882653,171.838841 L307.9003,173.5214 C304.7053,174.8674 301.5093,176.2184 298.2593,177.4304 C294.805675,178.7184 291.283144,179.796619 287.752669,180.849955 L286.2393,181.3004 C282.5333,182.4024 278.7713,183.5014 274.9433,184.0914 C273.2073,184.3584 271.5623,184.4424 269.8113,184.4194 C269.299586,184.4134 268.817994,184.114992 268.350151,183.998368 L268.1173,183.9574 L267.999879,183.944801 L267.981167,183.96373 C267.872388,184.05443 267.653765,184.177469 267.268079,184.341178 L266.9243,184.4804 C266.2763,184.0174 264.9453,181.9614 265.9673,181.2714 C266.3813,181.4054 266.7463,181.6234 267.0593,181.9254 C267.7403,178.3544 270.7433,175.9714 273.2603,173.6514 C272.4583,175.0204 272.9463,176.3614 274.2633,177.1384 C276.0493,174.5174 279.2773,173.0084 281.8133,171.2494 C282.5123,170.7624 283.2043,170.2644 283.8873,169.7564 C285.2373,169.3954 285.7373,168.6334 285.3873,167.4704 C286.0523,166.9354 286.2233,165.4394 287.4123,166.7014 C287.6243,166.6324 288.7143,163.9134 288.9913,163.4864 L289.094449,163.850836 C289.969334,166.798491 290.369856,164.345289 291.9703,162.7044 C292.9373,161.7134 294.1043,160.2374 295.4463,159.7534 C298.3713,158.6994 297.7073,160.0804 299.6673,157.4034 C301.7953,154.4984 305.2513,154.1604 308.4903,152.6244 C311.6243,151.1394 314.6143,149.5314 317.8493,148.2394 C316.9543,147.9464 316.1523,147.4884 315.4463,146.8654 C318.4313,144.2294 321.3933,148.4484 321.4403,142.4304 C324.7083,142.8634 330.7343,142.2774 333.6983,140.5744 C337.8013,138.2174 342.0103,136.0564 346.2003,133.8874 C349.7328,132.0574 354.011491,131.126521 357.887754,129.562994 L358.6573,129.2414 C363.7503,127.0334 369.2693,126.0594 374.2113,123.4944 C376.7613,122.1714 378.6793,121.6274 381.2913,120.8294 C382.9333,120.3274 384.5993,118.8334 386.3193,118.7424 C387.7663,118.6654 388.6683,119.7694 390.2873,119.5134 C392.0163,119.2404 393.1843,117.7054 394.9983,117.5544 C396.5503,117.4244 397.4263,118.2434 399.1953,117.7154 C400.9923,117.1784 402.4983,115.6994 404.4473,115.6264 C407.9113,115.4964 413.7493,118.3724 416.1543,120.3924 C417.1953,121.2684 417.7943,122.5524 419.1963,122.2954 C421.7843,121.8224 420.8223,119.9544 418.7553,120.2514 C421.6653,116.1814 415.3863,115.0754 412.8123,113.9754 C410.6973,113.0714 408.3693,111.8744 406.7833,110.1564 C406.2303,109.5574 405.6883,108.0234 405.0763,107.6304 L404.92984,107.677428 C404.514539,107.821708 403.351182,108.246165 403.2153,108.2264 C402.8353,108.1714 402.8913,107.2274 402.2603,107.2714 C401.0273,107.3594 399.9573,107.9574 398.6983,107.9154 C396.7823,107.8504 395.0413,107.0194 393.0303,107.0854 Z M258.8085,61.0399 C260.3795,57.4319 264.2195,59.0229 263.9125,62.5979 C263.6715,65.4079 262.0615,64.5069 260.8445,65.7509 C259.5665,67.0569 259.8625,68.3399 258.8735,69.6499 C257.3445,71.6759 254.0365,72.5009 251.8255,74.3449 C251.6055,74.9529 251.3515,75.5469 251.0645,76.1269 C250.4995,76.2809 249.9245,76.3829 249.3405,76.4329 C249.0325,76.8099 248.6605,78.2769 248.7265,78.1969 L247.864727,79.2215647 C247.543255,79.6101041 247.2285,79.9996143 247.1145,80.1689 C246.2715,81.4139 249.4675,81.2629 246.4125,82.0549 C245.7205,82.2349 244.8005,81.0089 243.8415,81.1599 L243.223722,81.2625057 C241.873238,81.5076743 243.223851,81.5149541 242.9875,82.9509 L242.838049,83.841765 C242.40334,86.35479 242.0212,87.522 239.7955,89.7819 L239.60925,89.9607426 C238.440025,91.0358877 235.448444,93.1323444 236.3655,94.8399 C231.4485,94.3269 234.9995,96.7519 233.0645,99.1859 C233.0845,99.1599 228.3995,98.7949 227.5735,99.5129 C226.7955,100.1889 225.3275,103.9399 224.5005,105.3419 C223.6285,106.8219 223.3485,108.2489 222.7695,109.8029 C222.5485,110.9539 222.0825,111.9979 221.3725,112.9349 C220.9125,112.9889 220.5015,112.8589 220.1405,112.5449 C219.2655,113.5459 219.5065,114.4559 218.8235,115.6769 C217.807143,117.495543 217.49468,116.907742 216.13408,117.381693 L215.9785,117.4389 C213.7325,118.3069 212.6785,118.0349 211.3965,120.7489 C210.1285,123.4299 212.2765,123.5829 211.8905,126.4739 C211.4535,129.7579 207.3425,133.2859 205.6575,136.0509 L205.367805,136.54876 C204.350985,138.349547 203.014268,141.029454 201.5125,137.7609 C201.9835,142.5439 199.4305,146.2709 197.4845,150.3749 C196.6375,152.1599 196.0025,153.8579 195.4155,155.7449 C194.7445,157.9009 193.7045,158.5849 192.7865,160.3529 C191.7525,162.3439 190.1625,172.6779 186.8985,172.5689 C187.9495,173.7809 189.8435,179.6279 186.4975,178.8969 C186.5675,179.8249 186.5915,180.7539 186.5715,181.6839 L185.5815,181.6589 L185.5815,181.6589 L184.7245,181.7949 L184.7245,181.7949 C183.344255,179.678002 186.564333,170.367941 187.122168,167.951805 L187.660883,165.394136 C188.85225,159.781463 190.123625,154.3289 192.0565,148.8549 C196.6375,135.8799 202.4985,123.5019 209.6395,111.7379 C216.404731,100.593592 224.408021,90.2033675 232.626885,80.0835113 L234.827584,77.3882467 C237.449322,74.2836592 254.6337,55.89784 258.8085,61.0399 Z M693.1703,175.0424 L691.3143,180.0124 L691.3143,180.0124 C692.5773,178.1794 694.3463,177.2474 693.1703,175.0424 Z M343.2449,176.8998 C343.8479,177.2398 344.3579,177.6848 344.7769,178.2368 L344.485769,178.458711 C343.362206,179.285893 343.296122,178.908356 341.9989,177.8278 L343.2449,176.8998 L343.2449,176.8998 Z M585.1443,159.6123 C586.4223,162.2503 584.5043,166.2443 588.2293,167.2673 C590.9683,168.0193 593.9173,164.3823 596.5183,165.9353 C599.3883,167.6503 597.2673,171.1653 595.6733,172.9373 C592.7953,176.1373 588.8233,176.6013 584.7713,175.7013 C577.8283,174.1593 580.4483,162.3163 585.1443,159.6123 Z M385.7393,165.3004 C388.2553,165.6024 389.0383,160.7814 386.1063,162.4154 C385.0273,163.0174 383.4093,165.0214 385.7393,165.3004 Z M421.0463,124.2854 C419.3503,124.1724 420.7083,121.8684 418.4453,123.3924 C416.9923,124.3714 416.4183,127.7164 415.8913,129.2764 L415.548315,130.281092 C414.014639,134.719339 412.565403,138.076297 409.2863,141.8684 C405.3213,146.4524 400.6883,150.7754 396.4603,155.0604 C393.3973,158.1644 387.5273,158.1554 389.5703,163.7094 C391.9443,161.0534 393.0193,162.1314 395.4593,160.9024 C396.8443,160.2054 396.5603,159.4604 397.8133,158.1494 C399.3693,156.5214 401.1603,157.0364 402.8533,156.5554 C405.2723,155.8684 407.0083,154.5964 408.7533,152.7544 C412.6173,148.6764 414.7603,143.3414 418.4683,139.1284 C420.3753,136.9624 426.0303,133.0184 424.7353,129.2014 C424.3593,128.0914 423.6243,128.1114 423.3183,127.5654 C423.5453,127.9714 421.8113,126.4924 421.8963,126.5874 C421.1443,125.7434 423.7843,124.4664 421.0463,124.2854 Z M196.1545,148.2309 C195.8735,148.9499 195.6455,149.6869 195.4695,150.4389 C195.3405,151.4729 196.0425,151.9479 196.7365,151.1089 C197.2815,150.4479 196.3455,148.9319 196.1545,148.2309 Z M550.3103,121.6234 C539.2953,119.9574 517.6553,132.1934 532.5473,142.9684 C540.6913,148.8594 545.8133,138.8364 550.8463,133.9824 C552.6113,132.2814 557.2083,129.2094 557.4063,126.4534 C557.6483,123.0814 552.8943,122.0134 550.3103,121.6234 Z M301.7493,112.9964 C296.3843,112.5774 291.5583,117.8704 287.4583,120.5984 C284.3673,122.6554 277.2823,125.0044 278.1983,129.8424 C277.5403,129.1984 276.8823,129.1574 276.2253,129.7184 C275.6603,130.8184 274.9063,131.7494 274.9943,133.0664 C277.1013,130.9674 280.1483,131.9954 280.3913,128.2054 C283.0563,129.5414 284.5113,126.8674 286.1233,125.3824 C287.7503,123.8834 289.5763,122.9674 291.4073,121.7384 L291.54126,121.641881 C293.51474,120.135846 299.5353,112.293726 300.7113,118.7754 L302.9193,115.5374 L302.9193,115.5374 L299.0073,115.0304 L301.7493,112.9964 Z M206.8525,128.7809 C204.8775,127.9119 204.0095,128.5749 204.1505,130.7109 C207.3235,130.9559 207.7555,131.5769 210.2095,129.4659 C209.2635,129.1819 207.6145,129.1169 206.8525,128.7809 Z M213.9656,119.3463 C214.9176,119.7163 214.5086,121.1213 214.4096,122.1073 C214.5606,120.6063 211.6086,123.9673 213.9656,119.3463 Z M351.9923,88.7044 C348.5513,86.7924 343.0373,90.5444 340.0273,91.9954 C334.0933,94.8544 328.1383,97.6064 322.3013,100.6714 C316.1903,103.8794 310.5443,108.3704 304.0593,110.7994 C302.4953,111.3844 301.7883,115.2544 303.5503,116.0164 C304.8163,116.5634 307.6663,113.9184 308.6643,113.2364 C312.5363,110.5914 318.5913,108.6334 320.5833,104.1604 L321.4443,106.8744 L321.4443,106.8744 C322.783416,103.122726 324.815158,103.842586 327.874056,102.885685 L328.0943,102.8144 C328.7293,102.6014 330.9473,102.0964 331.1613,101.9884 C332.0313,101.5484 331.6883,101.3324 332.4533,100.9584 C335.8333,99.3074 343.5603,93.3214 347.1033,94.8514 C345.8183,92.6394 347.9693,89.0374 348.5833,93.0134 C350.2433,92.1194 356.6353,91.2864 351.9923,88.7044 Z" id="Ink" fill="#693e34"/></g></g></g></svg>