<svg viewBox="51.200000000000045 25.600000000000023 921.6000000000003 716.8" xmlns="http://www.w3.org/2000/svg" overflow="visible" xmlns:xlink="http://www.w3.org/1999/xlink" width="921.6000000000003px" height="716.8px"><g id="Master/Doodles/Coffee" stroke="none" stroke-width="1" fill="none" fill-rule="evenodd"><path d="M285.20391,455.105874 C289.872567,451.924069 299.420207,440.53401 304.422439,437.901701 C315.545277,432.048733 365.096993,420.542613 366.708116,419.862681 C369.162172,418.827519 385.103153,415.210002 394.390639,412.924596 C416.200315,407.557294 494.356383,372.889074 514.956332,364 C517.586172,370.920045 539.296191,401.468431 535.571507,404.598895 C523.309534,414.906113 501.330995,427.740182 487.127092,435.126467 C475.638845,441.100158 463.470992,446.043737 451.186872,450.080315 C437.240417,454.663613 427.6678,459.577664 413.768406,464.266422 C400.093239,468.87886 416.435617,483.305913 423.458673,486.286514 C431.335735,489.630671 443.536807,491.327726 451.5855,494.226458 C437.414817,516.250713 425.5141,542.981765 423.133403,569.364525 C422.560375,575.71426 417.720086,581.535313 409.847176,579.634278 C405.784766,578.653233 368.301246,573.660587 362.188944,572.26742 C321.386289,562.962061 248.137129,514.233118 267,464.266422 C271.321242,466.261815 281.187176,457.843642 285.20391,455.105874 Z" id="Accent" fill="#ece2d5"/><path d="M446.611099,36.7203021 L451.196062,37.9716602 C469.707136,43.0583162 490.078869,49.2426032 505.326009,60.9507192 C512.323684,66.3227599 518.969947,72.4306967 525.178682,78.698309 C534.338997,87.9456059 539.410158,100.055955 544.254916,112.009405 C556.5446,105.988943 568.295361,99.4283605 581.742064,96.443122 C594.537336,93.6036742 607.64374,89.7547993 620.514017,87.609593 L621.375797,87.4692316 C631.117681,85.920708 644.740383,85.0717681 652.736935,91.780596 C661.680569,99.2853467 666.340593,110.963877 671.679827,120.96512 C697.320375,96.6361211 725.919447,78.8871427 762.475979,80.0673533 C798.247738,81.2225712 821.771482,112.113541 826.107874,145.588478 C830.884571,182.47353 814.454342,221.01643 792.182068,249.580302 L790.8482,251.285513 C781.270592,263.484566 771.263862,275.186582 758.418772,284.318759 L754.570507,287.061738 C749.064025,290.979359 743.32851,294.950968 737.411857,297.945331 C733.767177,299.789236 729.782197,301.455416 725.955561,302.874446 C724.22906,303.514536 722.451167,304.157404 720.655218,304.591999 L720.137645,304.712618 C715.593422,305.727116 716.456091,304.332962 714.615938,308.66442 C713.068616,312.309188 713.258906,318.579577 712.596363,322.579797 C711.83937,327.152071 711.389341,331.786827 710.283713,336.29662 C708.368312,344.11378 706.373738,351.739328 703.974972,359.373208 C699.433011,373.820374 693.321505,388.381395 685.834909,401.559487 C691.652209,404.086075 699.603417,404.530805 706.113623,405.23053 C705.741158,405.054486 705.370246,404.798463 705,404.457041 L710,404.525041 C709.373914,405.002157 708.749066,405.326239 708.125687,405.46565 L707.859945,405.430578 C714.795502,406.284264 721.739732,408.025948 728.916123,410.013474 L737.239947,412.334331 C749.758792,415.835797 761.398131,419.247373 773.661425,424.645794 C788.263176,431.074023 801.328667,440.569773 815.323988,448.329726 L816.726711,449.099757 C830.087298,456.358747 843.592338,465.450533 856.000085,474.164653 C858.787688,476.122491 860.572993,477.838823 862.742575,480.235363 L863.129713,480.66553 C865.534035,483.348079 866.299363,483.872926 869.171771,486.197247 C870.467688,487.244163 874.234598,492.528729 875.713861,492.723117 C878.362643,493.074403 877.955672,491.097203 880.034974,488.336899 C884.376921,482.574694 890.432868,478.110721 894.744259,472.202726 C898.340324,467.276388 902.090567,462.287569 905.933871,458.051307 C914.935798,448.129476 922.444391,437.167367 928.912839,425.331088 L929.556233,424.144552 C932.653933,418.386235 935.899018,412.877596 939.241872,407.431375 L940.35971,405.618023 C943.485223,400.568137 948.652943,394.161512 954.618334,392.450741 C954.424636,392.350342 954.218276,392.234978 954,392.105573 L956.805593,391 L956.805593,391 C956.922465,391.407226 956.986647,391.752264 956.998125,392.035115 C957.364703,392.011368 957.734696,392.008319 958.106691,392.026163 C957.510819,388.964558 955.617641,388.454985 958.884519,386.58331 C958.985551,386.525379 959.091173,386.474711 959.200893,386.430876 L958,386.438104 C959.662549,385.196104 961.330392,385.354104 963,386.412104 L962.146644,386.41575 C963.91604,386.841374 965.745935,387.819573 966.707248,388.545236 C970.998966,391.788732 971.189482,398.081337 970.918631,402.807734 C970.221364,414.988895 967.672588,427.013158 964.11958,438.530625 C960.191437,451.268901 955.347477,462.627479 950.049535,474.653059 L947.284593,480.917674 C942.84652,490.920061 937.123579,502.715725 926.661601,507.059204 C934.256316,517.902404 930.864454,526.784321 925.859073,538.177275 L925.50736,538.976263 C921.711281,547.587634 916.697068,556.486422 909.060462,562.184756 C900.555294,568.531864 891.339732,563.289068 882.437063,559.067461 L881.772046,558.755365 C876.016495,556.104741 860.112435,550.137306 863.426955,542.40165 C859.272519,541.847646 856.65985,538.830472 852.87905,537.901577 C848.876013,536.918531 849.563558,538.544445 845.328561,539.153989 C842.081129,539.620519 837.22387,536.713036 834.166728,535.671673 C829.059453,533.934681 823.967457,532.153257 818.867127,530.396826 L811.286515,527.790907 C799.518889,523.762549 787.840365,519.885356 775.901848,516.623075 C748.929269,509.253007 721.623336,505.072285 694.745208,498.490875 C689.35736,497.171816 684.000069,495.898577 678.389983,494.841942 L678.137257,494.802101 C676.542771,494.58145 671.178487,494.216389 670.490861,493.04941 C669.211612,490.876434 673.143811,478.7161 673.481332,476.237658 C675.696754,459.970191 674.973096,442.161508 671.85206,426.078709 C670.556143,419.393163 664.76688,410.735972 664.816883,404.210101 C664.851607,399.832215 668.731025,395.051668 671.00895,391.08616 L672.421832,388.619045 C677.614499,379.517715 682.893631,369.836237 686.719689,360.482606 C692.936307,345.295154 696.80975,328.204386 699.614275,311.892196 L700.743841,305.228346 C701.947119,298.065018 703.106305,290.607198 703.426325,283.553704 C703.731901,276.833447 703.180476,269.784118 704.155539,262.901408 C700.435854,263.254083 695.173014,265.181297 691.822797,263.118011 C687.591968,260.514606 686.455783,253.082056 686.996096,248.643076 C672.510436,251.171504 672.991023,237.433853 673.888303,226.69116 C647.969251,226.69116 680.571401,188.561442 685.290773,179.692482 L685.425161,179.432752 C687.350285,175.592208 687.293337,179.906224 686.443282,173.966294 C686.069647,171.354558 684.284809,168.460959 683.275022,166.060272 C681.074879,160.818748 678.695559,155.657757 676.155117,150.573132 C670.786714,139.833216 664.705765,129.455694 658.069224,119.450286 C652.095227,123.612958 646.710156,128.540684 641.720944,133.828027 C644.921151,125.458252 654.699562,115.08906 650.517347,105.584894 C646.640707,96.7749694 633.694036,97.3859019 626.047708,98.9965422 C605.271364,103.377206 585.345075,109.757286 565.552128,117.144015 C571.575519,120.597976 580.741442,118.037157 586.838217,115.397149 L588.982935,114.454403 C596.00338,111.378221 603.467414,108.291603 610.946731,106.669299 L611.388047,106.576831 C618.416626,105.15634 627.306939,105.852614 625.300438,115.205693 C623.708436,122.621291 616.69113,129.774202 611.714266,135.449702 L611.077295,136.181506 C600.073805,148.929168 586.277079,158.797117 572.724814,168.656735 C558.157205,179.256414 544.120185,190.772493 529.367842,201.063929 C502.700839,219.669601 474.028151,235.839874 446.476368,253.20702 C432.620633,261.939682 416.980183,269.022202 401.914105,275.531773 L400.409499,276.18086 C383.329227,283.538431 366.953168,291.415295 349.232577,297.226097 C340.047723,300.239105 330.939097,302.75379 321.90331,306.061599 L319.968184,306.783025 C313.90668,309.083742 303.351831,313.694894 299.347405,306.862169 C291.213545,292.984281 320.647394,274.732672 328.713194,266.247652 C334.277443,271.651628 306.838167,291.788797 308.985529,299.65733 C310.673138,305.840245 317.199949,297.856468 320.351542,296.17085 C325.444927,293.446646 331.477261,292.077602 336.595648,288.970177 L339.713114,287.072086 C349.428158,281.105929 359.776857,273.95949 361.940343,262.068318 C360.27218,260.307722 360.293015,258.683197 362.002847,257.193354 C362.764008,256.288064 363.368214,255.29391 363.812687,254.209504 C364.559957,252.139276 364.859977,249.54559 365.260003,247.350398 C366.442024,240.860629 363.475165,234.784627 366.247567,228.433706 C351.474328,239.627897 337.223312,252.146276 323.165718,264.341208 L319.154242,267.81525 C305.558242,279.56346 291.379242,294.899016 286.142867,312.372766 L285.938204,313.072853 C285.289551,315.348577 284.211704,317.931155 284.329767,320.333231 L284.37179,321.080347 C284.624305,324.941573 285.246231,324.117974 288.830058,325.548373 C292.478294,327.003948 297.722793,326.941886 301.751879,327.077091 L302.248982,327.095143 C304.578299,327.185395 314.980361,324.719449 312.912171,329.830455 C311.720428,332.776816 304.50885,332.665737 301.926739,332.93788 L300.965775,333.032373 C295.108172,333.571065 292.088461,333.275492 295.002679,339.944165 C296.379157,343.091856 299.166838,345.224566 301.354479,347.661354 C307.440984,354.439928 310.746754,364.836889 315.534563,372.801227 C320.649478,381.306553 326.239276,389.421369 332.167765,397.365336 L333.357939,398.951916 C335.987275,402.438397 339.501392,408.990648 343.146072,411.47881 C346.54907,413.801742 342.544644,413.610131 348.197788,412.665963 C350.661836,412.256361 352.895314,410.652663 355.252411,410.079219 C368.405484,406.874415 381.900974,403.289821 395.491567,399.380752 L398.405203,398.538148 C417.046686,393.117511 436.610452,388.495251 454.396325,380.689199 C470.3293,373.694022 486.144212,365.367289 502.243865,358.283249 C506.945558,356.215798 511.641695,354.845365 515.296098,351.039533 C519.707495,346.44782 523.35912,340.435688 527.427439,335.499631 C534.345942,327.103474 540.722743,318.562915 548.170447,310.605519 L550.983794,307.589832 C556.664483,301.528233 564.731194,293.318035 571.359448,291.315325 C586.220131,286.826359 578.26545,309.461409 576.344492,315.181959 C579.837774,315.974783 581.674004,311.494148 585.774269,312.78266 C590.68292,314.326654 591.191286,320.855301 591.805215,324.945772 C591.967725,326.035731 590.49263,328.072635 590.94127,329.044573 C591.094058,329.376421 594.297043,331.270312 594.915138,332.147833 C597.158339,335.337179 596.716644,339.215212 595.866589,342.654484 C591.469082,360.468721 575.837515,373.477418 564.340938,386.618022 C569.484326,385.644695 573.297073,382.713607 578.151554,381.261254 C582.708793,379.897764 587.289645,379.968577 591.882998,379.578413 C596.691642,379.16881 601.311385,377.369336 606.231148,377.277696 C611.393982,377.181891 616.337358,378.652295 621.457133,379.235457 C634.276018,383.724423 646.028167,389.719893 655.4635,399.897473 C663.619583,408.697679 667.453165,424.204257 669.443571,435.739774 C674.370279,464.285596 664.864108,490.744528 658.595647,518.053212 C655.416275,531.906107 650.668745,545.236933 646.224013,558.731599 C642.343207,570.515655 639.015214,582.856492 633.657923,594.061549 C629.115962,603.562939 623.312809,612.929645 619.316717,622.786486 L619.18608,623.119909 C617.025309,628.808989 613.518397,646.177787 605.519991,640.57573 L605.270631,641.220224 C603.256112,646.367615 602.843322,646.058903 605.132466,649.947991 C606.803955,652.787565 612.350564,656.696431 615.200448,659.104522 L615.459523,659.325805 C622.809999,665.68228 632.120323,670.919638 640.743103,675.369726 C656.537181,683.52151 673.467443,689.619727 689.732384,697.050889 L691.095875,697.6805 C697.868098,700.849961 704.619193,704.81492 703.10686,713.629376 C701.755384,721.514571 697.192589,727.494767 690.075462,731.003464 C683.394474,734.298334 673.836911,736.842035 666.486435,737.875066 C662.125042,738.488776 661.124977,736.674028 657.569192,736.046434 C653.611991,735.349416 648.993637,736.697633 644.911428,736.66292 C626.585243,736.503245 610.53976,731.892093 595.730469,721.264644 C590.43846,717.467143 582.647678,707.164599 575.72223,707.165987 C572.181723,707.165987 572.928994,709.316748 569.814903,710.578879 C567.28579,711.603137 563.553713,710.681094 560.220512,709.734113 L558.08653,709.123484 C557.16679,708.865242 556.314665,708.642856 555.572315,708.507262 L553.81512,708.184291 C546.347544,706.792365 538.948108,705.041432 533.977863,698.612932 C528.183043,691.120678 530.242899,681.840057 532.733338,673.520267 C535.540464,664.141064 540.262991,654.62579 542.270066,645.104962 C542.758986,642.788972 543.209015,638.472179 542.71315,636.115923 C541.940878,632.460047 538.250361,630.27874 538.139243,626.320175 C538.104518,625.116361 539.828241,623.527936 540.129649,622.285244 C540.79497,619.555486 540.692186,616.722981 540.965815,613.944626 C541.410288,609.43963 542.385098,605.105612 543.144101,600.675517 L543.364581,599.343339 C545.068751,588.626653 548.365315,579.022962 551.624342,568.753557 L552.015141,567.51792 C555.215244,557.356515 558.264821,549.72937 564.297375,540.990615 L565.346548,539.48215 C569.16378,533.922662 578.759415,518.739634 573.674875,514.200172 C566.493176,528.307283 558.12165,539.378496 547.244994,550.600303 L546.499506,551.365697 C537.901728,560.152017 529.495628,571.962454 518.73521,578.218958 C506.903889,585.098892 492.446009,589.14632 479.381275,592.784145 C473.166984,594.512806 468.011095,598.349185 461.31205,599.0587 C454.051858,599.826531 446.662491,598.92124 439.552309,597.302269 C437.550791,596.846846 431.778195,593.771357 429.966967,593.967133 C427.298739,594.257326 423.46099,599.01288 420.533023,599.886236 C413.533438,601.974043 408.713733,598.093764 403.422389,594.398936 L402.011744,593.422928 C397.007359,589.991171 395.0398,589.078932 388.721243,588.621473 C380.760728,588.045641 373.010146,585.328995 365.186856,583.529125 L364.208546,583.309137 C349.868729,580.162834 337.680441,573.78692 324.646264,567.112483 C309.70502,559.46333 296.925026,548.913636 285.663186,536.452001 C269.107949,518.130967 246.05229,467.363863 273.095707,449.588503 C257.175232,447.426635 242.593733,440.474501 240.65333,422.454768 C239.639375,413.02558 241.547832,402.581411 243.918819,393.492401 C245.000833,389.342225 246.291195,385.218431 247.527386,381.111298 C248.458002,379.724204 248.951089,378.206592 249.002481,376.557074 C249.573351,374.420198 248.749687,373.355232 246.531488,373.364951 L245.894739,372.614787 C242.020842,368.011404 239.141729,363.777298 238.337902,357.172462 L238.28183,356.682661 C238.046316,354.490657 237.944424,351.44983 239.40186,349.707978 C240.128296,348.954031 241.004742,348.450012 242.028419,348.197308 C244.485522,348.337545 245.180012,347.126788 244.111887,344.566425 C245.30502,340.938319 243.535461,338.111368 248.031585,336.596533 C249.473345,336.903387 250.90816,337.2394 252.337419,337.601794 C254.161148,338.433496 255.347336,337.830894 255.898761,335.799543 C260.135146,334.141695 258.180853,331.691022 263.936781,333.823732 C267.420339,335.115021 270.734443,337.337983 273.270718,340.045524 C276.452868,338.003066 269.216289,325.37759 268.974607,321.349601 C268.402347,311.855154 272.327601,304.004671 277.434876,296.205562 C287.361907,281.05027 301.218359,268.017968 314.881743,256.292229 C341.05427,233.836293 368.549104,212.45782 398.101016,194.567217 C385.90995,186.100247 371.667362,183.805085 357.160868,187.740046 C343.78778,191.368152 332.94819,197.956504 320.637671,203.720097 L319.952692,204.036454 C308.753345,209.138419 297.056479,210.958536 293.49286,196.684653 C289.418985,180.369978 302.417048,174.313415 314.076136,166.997498 C311.288721,164.918318 302.384456,166.252865 298.449841,166.595661 L297.955648,166.635104 C289.881515,167.20577 282.160182,169.028849 274.313841,170.640877 C270.551098,171.412874 267.093929,171.239313 263.36591,171.996037 C257.823885,173.120708 252.0374,174.381451 246.430093,175.98376 C233.090341,179.799311 219.849206,185.589285 208.322072,193.391171 C198.358927,200.130868 191.447369,209.647531 183.42046,218.413024 L181.245409,220.78657 C172.843179,229.929263 164.417181,238.530931 151.922589,241.899214 L150.992882,242.146019 C144.853498,243.746165 137.895338,244.893052 133.607516,239.491585 C129.415578,234.213961 129.182229,227.85332 129.319738,221.399651 C129.622535,207.145484 136.509092,191.741654 144.519333,180.09367 C153.21434,167.450143 164.859537,160.209204 175.863027,150.031624 C159.95922,151.168791 144.588782,159.552452 129.962835,165.346592 C126.884858,166.567068 123.777713,167.937501 120.683068,169.066338 C117.382855,170.270152 115.196602,169.532868 112.035287,170.084096 C104.819542,171.34345 98.6219187,174.384227 91.6034091,169.535645 C78.3247722,160.364715 91.6284107,141.707668 100.770669,135.982953 C113.504826,128.010283 126.459831,121.296968 140.488516,115.609742 C132.89358,107.371872 139.380111,95.6155861 146.380564,89.7714611 C154.816295,82.7285463 165.447935,78.5494958 175.661007,74.747904 L177.189502,74.1801853 C185.630326,71.0491561 193.919751,68.0430904 202.688374,66.1589189 C211.626326,64.2389415 222.032304,61.3358415 231.183344,61.4262622 L232.037495,61.4436306 C240.808896,61.7157733 248.587177,60.1703917 257.471085,59.9232417 C264.86323,59.7177462 272.272042,59.8954721 279.662798,59.7038614 C296.228213,59.2759075 312.844712,60.1351844 329.166246,61.260772 L333,61.2548309 L333,61.2548309 C332.77719,61.3379134 332.554381,61.415323 332.331564,61.4829721 C334.54136,61.6392588 336.745547,61.7998287 338.943022,61.9615348 C323.544804,16.9330306 424.972199,30.838688 446.611099,36.7203021 Z M548.504179,653.99996 C547.898038,657.246287 547.713137,659.940077 547.864672,663.241236 C547.461505,668.214062 546.450806,673.109562 545.326108,677.960072 C544.92155,679.702038 542.64713,685.200688 543.046127,687.159169 L543.2133,688.037746 C543.558265,689.98784 543.136129,688.498392 545.663934,690.003395 C548.622349,691.76645 552.065954,691.659598 555.305196,692.195263 C557.30435,692.52566 564.629484,695.973037 565.86123,695.428936 C568.0147,694.477112 567.946579,691.121121 570.309974,689.791097 C573.529752,687.977429 578.274615,689.530998 581.312273,690.949596 C589.43262,694.737211 595.011623,702.578166 602.869216,706.870515 C616.538208,714.335221 632.705907,718.536346 647.99413,720.340866 L648.948468,720.450536 C657.147364,721.36772 665.532857,722.957338 673.646301,721.229672 L674.992595,720.925318 C681.456909,719.517263 689.548997,719.428138 692.999371,712.618017 L689.118473,711.560945 C657.484413,703.00515 612.410881,691.776235 600.37792,656.851216 C593.666085,662.936733 582.515901,659.799653 574.313435,658.888889 L573.942651,658.849064 C564.883897,657.911299 556.788574,658.12922 548.504179,653.99996 Z M551.004907,636.99996 L550.999855,639.188417 C551.015748,643.328851 551.457138,643.513453 557.219766,644.682211 C561.855555,645.622624 566.557549,646.15111 571.24264,646.80675 C579.491556,647.960412 588.649035,651.197554 596.999371,649.533949 L596.963745,649.311069 C596.728587,647.68304 596.111492,641.025195 595.292116,640.333792 C594.804731,639.924514 590.301353,640.472867 589.592814,640.466245 C582.576447,641.323213 575.838988,641.002678 568.815577,640.14306 C562.904982,639.419869 556.885922,636.99996 551.004907,636.99996 Z M248.387323,610.333813 L251.028164,611.212671 C252.418778,611.67281 253.638462,612.046695 254.457949,612.138012 L255.563585,612.646588 C258.733114,614.139607 263.674358,616.898101 261.436916,620.927084 C258.881448,625.530964 251.69064,621.335887 248.675471,619.183587 L248.135746,618.788259 C246.375452,617.472411 239.713174,612.318109 240.009587,610.520673 C240.418161,608.024413 244.507725,609.0718 248.387323,610.333813 Z M162.231126,601.899331 C163.73597,603.03081 168.902282,604.025294 167.862995,606.426515 C165.132641,612.733367 151.736926,598.32604 152.003937,594.085532 C157.450952,593.211554 158.721649,599.262174 162.231126,601.899331 Z M515.191975,366.99996 C494.465643,375.890076 474.748146,387.989895 454.326552,397.490063 C433.772766,407.052622 410.587661,413.799238 388.599242,419.178784 C379.240041,421.469251 368.480994,422.192994 359.898248,426.718468 C356.251137,428.64013 352.645771,430.864046 348.739842,431.976004 C347.586292,434.188827 346.450831,434.622796 345.332068,433.276523 C344.630754,432.490388 343.724891,432.157633 342.613085,432.279643 C340.407671,432.653353 338.161945,433.643743 336.071813,434.475465 L335.552635,434.679641 C325.374816,438.625289 315.585851,443.46713 305.902722,448.47945 L298.844995,452.145445 C295.001922,454.142108 291.152783,456.180495 287.500107,458.45363 C284.88966,460.078586 282.550556,461.717406 280.414609,463.948254 C277.854257,466.622776 278.463732,468.821735 274.319857,466.919483 C255.359334,516.838343 321.988333,558.869513 363.002675,568.165868 C368.684153,569.452522 374.227873,571.138483 379.882912,572.520804 C386.04863,574.027909 391.524167,573.728429 397.678753,574.359278 C402.575427,574.859798 404.908966,578.643504 409.523167,579.686138 C417.233445,581.427558 416.761728,575.633454 417.314152,569.424792 C419.654648,543.099678 433.089541,517.700734 447.309238,495.734716 C440.813735,493.410974 434.378067,490.875101 427.966053,488.330908 C422.479385,486.152747 414.077533,480.031433 408.178981,479.706997 C403.816642,479.468522 397.169466,483.193996 392.932361,484.828657 C386.346503,487.370169 379.742464,489.560218 372.912076,491.35033 L369.455279,492.235934 C357.453003,495.332077 344.322472,499.202176 331.993199,499.702312 L330.967656,499.7361 C327.131302,499.833154 316.607418,501.620328 313.84669,499.249446 C308.582661,494.728131 315.889406,490.959676 320.296274,489.345812 C346.560759,479.727794 374.447729,475.639061 400.787355,465.778409 C414.340525,460.702502 427.754546,455.035955 441.393989,450.036304 C453.150738,445.727122 465.465477,441.911526 476.827041,436.611009 C491.831542,429.61344 506.901442,420.895248 519.89384,410.624197 C522.494546,408.569432 527.943644,405.516401 529.72615,402.53824 C531.295757,399.916405 531.099556,402.531308 530.773946,399.352107 C530.540175,397.068573 527.746051,393.973947 526.596675,391.816583 C522.315043,383.773607 518.445292,375.511567 515.191975,366.99996 Z M276.917106,572.985728 C274.188027,573.256752 262.671173,569.636554 266.938077,564.789548 C269.93375,561.385384 277.896488,569.90365 276.917106,572.985728 Z M225,572.85234 C221.038247,573.417259 219.816072,572.474795 219,568.036545 C222.167598,567.707941 224.455952,569.618039 225,572.85234 Z M76.5197348,539.571308 C82.5295241,541.475834 105.697033,564.870834 89.1398753,563.974922 C81.9207649,563.425333 75.7435628,557.969248 72.5717083,551.50779 L72.4075542,551.166806 C69.7828764,545.608728 67.2986077,536.649608 76.5197348,539.571308 Z M958.999371,401.99996 C953.49769,404.511381 950.018452,413.933934 947.239291,419.139988 L947.076609,419.441279 C943.303264,426.344961 939.984065,433.590712 935.790213,440.279736 L934.406254,442.496545 C927.258375,453.987828 920.110975,466.010123 911.129241,476.033658 L910.254253,476.997354 C905.731004,481.913717 901.901591,487.444972 896.683105,491.875239 C894.298833,493.898565 889.737739,495.560434 887.981423,498.09063 C886.323226,500.479567 888.177659,502.007102 887.548301,504.861363 C886.902123,507.789022 883.940355,510.910567 882.669024,513.730205 C880.999613,517.433404 879.44514,521.144912 877.582296,524.766403 C875.549848,528.714727 874.994779,530.7796 874.446719,534.639291 C873.848198,538.859055 875.68441,539.29668 871.999371,543.185454 L898.792646,554.99996 L898.792646,554.99996 L900.218163,552.328505 C902.052974,550.546151 903.740606,546.150506 904.790471,543.796191 C909.177756,533.971774 914.132725,524.108579 919.154975,514.352021 C911.149932,503.052695 919.418492,498.125252 925.927933,488.74677 C931.133804,481.244815 935.923374,472.97563 939.222948,464.598423 L940.899038,460.331732 C948.475942,440.976191 955.201178,422.65388 958.999371,401.99996 Z M139,549.728384 C136.290546,550.811409 126.518706,548.583017 129.591128,544.338927 C132.517822,540.298973 139.004046,546.374183 139,549.728384 Z M169.394908,512.823212 L169.460047,512.899072 C172.360331,516.191683 181.843513,522.489733 178.163657,527.740455 C172.48727,529.032724 166.871592,525.293872 163.380765,521.07781 C161.209002,518.452449 156.153512,509.247498 158.700574,505.457969 C162.209925,500.234204 167.488162,510.553874 169.394908,512.823212 L169.394908,512.823212 Z M868.182922,498.99996 L854.999371,523.917742 L854.999371,523.917742 C858.128018,525.247576 861.392502,526.542079 864.804509,526.99996 C866.495907,521.341453 868.188765,515.714037 870.166443,510.141736 L870.572863,509.019782 C872.491706,503.818436 873.141493,503.085561 868.182922,498.99996 Z M452.358034,460.740105 L452.198454,460.802286 C447.773397,462.475031 443.598607,464.160106 439.268431,466.158906 C435.191273,468.041258 427.14559,469.723593 423.999371,472.712888 C430.350937,475.837812 436.835887,478.228426 443.474849,480.67247 C446.424428,481.757493 451.018622,484.600201 454.272098,483.886442 C456.937033,483.30009 457.790968,479.242211 459.190815,476.525541 C464.30892,466.58771 470.42122,458.570589 477.999371,450.376741 C474.521419,447.840606 457.031479,458.869529 452.358034,460.740105 L452.358034,460.740105 Z M209.447387,461.680485 C204.809269,467.121312 198.26417,454.168995 198,451.192417 C201.743791,449.624744 212.550014,458.043483 209.447387,461.680485 Z M85.3257786,433.683642 C89.446327,437.433421 97.7335183,448.093565 96.9471221,453.905522 C95.9148897,461.529051 87.5187484,459.365563 83.1663318,455.37984 C78.7049651,451.29414 76.7354826,443.839905 75.9993711,438.171913 L76.0734805,437.720267 C77.1178254,431.616034 79.4721055,428.357506 85.3257786,433.683642 Z M83.4668642,449.405711 C85.0777833,451.461222 86.7594725,447.590924 86.9993711,446.756416 C85.123364,442.408683 81.7635842,447.235188 83.4668642,449.405711 Z M261.613135,369.71686 L261.019462,369.987809 C256.120793,372.249804 254.940129,373.528932 254.081221,378.75241 L254.031042,379.06426 C253.119564,384.856352 252.273993,390.645674 251.262954,396.421145 C254.563906,394.700969 255.165481,390.985 257.317971,388.30917 L259.739697,392.714871 L259.739697,392.714871 C260.875539,392.077769 261.93706,392.111009 262.921456,392.817362 C264.514438,395.266051 263.511813,398.897535 263.022419,401.465334 C268.334231,400.969502 270.579271,406.895939 265.223989,409.296153 C259.676595,411.782238 257.174939,405.004022 256.987034,400.613556 C254.917279,403.08579 252.791432,401.76311 251.348493,403.03316 C249.964617,404.252408 249.385867,406.740418 248.887706,409.502195 L248.825803,409.848771 C247.983037,414.611803 245.82634,421.484199 247.821775,426.262467 C250.784779,433.359234 260.231895,437.051657 267.184367,437.922826 C282.107361,438.824464 296.254897,431.762323 305.438386,419.847123 L306.192607,418.866015 C308.202094,416.240638 310.167631,413.530268 311.37421,410.440168 L312.25624,407.796193 C313.680949,405.362739 313.056938,404.214569 310.385607,404.351685 C308.880967,402.288027 305.065381,401.59414 306.150741,397.853241 C306.968267,395.0306 309.984557,394.984895 312.606808,394.097107 L312.188848,393.403631 C311.114287,391.648075 310.312533,390.585349 308.650995,388.850707 L306.747524,390.566072 C301.755776,395.010578 294.569253,400.591728 291.565695,391.757833 C289.926437,386.9394 292.812316,382.332872 292.097157,377.684795 C291.802679,375.762408 289.365528,370.851179 287.953439,369.701625 C280.430242,363.577132 269.594875,366.111692 261.613135,369.71686 Z M273.15566,414.999998 C278.470883,415.006769 277.485469,421.151041 274.917375,424.449189 C267.972207,433.370565 252.45336,423.696719 258.284207,415.03113 C260.478473,415.77548 264.891354,418.022064 267.44799,417.724324 C269.49473,417.484778 271.181966,414.997295 273.15566,414.999998 Z M126.817511,370.071826 C130.696717,371.126116 131.33757,380.303824 132.917886,383.498473 C138.802826,395.392739 152.309826,402.800401 156.9676,415.077416 C162.166691,428.787326 146.448066,429.212911 138.107432,423.660964 C128.231478,417.086508 122.516978,400.990284 122.223822,389.517458 C121.6416,386.657197 121.878852,368.727365 126.817511,370.071826 Z M319.263317,405.99996 C320.783805,413.136832 317.355198,419.484597 314.999371,425.99996 L331.999371,418.386832 C328.931218,413.29186 323.412833,410.346329 319.263317,405.99996 Z M142.151405,412.99996 L142.075878,413.187813 C141.255305,415.32231 139.631533,422.416015 143.286595,420.748558 C146.616227,419.2286 144.459109,414.18738 142.151405,412.99996 Z M279.977079,383 C287.225312,384.870864 283.615386,400.814066 277.522215,401.910024 C270.34777,403.201533 269.097634,390.238287 270.515212,385.552372 C274.20744,387.745748 271.921437,395.572145 276.574326,393.409415 C279.532933,392.031806 279.083111,385.6662 279.977079,383 Z M534.29288,342.597132 C531.865515,345.40433 526.125708,349.141273 524.755713,352.415416 C523.940107,354.364705 523.823394,360.549658 524.217997,362.342838 C525.03916,366.092215 529.197776,370.582073 531.049909,374.073111 C533.393907,378.492513 535.435005,383.085983 536.463196,387.99996 C545.719695,383.811268 554.494055,376.38297 562.085995,369.732454 C570.803388,362.095551 578.617639,354.092551 584.999371,344.210718 C581.158939,344.406891 572.680531,356.758836 572.586048,343.311365 C572.537418,336.450862 581.938419,329.693971 584.856258,323.330805 C577.597785,319.233292 570.945111,343.718906 562.616764,337.784004 C554.594095,332.064616 567.25335,312.4018 569.69183,306.197506 C564.985771,303.067039 538.173606,338.1128 534.29288,342.597132 Z M175.86606,361.99985 C181.711552,362.051941 195.097795,383.056877 183.276614,384 L182.59485,383.678745 C178.409483,381.673814 174.603865,379.196355 172.906403,374.516977 C171.768176,371.375505 170.812495,361.956538 175.86606,361.99985 Z M63.3264265,315.507569 L63.4455673,315.819654 C65.3930393,321.143967 67.3315549,337.341939 57.1011308,328.316931 C53.915355,325.506199 53.4345924,321.995895 54.532237,318.137187 C56.1193326,312.544756 58.4290201,313.653564 63.3264265,315.507569 Z M118.428477,277.000748 C123.287917,276.92445 121.952519,282.415034 121.428382,284.459248 C119.836381,290.668546 119.17126,295.895315 119.524095,302.663047 L119.567493,303.421487 C120.044227,311.061375 123.66172,329.198731 111.667517,328.945363 C100.494055,330.196364 99.9347051,309.604513 101.848414,302.534701 C103.319528,297.098622 106.424402,291.270675 109.672163,286.745686 L110.121836,286.130396 C111.182032,284.724216 117.209937,277.020141 118.428477,277.000748 Z M111.2549,308.99996 C109.693066,310.698791 109.970438,313.126591 110.11658,315.99996 C112.260002,313.106123 112.47673,311.560014 111.2549,308.99996 Z M160.18524,293.401961 L160.343302,294.267153 C161.023555,297.858978 163.468866,308.061454 160.733595,310.211211 C156.683759,313.395198 150.241316,306.099876 148.938992,303.23601 C146.254641,297.340321 149.966113,291.540813 152.079006,286.00257 C157.82442,285.898751 159.341256,288.950436 160.18524,293.401961 L160.18524,293.401961 Z M745.420715,95.9212258 C730.0703,98.1013568 716.365166,104.954979 702.626795,111.912549 C695.702212,115.42044 689.857865,119.97058 683.513562,124.375193 C680.221616,126.662044 677.217732,126.958641 677.00307,130.957165 C676.841034,133.970264 682.049705,140.783693 683.458165,143.514054 L684.49477,142.46201 C701.453819,125.340967 719.816628,111.342943 745.344544,110.461439 C776.334821,109.39147 794.660036,138.775423 794.524314,166.913388 C794.391362,194.508054 782.48939,221.052154 763.516034,240.884001 C755.147146,249.631877 747.156607,256.702005 737.013128,263.124649 L736.084993,263.706771 C730.807076,266.985976 726.914076,269.929777 721.012946,272.107136 L720.310059,272.360654 C716.885592,273.567708 717.209772,273.068001 716.208671,276.700241 C715.30432,279.979446 716.22806,284.925974 716.255758,288.331302 L715.286317,289.987537 C721.827719,290.299528 727.930014,284.65847 733.525684,281.719486 L733.8899,281.531733 C740.979865,277.946863 747.307954,273.110754 753.528727,268.178595 L754.339577,267.534821 C765.772063,258.445628 777.354119,248.203309 785.863046,236.271492 L787.005415,234.658084 C805.624381,208.167233 822.164229,174.934885 817.062445,141.701206 C811.452149,105.151787 779.484121,91.082804 745.420715,95.9212258 Z M236.999371,227.875809 L236.290277,228.509254 C229.844717,234.231909 224.922895,237.740643 223.659851,246.803077 C222.669051,253.917325 223.654269,260.963395 223.696134,268.129125 C223.767304,280.141116 214.06723,292.769498 203.628941,279.000164 C196.01513,268.957011 198.74611,253.164576 204.95466,243.071331 C208.213136,237.775648 212.864315,232.537012 218.236964,229.236602 L218.55774,229.043565 C222.848755,226.512506 233.730896,222.018473 236.999371,227.875809 Z M204.009581,270.141668 C204.009581,277.78725 210.215254,272.611093 209.99357,267.173181 C209.669119,259.166606 203.720364,264.096826 204.009581,270.141668 Z M741.414922,121.509648 C727.377527,123.578257 714.656225,129.523606 703.226052,137.177324 C700.643793,138.906939 698.231,140.759764 695.819325,142.668001 L693.748523,144.315622 C689.65879,147.578566 687.208278,147.66447 688.231752,152.778495 C688.991729,156.580414 691.062252,160.519502 692.396373,164.167626 L692.695574,165.00679 C694.831156,171.143355 694.278523,172.674446 700.979404,170.530022 C705.770868,170.607612 710.137965,168.012497 715.134678,168.156593 C722.992401,168.383822 729.21229,174.476037 733.772155,180.350723 C742.796195,191.975396 740.49546,205.998438 735.961944,219.007265 C733.792958,225.224179 730.815454,231.191696 727.094616,236.634093 C723.800918,241.451613 717.912479,246.008651 715.613131,251.373459 C712.541962,258.539259 716.977408,257.432684 721.262641,255.749143 L724.154557,254.568512 C730.042996,252.190927 735.563927,249.235572 740.562027,245.254918 C762.838521,227.513089 779.785464,202.851878 785.46172,174.530073 C788.2312,160.712092 788.017629,144.558091 778.39171,133.279802 C769.592336,122.967235 754.401107,119.597604 741.414922,121.509648 Z M97.7647246,186.036042 C105.792093,187.659833 96.5179904,198.326296 95.1598641,201.132164 C91.2257188,209.257886 91.2174768,216.462355 91.3357885,225.027277 L91.3611092,226.840576 C91.4567921,233.967757 92.9377353,245.982981 89.3446273,252.433698 C85.559515,259.221707 77.4020227,254.945677 72.7352968,250.92021 L72.5701255,250.776569 C66.717758,245.644054 62.2977781,237.470924 63.0918036,229.653389 C64.4127992,215.951866 69.4254419,202.021151 81.2172912,193.484092 C84.1334782,191.372746 87.4323969,191.447754 90.6284922,190.115662 C92.5492912,189.315573 95.5840108,185.595715 97.7647246,186.036042 Z M636.092027,229.024837 C641.738586,230.278174 619.313992,249.893698 616.537575,252 C614.264889,247.357271 619.742211,244.334665 622.825534,241.342063 L622.982829,241.187292 C624.974134,239.198825 633.346852,228.415576 636.092027,229.024837 Z M703.215631,183.377839 L700.879914,183.926092 C699.046589,184.361805 696.957488,184.917907 695.568241,185.75219 C693.241671,187.14855 692.923651,190.419189 690.732378,187.698505 L681.999371,204.158368 L681.999371,204.158368 C684.896425,203.106943 690.807699,198.644965 693.973955,199.106262 C697.690836,199.648564 699.033689,204.094534 699.450086,207.624616 L699.501128,208.098493 C699.567768,208.781427 699.600423,209.419579 699.610448,209.975147 C694.672763,216.841966 686.253591,225.831029 684.49332,234.127455 C689.931748,230.935776 701.430696,215.578593 704.393307,227.811976 C706.0936,234.833946 697.371752,243.20102 695.229298,249.99996 C703.488426,247.282662 709.459496,238.986501 714.669508,232.28477 L715.267373,231.518978 C722.090863,222.822207 729.05802,211.357654 730.800158,200.298986 C732.208933,191.350095 726.000561,183.009341 716.776575,182.132461 C712.279021,181.704032 707.592102,182.366149 703.215631,183.377839 L703.215631,183.377839 Z M619.323112,199 C626.507939,205.146444 608.530938,221.984131 604.430754,225.800293 C601.105489,228.896091 597.52074,231.734813 593.9033,234.503052 L590.644902,236.980474 C588.989893,238.236184 579.959984,246.639365 577.668225,245.961118 C573.419889,244.703468 578.401692,239.816199 580.300828,238.049725 L580.626603,237.748609 C584.995947,233.720666 589.44637,229.795953 593.761401,225.71079 L595.60178,223.949414 C600.004727,219.689259 604.772888,215.743714 609.030563,211.346003 C612.48042,207.783163 615.377703,201.745675 619.323112,199 Z M383.000467,233.722859 C382.892739,237.615045 390.75554,245.099279 393.687386,240.609561 C396.152864,236.837978 383.202287,225.975491 383.000467,233.722859 Z M77.7365603,218.99996 C74.9015938,220.853103 74.1024602,222.671148 74.0045836,226.946012 L73.9999034,227.620029 C74.0143629,229.963648 74.336377,235.215016 76.5367085,234.993143 C78.8362325,234.7615 77.7365603,221.249002 77.7365603,218.99996 Z M407.999371,222.99996 C405.286125,224.595402 401.926591,225.35022 399.999371,227.920356 L406.942602,230.99996 L406.942602,230.99996 L407.78103,226.016552 L407.78103,226.016552 L407.999371,222.99996 L407.999371,222.99996 Z M393.215947,208.863476 C385.68317,213.690481 378.339887,218.882984 370.999371,223.99996 C373.809985,223.99996 376.361945,222.999223 379.155961,222.977644 C382.475584,222.949321 384.857413,224.312859 388.094046,223.534658 C395.048656,221.864965 403.120872,214.158481 408.999371,210.214876 C408.293951,208.541136 406.885878,202.5003 404.795899,202.024208 C402.759863,201.560254 394.726376,207.896457 393.215947,208.863476 Z M144.089674,214.235961 L144.025749,215.382544 C143.91392,217.908676 143.955103,223.318361 148.463574,221.70468 C151.196883,220.726678 149.501013,215.025417 149.245369,213.352624 C150.042026,213.212342 149.694232,208.851698 148.439794,208.294542 C144.882949,206.715778 144.251376,211.886334 144.089674,214.235961 L144.089674,214.235961 Z M619,150.61802 C603.022963,164.016859 587.854695,178.522858 570.482217,190.243055 C561.981058,195.978529 553.094373,201.053012 544.611373,206.882127 C540.290952,209.851078 535.88253,212.508813 531.089978,214.69146 L530.720331,214.857136 C526.69874,216.629918 524.190952,216.735389 527.600676,212.293991 C529.948761,209.236907 535.212048,207.106589 538.410808,204.933581 C543.333266,201.587313 547.981944,197.874747 553.160024,194.905796 C562.288363,189.668819 571.360828,185.441231 579.775382,179.018601 C587.244277,173.320308 594.949237,167.75559 602.077303,161.699259 L602.307467,161.49822 C605.612596,158.543016 615.357877,147.260016 619,150.61802 Z M308.031296,189.99996 C311.079377,189.742791 318.960626,183.653767 314.825429,180.57443 C310.65284,177.466965 307.654614,187.879651 308.031296,189.99996 Z M470.331988,168.747179 C468.520424,169.621721 464.714227,173.976048 466.435623,175.897151 C467.355067,176.924016 473.785709,174.683823 476.190198,174.677257 C478.152042,175.927353 482.661825,180.911981 484.999371,180.99996 L484.936262,180.613435 C483.881144,174.793674 477.563291,165.259111 470.331988,168.747179 Z M476,174.488209 L471,174.504209 L471,174.504209 C472.663757,173.086209 474.331006,173.240209 476,174.488209 Z M213.688475,158.30755 C207.487108,161.213042 201.895621,164.524944 198.999371,170.99996 C204.246261,170.568752 211.150495,163.898107 216.210045,161.405914 C219.634129,159.719655 228.950538,157.709644 229.963816,153.881119 C230.845818,150.554062 215.038144,157.675203 213.688475,158.30755 Z M105.000062,145.944436 C107.278315,151.755558 118.544953,143.835498 118.963636,139.572777 C119.823407,130.842905 104.882439,140.135952 105.000062,145.944436 Z M380.287479,124.869175 C381.464623,129.923491 388.16857,124.554217 392.368335,123.376195 C396.536471,122.206353 408.338167,122.050919 409.999371,117.364735 C404.181033,110.806531 376.912815,110.394768 380.287479,124.869175 Z M588.999371,120.060072 L592.896669,124.99996 L592.896669,124.99996 C597.078727,121.766355 602.162523,119.68029 607.5241,119.816902 L607.811094,119.829375 C610.580173,119.99322 615.793536,121.400424 615.995698,116.930291 C616.337689,109.401606 592.694266,118.583296 588.999371,120.060072 Z M741,109.527808 C739.080168,111.225808 737.006525,110.095808 735,110.193808 L741,109.527808 L741,109.527808 Z M237.280472,75.6443706 C224.704872,76.0150489 211.576875,78.627007 199.602836,82.5324432 L196.089111,83.6819272 C191.373093,85.2612848 183.155815,88.470032 185.370846,92.7720084 C187.157832,96.2427084 196.793238,91.3382754 199.706039,90.5204023 C212.189673,87.0146306 225.0439,84.7027011 237.830746,82.5927849 L238.158611,82.5442026 C241.605448,82.0810349 251.448134,81.9995779 251.97222,78.0741412 C252.636198,73.1220106 240.935862,75.6387591 237.280472,75.6443706 Z M759,79.6996857 L754,79.6946857 L754,79.6946857 C755.668175,79.0706857 757.334842,79.2756857 759,79.6996857 Z M414.715307,50.0467295 L413.407637,50.1093573 C409.969987,50.3116114 394.983778,51.5200212 401.719182,58.0034224 C404.162134,60.3537388 412.919088,59.6129393 416.535724,60.5702153 C417.182796,57.6004668 450.602522,66.3964331 455.246511,68.1725524 L455.523249,68.2839633 C458.065582,69.3545071 469.078544,74.9274153 466.652769,66.0847435 C465.244347,60.9455349 451.934621,57.0278724 447.669998,55.6193694 C437.09819,52.1299508 425.966511,49.6227021 414.715307,50.0467295 L414.715307,50.0467295 Z" id="Shape" fill="#a34f2b"/></g></svg>