<svg viewBox="51.200000000000045 38.39999999999998 921.6000000000003 691.2000000000002" xmlns="http://www.w3.org/2000/svg" overflow="visible" xmlns:xlink="http://www.w3.org/1999/xlink" width="921.6000000000003px" height="691.2000000000002px"><g id="Master/Doodles/Doggie" stroke="none" stroke-width="1" fill="none" fill-rule="evenodd"><path d="M883.0359,685.1717 C888.1629,687.8097 892.9549,687.8077 897.9979,689.8607 C903.0029,691.8987 904.3079,700.3477 908.5879,701.3567 C888.7469,703.4437 869.2049,707.8667 849.1229,705.6677 C850.8619,698.5817 847.7389,691.3297 851.9219,684.6807 C863.1059,674.0997 870.3769,678.6577 883.0359,685.1717 Z M799.251,198.1616 C799.509,203.1436 799.878,205.1236 803.414,208.3376 C806.185,210.8556 807.744,207.1016 808.007,212.0196 C808.159,214.8566 805.211,216.2806 804.07,218.5736 C798.382,229.9976 802.308,244.7526 805.103,256.1326 C810.771,279.2076 824.615,304.2966 814.86,327.7506 C813.877,330.1156 813.087,335.2426 811.187,337.0536 C808.682,335.7296 806.853,336.3086 805.699,338.7886 C805.007,339.5666 804.315,340.3446 803.623,341.1216 C799.239,345.1756 794.573,346.6826 788.754,344.5276 C777.022,340.1846 775.082,326.5586 775.021,315.8316 C774.952,304.0086 777.47,291.6266 780.162,280.1086 C781.459,274.5626 783.455,268.1246 779.739,262.8926 C776.229,257.9506 771.893,260.7366 768.437,258.5306 C764.758,256.1826 770.057,238.9256 766.432,234.3496 C760.103,226.3596 757.898,245.9056 757.797,249.8976 C757.687,254.2706 757.924,259.3726 759.985,263.3366 C761.604,266.4506 766.874,269.1836 767.778,272.3276 C768.624,275.2656 764.915,282.8976 764.342,286.0506 C763.46,290.9086 763.153,295.8716 762.9,300.7956 C762.045,317.4296 764.655,334.9356 776.105,347.8436 C781.125,353.5046 789.634,359.9326 797.594,358.9016 C804.62,357.9916 811.681,354.1976 818.234,351.6196 C822.641,368.5496 829.261,384.9456 836.314,400.9336 C842.444,414.8316 848.207,429.0656 854.647,442.7936 C868.219,471.7286 890.249,496.3776 907.462,523.1316 C924.08,548.9606 933.399,578.6006 935.634,609.0936 C936.162,616.3036 934.056,626.1706 935.736,632.9126 C937.311,639.2336 938.693,641.9786 937.662,648.8716 C936.516,656.5316 934.296,663.5956 935.25,671.3896 C936.096,678.3046 939.391,688.6076 935.79,695.0136 C931.463,690.4036 927.146,688.2336 924.522,682.0846 C921.857,675.8446 922.906,670.7166 916.866,667.9746 C911.706,665.6316 908.005,666.1416 903.452,662.3066 C897.921,657.6476 894.152,651.9536 891.427,645.2836 C886.776,633.9016 886.103,621.5626 890.035,609.8736 C893.188,600.5016 902.397,582.9576 915.308,589.2376 C913.39,585.2986 912.114,581.0166 908.455,578.4576 C905.269,576.2286 900.505,575.5026 896.947,572.9676 C892.969,570.1346 888.466,567.1106 884.026,565.0386 C882.302,564.2346 880.671,563.8306 878.89,563.2806 C876.754,562.6216 872.703,563.0946 872.439,563.0546 C864.813,561.9016 856.309,558.2306 851.652,552.6986 C848.147,548.5346 845.049,544.6476 842.373,539.8826 C838.899,533.6986 837.562,534.0726 830.897,532.6036 C821.211,530.4706 815.065,529.0156 807.317,521.8296 C798.724,513.8596 792.436,503.9276 786.148,494.1486 C782.464,488.4186 779.226,488.0686 773.222,485.7806 C769.731,484.4516 764.897,478.4976 761.719,478.0556 C760.802,477.9276 756.408,479.9276 754.922,480.1666 C752.266,480.5966 749.96,480.5196 747.299,480.2406 C741.193,479.5996 735.796,477.9826 731.691,473.2046 C719.048,458.4916 715.193,423.8086 732.503,411.2916 C735.801,408.9076 740.395,407.8096 742.341,403.8486 C744.573,399.3036 743.557,390.7416 743.378,385.9496 C743.175,380.4806 742.918,374.5286 742.101,369.1376 C741.725,366.6596 741.445,365.6176 740.434,363.1366 C738.428,358.2166 737.84,358.9326 733.709,357.7496 C727.816,356.0636 725.151,356.7266 721.538,351.1326 C718.656,346.6706 717.308,341.0496 717.046,335.7736 C716.802,330.8516 719.022,326.3026 717.168,321.8446 C714.454,315.3206 709.422,310.3826 707.215,303.2426 C705.355,297.2296 700.553,283.8086 705.287,278.2606 C707.408,275.7746 711.175,275.4106 713.278,272.0836 C716.942,266.2906 718.422,263.1226 723.86,258.5566 C727.872,255.1876 731.725,250.1676 736.561,248.1076 C741.317,246.0816 745.806,249.3426 749.667,248.4486 C753.876,247.4726 752.769,237.7116 753.937,233.3156 C755.512,227.3886 758.89,221.2096 762.98,216.5846 C764.346,215.0396 766.049,214.7426 767.112,212.6886 C768.554,209.9076 767.982,205.9446 769.105,202.9036 C770.446,199.2696 773.701,193.0136 777.34,191.0216 C787.971,185.2016 791.164,200.1986 799.251,198.1616 Z M774.3734,628.535 C775.8734,632.576 775.0434,639.071 776.7704,642.55 C778.1454,645.321 783.6664,647.079 786.3734,650.384 C792.1694,657.461 794.3774,668.828 792.2734,677.566 C785.1804,675.815 780.4374,674.695 773.2254,675.618 C772.4974,659.781 773.1784,644.367 774.3734,628.535 Z M686.7077,640.471 C691.5337,645.853 693.9277,652.195 693.2307,659.389 C692.9817,661.95 692.1987,665.54 691.4447,668 C690.6157,670.7 686.4957,675.755 688.0947,677.202 C683.5927,676.933 678.3027,677.456 675.0587,674.545 C672.1467,671.932 670.1097,665.197 668.9277,661.628 C671.2007,657.091 673.4747,652.554 675.7487,648.018 C677.2287,650.366 681.5747,656.498 685.1637,654.536 C687.8667,653.059 685.6847,643.457 686.7077,640.471 Z M856.0897,598.5229 C861.6127,603.6549 863.5007,612.9079 863.2187,620.0899 C863.3097,629.9889 859.8827,649.8029 847.0137,650.4669 C836.6717,651.0009 825.6407,636.1889 824.4777,627.0339 C823.2027,616.9979 826.5227,592.9969 839.6797,590.9329 C844.5237,590.1729 852.5987,595.2779 856.0897,598.5229 Z M763.6475,611.3223 C763.8675,617.8113 763.9765,624.0543 763.4615,630.5213 C763.0325,635.9283 764.4635,642.3133 763.2535,647.4903 C755.6025,638.9303 745.5235,629.6093 745.8295,617.0273 C746.1175,605.1333 755.9715,606.1453 763.6475,611.3223 Z M686.5364,468.317 L692.9404,475.337 C693.1234,485.2 692.9284,494.952 695.9314,504.462 C699.0914,514.469 704.3864,524.113 709.6284,533.161 C719.8184,550.747 722.2484,567.334 723.4764,587.446 C704.3124,578.86 693.8614,549.522 687.5384,531.17 C684.1904,521.455 680.7184,511.731 677.5604,501.955 C674.4464,492.314 668.9424,479.717 672.5654,469.561 C679.5274,474.679 682.5384,477.317 686.5364,468.317 Z M805.9549,537.5423 C815.3119,544.9843 816.0199,556.3723 819.3789,566.7793 C817.4419,568.3263 815.3149,569.6883 813.5649,571.4523 C812.4849,572.5423 809.9379,577.0023 809.1079,577.4603 C805.7929,579.2933 802.8969,576.9403 799.6579,573.9843 C793.2819,568.1613 789.3019,555.8033 789.6009,547.2573 C789.9499,537.2753 797.0069,530.4253 805.9549,537.5423 Z M936.8818,493.8111 C949.0448,500.7791 945.8718,520.0571 944.3548,530.9311 C943.4028,537.7471 945.5128,544.6811 945.3658,551.1651 C945.2018,558.4831 941.4048,556.9671 938.9758,561.5091 C936.8668,556.0001 932.9988,549.3691 932.1188,543.5931 L930.7208,539.9391 C931.9048,539.4641 932.5338,538.6381 932.6068,537.4611 C933.1038,534.6621 933.0968,531.8081 933.2528,528.9541 C933.8968,517.1601 934.7888,505.4421 936.8818,493.8111 Z M751.5679,506.8301 C750.2219,511.9631 749.2359,521.6221 741.6729,518.6451 C735.7049,516.2951 734.2639,506.8101 734.250798,501.5231 C734.2409,497.1831 734.9549,489.2091 741.0259,488.9491 C748.4779,488.6291 751.1389,501.8171 751.5679,506.8301 Z M693.9974,363.9259 C688.9664,371.9839 685.4744,383.8869 687.8514,393.4279 C690.3464,403.4469 698.1074,405.8719 705.0104,398.4999 C710.7074,407.4689 699.0284,423.4419 688.5864,414.9139 C686.3294,413.0719 684.8144,409.5449 682.0234,408.3959 C679.7354,407.4549 677.7084,408.7339 675.3724,408.2029 C668.1864,406.5699 665.4724,399.5119 662.6494,393.5879 C663.4244,388.7589 664.2454,383.9719 665.2904,379.1909 C665.8464,376.6489 666.4254,374.1109 666.9884,371.5699 C667.9454,367.2529 667.6474,367.7919 670.7774,365.6519 C679.0324,360.0119 684.7104,359.7329 693.9974,363.9259 Z M698.2594,368.2752 L704.2974,381.7032 C701.0074,380.9102 697.4234,390.7832 695.2744,392.7072 C694.2694,384.4912 696.6764,376.2652 698.2594,368.2752 Z M694.9129,322.4115 C700.3729,324.7115 701.4589,334.6795 701.6519,339.5015 C700.1509,344.5775 698.7489,351.0715 692.4039,347.4965 C688.1699,345.1095 686.3549,337.2505 686.2109,332.9575 C686.0289,327.5745 688.0509,319.5195 694.9129,322.4115 Z" id="Accent" fill="#ed6045"/><path d="M367.705677,46.3387746 L367.5994,46.2548 L372.5444,46.7588 L372.5444,46.7588 C372.085488,46.744148 371.619315,46.7996554 371.152643,46.8598455 C377.729031,48.1038409 383.936491,50.7797819 389.1327,55.4007 C394.6477,60.3047 398.0107,68.0997 399.8907,75.0627 L400.046337,75.6729807 C401.657819,82.3688511 401.09746,92.64733 394.4937,82.6767 L392.330245,79.3724474 C388.828437,74.0414574 385.233764,69.0358277 379.2037,66.3747 C372.7097,63.5097 364.7797,61.9627 357.7047,62.5707 C341.0307,64.0027 327.5187,68.8987 315.9767,81.2397 C303.2147,94.8847 302.5657,116.6697 305.3167,134.0207 C307.7407,128.8887 309.3827,120.7627 316.1787,119.7827 C321.8427,118.9657 330.7717,126.1977 327.7317,132.4237 C313.9387,128.9077 309.9047,149.7657 321.8317,151.0217 C325.4427,151.4017 330.0157,144.9737 333.3407,146.4707 C339.5587,149.2687 331.2257,158.9107 329.5827,162.0857 L326.9637,163.6977 L326.9637,163.6977 C327.8237,165.6957 328.6917,167.6907 329.5687,169.6817 C330.6317,172.2207 331.6437,174.7657 332.5777,177.3557 L333.783015,180.710185 C335.651845,185.954551 337.449465,191.316406 338.5777,196.7237 L338.759042,197.620238 C340.026038,204.089667 340.546433,211.474456 337.4017,217.4677 C333.7847,224.3617 330.3777,223.5137 327.5987,216.9557 L324.475333,218.929446 C318.209741,222.8747 311.789129,226.688129 304.4597,228.2387 L305.08963,229.28478 C313.969769,243.8798 325.440607,256.325747 342.4887,260.9477 C357.2817,264.9587 375.9027,264.8117 390.0177,258.1767 C404.51823,251.36055 412.562841,235.520619 411.030082,219.670015 L410.9807,219.1897 C410.599697,215.693236 409.103223,206.364767 410.370382,204.654815 C409.864937,204.471775 409.45861,204.130621 409.241593,203.568652 C408.42509,203.310638 407.688982,202.960613 407.0747,202.4927 C400.252851,197.297173 407.863545,194.235995 412.391175,193.528922 L412.5377,193.5067 C431.228617,190.757953 449.86592,189.1052 468.675379,187.900798 L464.7684,187.9854 L464.7684,187.9854 L465.345142,187.758978 C466.755351,187.223425 468.169544,186.871052 469.611392,187.840015 L472.4397,187.6657 L472.4397,187.6657 C473.3817,187.6087 476.8317,186.9077 477.9797,187.2697 C480.5957,188.0957 479.5407,189.0537 481.1087,189.9057 C484.0127,191.4837 487.3267,192.6457 491.0117,193.6247 C501.054473,196.2917 511.16376,200.684431 521.24302,204.282385 L524.132275,205.301403 C542.823343,211.945824 564.850611,221.939662 583.3657,220.1287 L584.820623,219.9812 C588.876869,219.559088 592.424595,219.1347 596.8097,219.5597 C602.5497,220.1167 605.8997,223.0607 610.3097,223.9167 C616.2177,225.0627 624.6687,224.2017 630.8877,224.4217 C636.8177,224.6317 642.7517,224.9067 648.6847,224.9067 C643.648367,214.7799 640.515497,205.251144 637.667383,194.464159 L637.3737,193.3437 C635.7767,187.2077 633.3737,181.6347 634.4147,175.1727 C634.9067,172.1227 636.1257,169.2567 637.4547,166.5017 C639.4607,162.3427 640.0307,163.2127 640.7427,158.6067 C641.7227,152.2677 640.3177,145.5837 641.0877,139.2257 C641.8777,132.7007 646.8087,126.8847 647.3577,120.6467 C647.6507,117.3277 645.7937,114.6187 646.3497,111.0387 C646.8467,107.8367 648.7427,104.4797 650.4457,101.7837 C654.4117,95.5017 659.2417,91.9397 665.9437,89.3807 L666.584158,89.1397888 C671.867792,87.1837246 678.42019,85.5673275 683.6507,88.7677 C689.2047,92.1657 688.8037,99.0047 691.4647,103.9947 C697.1867,114.7247 710.3887,124.3137 720.9127,129.7937 C730.5807,134.8277 740.9957,138.0077 751.3617,141.2907 C757.6707,143.2887 764.1577,144.7137 770.3577,146.9967 L770.884838,147.196292 C775.376503,148.937912 782.273508,152.534546 786.6437,150.2057 C790.6047,148.0947 795.2247,141.6527 799.1447,138.6617 L799.633112,138.29397 C804.160542,134.931008 810.051332,131.854647 815.6237,134.7957 C821.3987,137.8427 820.9247,149.0747 825.4167,151.1867 C826.9817,151.9227 831.6297,149.7667 833.7637,150.1067 C837.2097,150.6547 839.5827,152.7877 841.6487,155.4137 C849.361527,165.222665 851.752734,180.7789 852.091283,192.873775 L852.0784,190.3917 C852.952537,192.037134 852.978913,193.683545 852.135289,195.333835 C852.161155,200.861409 851.629616,207.118694 848.4237,211.5757 C844.1197,217.5597 835.9737,217.7077 830.4487,221.9187 C826.0297,225.2867 822.8987,230.7927 818.4137,234.3817 C817.440335,235.160955 816.677577,235.454836 816.047821,235.659317 L816.1159,235.6629 L816.1159,235.6629 C817.1519,244.6229 817.3649,253.9279 819.2109,262.7579 C818.986794,262.455173 818.714345,261.925227 818.4121,261.21829 C821.05535,269.431665 824.290998,277.432567 827.4187,285.5997 C829.7187,291.6067 831.6697,297.6147 832.7197,303.9807 C833.4077,308.1577 832.6137,311.8097 832.9467,315.8287 C833.1827,318.6897 834.3997,321.1607 834.1317,324.0947 C833.5647,330.3077 830.1907,335.7957 828.0447,341.2607 C825.5987,347.4907 828.9587,358.2797 831.4227,364.7227 C837.3267,380.1587 845.6297,395.7537 853.0067,410.5847 C860.2527,425.1537 865.6427,440.6687 874.0847,454.6647 C882.2837,468.2567 891.9307,481.5657 901.2597,494.4207 C906.102767,501.094967 911.221976,507.465216 915.706725,514.382696 L916.6577,515.8737 C917.419211,517.088563 921.467675,524.866904 924.255281,528.626569 C924.078684,526.033502 925.466464,521.897594 925.6387,521.2349 L926.5237,530.6437 C924.2917,506.9087 926.5487,482.2237 927.5467,458.5047 C928.774571,429.292587 925.136295,402.787008 917.061401,374.946976 L916.6607,373.5767 C914.87045,367.502867 913.258339,361.299631 911.943756,355.092543 L911.5927,353.3997 C910.6307,348.6587 907.9147,344.7627 914.5817,346.8357 C925.496666,350.228149 935.118196,370.640583 940.758948,379.86752 L940.9497,380.1777 C953.5187,400.4947 964.0177,427.5887 965.4267,451.4187 C966.8097,474.8087 965.6167,497.1887 962.6937,520.2337 C961.2507,531.6027 958.9207,544.2767 955.3587,555.1497 C953.5267,560.7427 951.3267,566.5357 948.8867,571.8947 C947.8567,574.1567 945.5957,576.7127 945.2047,579.1977 C944.5867,583.1407 947.4757,588.4607 948.1987,592.3547 C950.5607,605.0957 951.1037,618.2997 950.2987,631.2297 C949.885658,637.875742 948.988618,643.848594 946.922834,650.07504 L946.6467,650.8887 C944.3403,657.5359 944.73662,662.92742 945.601804,669.20342 L946.3037,674.1097 L946.421159,674.983498 C947.652922,684.536668 948.525935,704.270129 939.2867,709.3187 L937.2647,709.1107 L937.2647,709.1107 C935.5617,707.1477 934.0497,707.2637 932.7297,709.4607 C930.2647,710.2647 927.8567,712.3357 925.2607,713.2267 C919.2357,715.2957 912.7347,715.4217 906.4507,716.3307 C894.1517,718.1117 881.8937,721.2527 869.8097,721.6327 C855.5017,722.0827 840.5757,721.5217 826.5857,719.0137 C823.6937,718.4947 820.3137,717.1237 817.4217,716.8607 C813.4967,716.5037 810.7417,719.1137 806.6897,718.4997 C800.4097,717.5487 796.4417,710.9027 796.0307,705.4567 C794.7227,688.1027 804.3507,680.1447 820.0847,677.0627 L819.257186,675.888108 C809.291571,661.857308 798.139592,650.061484 795.5077,631.8737 C792.8447,613.4817 798.6197,592.1957 809.1087,577.4607 C819.1767,563.3157 836.3567,553.8587 854.0737,557.4477 L854.603149,557.559338 C863.829903,559.572436 900.93972,570.82654 893.5907,583.5587 C891.9277,577.6157 881.7007,578.7657 876.7597,577.9077 C868.5617,576.4837 860.3657,574.3367 852.0487,574.7787 C835.6907,575.6487 819.8807,585.3247 811.9597,599.9717 C802.91902,616.68983 806.91269,633.373657 817.660935,647.695432 L821.016474,652.098612 C830.14485,664.03839 839.7555,676.1136 851.9217,684.6807 L851.645516,685.130675 C849.370283,688.929483 850.061441,690.112144 845.0627,689.3957 C841.4987,688.8847 838.1647,686.1057 834.5627,685.4137 C827.0937,683.9797 815.3377,690.0997 810.7227,696.2197 L810.446183,696.593674 C808.008854,699.961645 808.273121,701.70084 813.1247,703.8497 C816.8347,705.4927 822.6767,704.6437 826.6617,704.9997 C836.5747,705.8847 846.6787,706.1807 856.6237,706.1457 C873.8387,706.0827 889.8487,703.3207 906.8857,701.5327 C914.4367,700.7397 922.3337,701.6537 929.7217,698.8747 C939.7287,695.1117 937.2767,684.0587 935.9797,675.1047 C934.928336,667.848245 935.612783,661.92394 936.659934,655.199006 L937.3967,650.5737 C938.0007,646.7587 939.1287,642.3547 938.3297,638.5147 C937.3817,633.9527 935.6807,631.9337 935.8977,626.8457 C936.6697,608.7387 934.3977,589.6697 929.5987,572.1937 C919.282057,534.624016 894.241564,504.8919 873.147805,473.005573 L872.4967,472.0187 C866.5017,462.9067 860.1987,454.2727 855.4257,444.4047 C850.9047,435.0557 847.7907,425.1677 843.3007,415.7927 L841.923478,412.905422 C832.539287,393.147664 823.748723,372.810933 818.2347,351.6187 C811.6807,354.1977 804.6197,357.9917 797.5937,358.9017 C789.6337,359.9327 781.1247,353.5047 776.1047,347.8437 C764.6557,334.9357 762.0447,317.4297 762.9007,300.7957 C763.1537,295.8717 763.4597,290.9087 764.3417,286.0507 C764.9147,282.8977 768.6237,275.2657 767.7787,272.3277 C766.8737,269.1837 761.6037,266.4507 759.9857,263.3367 C757.9237,259.3727 757.6867,254.2707 757.7967,249.8977 L757.81161,249.497588 C758.034652,244.757722 760.29257,226.59937 766.4317,234.3487 C770.0567,238.9257 764.7577,256.1817 768.4367,258.5307 C771.7477,260.6437 776.3077,258.0617 779.7397,262.8927 C783.4477,268.1137 781.4617,274.5487 780.1617,280.1087 L779.660402,282.27496 C777.16945,293.156329 774.956012,304.760763 775.0207,315.8317 L775.03288,316.892268 C775.217498,327.461435 777.386852,340.320515 788.7537,344.5277 C794.6897,346.7247 799.1957,345.2137 803.6227,341.1217 C804.6377,339.9537 805.6727,338.8047 806.7277,337.6737 C807.6967,336.0087 809.1827,335.8017 811.1867,337.0537 C812.6697,335.8757 814.8677,327.7357 815.6097,325.9167 C824.6187,303.8397 810.647295,278.52445 805.263194,256.79021 L805.1027,256.1327 C801.8857,242.7497 799.0807,229.3257 805.5927,216.4097 C806.6467,214.3187 809.5507,212.5017 807.8087,209.5017 C807.3497,208.7127 802.9657,208.3427 801.9277,207.4257 C798.5457,204.4407 799.2507,198.8757 799.2507,194.8907 C791.4297,197.3027 789.1757,191.2177 790.1927,183.7597 L789.667249,183.845896 C784.114862,184.784985 780.241245,186.264155 778.1467,179.7187 C776.2317,173.7327 779.1237,167.6287 781.0427,162.0507 L776.162749,161.518122 C750.578848,158.659152 723.60598,154.33314 703.3847,136.8247 C698.0807,132.2317 693.6697,126.4507 689.9937,120.4617 C689.3297,119.3787 686.2017,111.7547 685.1647,111.3567 C682.0837,110.1737 679.4987,116.2017 676.7607,117.6947 C674.3267,119.0207 670.8667,119.7517 668.1627,120.5597 C665.6177,121.3207 656.6467,121.4727 655.0557,122.7937 C651.69401,125.585813 651.397426,139.659258 651.367509,146.628349 L651.3607,149.6317 C651.2527,164.8997 654.6607,180.1147 660.9637,194.0157 L661.805684,195.858418 C667.744074,208.749507 676.530685,225.507146 687.8557,233.6797 C690.8557,235.8457 693.5567,236.9687 697.3587,236.7897 C700.0747,236.6627 702.7677,234.7607 705.5957,235.7497 C712.7527,238.2537 710.1927,243.2287 704.6907,245.5807 C688.9647,252.3067 675.7107,237.5207 666.6167,227.1907 C663.9537,239.4467 676.3017,253.9497 682.8357,263.9497 C686.403986,269.412271 689.937741,274.879251 693.368954,280.424948 L696.101,284.886667 C699.005463,289.696863 702.50019,296.24842 693.5637,293.0017 C688.7197,318.4237 675.4257,340.6567 668.6367,365.3617 L667.931174,367.952844 C661.261816,392.68196 655.5917,420.573954 655.5917,446.0887 C660.8987,442.3947 663.5747,425.5597 670.7127,438.4447 C671.4847,439.8387 671.2427,442.1457 672.2607,443.3637 C673.6687,445.0487 675.3627,444.5807 677.5197,445.7817 C680.9397,447.6847 683.1457,451.4787 680.0887,454.7687 L680.526845,454.672756 C684.327689,453.89304 688.182144,454.492181 688.9997,458.9767 C689.4757,461.5907 685.6477,473.6997 682.7917,474.6887 C674.0847,477.7027 664.4307,460.3207 662.0727,454.7917 L661.724425,455.138322 C656.367587,460.423483 650.26004,464.261828 645.3537,455.6197 C641.6177,449.0397 643.7857,439.0847 644.3127,431.9217 C645.3747,417.4917 646.7607,403.4167 648.8427,389.1257 C652.7467,362.3277 662.6557,338.4947 674.8267,314.3737 C678.1777,307.7347 681.8907,300.9387 684.8837,294.1457 C689.30742,284.10168 682.612589,286.223047 675.845037,287.712413 L675.4307,287.8027 C661.9047,290.7197 647.7417,292.9827 634.0747,294.0157 L632.516904,294.128577 C625.647195,294.60944 617.315057,295.022986 610.9497,296.9377 L610.234349,297.147535 C606.283641,298.278073 606.832492,297.681511 605.120089,302.28266 L604.667339,303.479056 C603.884389,305.505384 602.9741,307.579433 601.6507,309.2937 C593.8627,319.3857 573.6907,317.6967 562.5507,316.9447 C563.2257,312.6887 563.8927,308.4307 564.5927,304.1787 C556.0167,306.1937 545.8307,307.5967 536.9987,307.4937 C532.2437,307.4397 527.1867,306.7147 522.4437,306.3197 C518.9467,306.0287 512.3167,303.5497 509.0257,304.5137 C505.2097,305.6327 499.4387,319.4297 497.2567,323.8787 C493.1597,332.2337 485.8387,341.5157 483.2537,350.3127 C480.9617,358.1117 485.6387,371.5677 487.1077,379.3307 L488.20782,385.185547 C489.86099,393.964633 491.591917,402.715784 494.268668,411.255418 L495.905961,416.331674 C498.288688,423.623644 501.445372,432.021274 508.1977,435.3757 L509.2606,435.899761 C516.43625,439.406508 521.885198,441.372445 529.725678,440.755469 L530.3037,440.7057 C544.995886,439.332398 560.604894,441.503314 575.160809,444.329737 L576.1987,444.5327 C591.4907,447.5437 605.4937,448.8997 620.0147,454.2657 C652.9497,466.4387 673.9227,503.9367 661.5047,538.2887 C654.3627,558.0467 642.5967,572.7307 625.3367,584.9537 C616.5417,591.1827 606.1507,596.2357 596.5087,601.0357 C592.450617,603.056033 588.455554,605.471297 584.342503,607.36797 L583.2177,607.8717 C579.9207,609.3027 574.2537,612.5967 570.6717,612.9577 C574.6477,614.8487 578.1657,613.0777 582.3027,612.4907 C588.1557,611.6577 594.1327,611.4797 600.0067,610.7537 C607.6267,609.810367 615.152256,609.060089 622.74251,608.179371 L627.3057,607.6327 C635.1127,606.6637 643.9217,606.3197 651.6807,607.4357 C655.4287,607.9747 661.0697,609.0387 664.4077,610.8447 C667.0327,612.2647 669.4397,615.5367 672.2627,617.1577 C675.3677,604.4067 673.9157,588.6887 674.0607,575.5857 C674.1797,564.8897 674.6567,554.4297 675.6637,543.7837 C676.770575,532.089325 669.764161,518.818786 666.965128,507.300228 L666.8167,506.6737 C664.2997,495.7587 657.5937,481.9257 660.0617,470.5327 C663.14357,456.31531 671.159263,481.458736 672.406004,485.542459 L672.4417,485.6597 C675.65645,496.23895 679.345117,506.587124 682.930779,517.023106 L684.863351,522.672654 C689.181052,535.249882 693.651045,547.461459 699.9197,559.2977 L701.22947,561.767377 C706.543351,571.743031 712.847469,582.683623 723.4767,587.4467 L723.313407,584.81566 C722.389923,570.258141 721.105587,556.671775 715.0037,543.1397 C708.8707,529.5377 699.5177,517.4417 695.4287,502.8667 C693.475815,495.902277 693.125187,488.786227 693.011315,481.598559 L692.990934,479.873502 C692.972963,474.980958 693.464958,469.241588 698.5597,474.3637 C702.8407,478.6667 703.6717,492.3927 705.5457,498.1867 C706.335825,500.6262 707.391622,502.891138 708.311137,505.236083 L708.6962,506.247 L708.6962,506.247 L709.219234,507.446232 L710.826064,510.876686 C711.500989,512.33596 712.088303,513.673833 712.160296,514.135069 L712.167565,514.20721 C712.168332,514.210667 712.170367,514.215333 712.172402,514.22 C719.4736,520.1324 725.1816,532.2184 727.0186,541.2974 C730.3317,548.9207 734.0987,556.4297 736.0857,564.5367 C738.1128,572.811367 737.336567,580.53658 737.586073,588.877592 L737.6157,589.7427 C738.139935,603.287171 737.148544,616.756347 737.198505,630.309467 L737.2207,632.8517 C737.3927,645.1347 736.9217,657.1107 737.0447,669.2637 C737.11295,675.9907 736.799153,682.695497 736.737055,689.414266 L736.729852,692.341634 C736.756212,692.947278 737.00725,699.20925 736.5047,699.5427 C734.1317,701.1187 731.5387,698.8807 730.8117,696.7257 L723.7777,704.6837 C727.4647,703.7577 731.9987,701.8227 735.7887,701.6517 C737.2397,701.1177 738.6847,701.1027 740.1247,701.6067 C741.5537,702.4707 742.6127,703.6747 743.3017,705.2207 C753.2327,707.3357 759.1927,698.4967 760.9767,690.5937 C764.8457,673.4467 763.4517,656.5177 763.1707,639.2067 C762.5627,601.5987 768.5377,564.2157 767.9727,526.6047 L767.899348,522.246852 C767.80738,516.44666 767.8045,510.6809 768.6797,504.8697 C770.6894,491.50965 773.647837,503.483225 774.173518,509.903867 L774.1887,510.0967 C775.595619,528.717457 778.017375,547.915686 776.871543,566.676346 L776.7677,568.2387 C775.796239,581.766649 775.652097,595.391857 775.226256,608.98731 L775.130185,611.90312 C775.030588,614.772109 774.914904,617.639367 774.7727,620.5037 C773.8537,639.0007 772.3737,657.1057 773.2257,675.6177 L773.987677,675.527899 C779.647969,674.911751 794.247095,674.360258 795.8337,681.0137 C797.2847,687.0997 791.4457,684.8477 788.4127,684.5907 C783.4947,684.1737 778.6907,685.3277 773.3147,684.3637 L773.505126,688.073668 C773.860589,695.617236 773.779555,704.328714 767.5247,709.0547 C764.21454,711.55618 758.90603,713.833364 754.804249,715.429941 L753.7637,715.8307 C749.6437,717.4027 742.6657,720.8847 738.3737,720.6937 C735.3367,720.5587 734.1667,718.9237 730.8347,719.1847 C725.8907,719.5737 721.6107,722.8807 716.3697,720.1487 C706.4297,714.9677 711.3157,699.8987 717.5917,693.8597 L718.171351,693.30557 C719.642572,691.91406 721.284112,690.509406 723.1997,689.8397 C724.2317,689.4787 728.5507,689.9147 729.0487,689.3737 C730.8867,687.3787 728.5917,675.7087 728.3467,673.4937 L727.56742,666.496796 C726.5311,657.1375 725.5479,647.6767 725.1247,638.3407 L724.578872,626.525967 C724.253461,619.483175 723.939099,612.437237 723.6967,605.3987 C723.646273,603.928942 724.027725,601.504665 724.096151,599.369855 C723.00215,602.673029 714.729519,598.055139 712.401941,597.030187 L712.853154,601.391528 C715.255829,625.000815 716.919422,649.484358 708.598466,671.629582 L707.884647,673.498999 C705.946493,678.6354 703.643026,685.338483 698.8317,688.0587 C694.083913,690.744317 683.039852,690.430751 677.123183,690.721823 L676.7447,690.7417 C670.4947,691.0917 664.3767,689.6327 660.9327,683.7637 C658.2237,679.1457 659.8477,673.6057 665.4107,671.5917 C668.7417,670.3867 669.3907,671.1617 672.3087,672.5947 C672.9417,673.6227 673.3857,674.7277 673.6427,675.9097 L675.8857,675.9097 C678.9257,677.2657 691.0757,678.7827 694.4167,676.6187 C698.19651,674.173343 699.088887,667.658898 700.665095,663.605782 L700.7817,663.3137 C703.8477,655.8347 704.6597,649.7657 705.7727,641.7717 C707.5147,629.2597 705.7507,614.7517 705.7837,601.7157 L705.8002,596.2087 L705.8002,596.2087 L705.816756,590.036937 C705.854618,585.152544 706.171867,585.024367 703.1397,581.1987 C698.3717,575.1827 692.9357,569.0347 687.8317,563.2677 C690.5967,580.1167 689.4647,597.8567 688.3667,614.6427 C687.7507,624.0737 686.4747,633.6777 685.8897,642.9837 C685.7137,645.7797 687.7227,653.4897 684.4757,654.7257 C681.1807,655.9797 677.0797,650.1297 675.7487,648.0177 L675.148392,649.20779 C668.00489,663.273917 659.404097,676.699152 644.8277,683.9927 C637.1217,687.8487 629.0977,689.5877 620.6877,691.0997 C612.8967,692.5017 605.6967,695.0577 598.0157,696.2637 C582.1177,698.7587 567.4747,699.1117 551.4767,698.5667 C536.3837,698.0527 521.9317,700.8397 506.8867,697.3307 C501.0147,695.9617 495.0817,693.4467 491.0677,688.9517 C488.8777,686.4987 487.9087,682.6377 485.6997,680.3767 C485.2017,677.4507 483.4807,676.5487 480.5347,677.6687 C478.6847,677.7517 476.8417,677.6907 475.0057,677.4847 C459.9157,676.6927 443.1457,677.5757 428.5237,673.2657 L427.846155,673.061293 C422.486056,671.4042 416.889957,668.653105 419.5467,661.9887 C421.929469,656.0111 428.440231,657.706835 433.867128,658.266339 L434.1207,658.2917 C437.254668,658.595305 440.378972,658.948207 443.499169,659.330017 C443.273605,659.238389 443.048266,659.12833 442.823,659.0017 L448.459,659.0137 C447.773028,659.359421 447.087188,659.591565 446.401676,659.695871 C458.143184,661.190895 469.850904,663.008956 481.8217,664.0587 C481.3027,655.6277 481.7497,647.0267 485.0547,639.1397 C473.8607,637.7347 462.2557,635.6157 451.6047,632.0417 C448.3157,630.9377 445.0417,629.7907 441.7787,628.6107 L440.968658,628.310903 C436.508337,626.622991 437.351825,626.344521 434.4037,629.5567 C430.4897,633.8207 428.0937,642.7177 425.2577,647.8697 C422.0667,653.6677 419.0047,659.3997 416.3157,665.4517 C413.7707,671.1797 411.8727,678.8517 407.9947,683.7877 C399.552638,694.533762 380.168719,695.566244 368.530841,691.451942 L365.609371,690.39333 C361.864717,689.02517 359.963329,688.102396 357.212058,684.125683 L356.435067,682.98981 C353.235431,678.376895 352.020258,677.902458 346.041279,677.231706 L345.3437,677.1547 C332.7987,675.7877 320.9587,672.6387 309.2067,668.2907 C296.7907,663.6977 284.0417,660.1167 271.6617,655.1577 L264.38293,652.231701 C255.321476,648.594744 246.347279,645.081753 236.8807,642.2207 C235.4577,651.2647 241.3537,661.4637 241.3537,670.7877 L244.807029,670.443163 C249.940383,669.928996 254.891393,669.408455 260.031732,668.635163 L261.7527,668.3677 C264.2187,667.9717 279.7557,664.4857 281.2717,666.5427 C287.52751,675.03294 259.410233,679.071566 254.486738,680.250838 L254.3447,680.2857 C239.9437,683.9197 225.2587,687.2967 210.7667,690.1057 L206.339292,690.963112 C193.08474,693.5203 180.0531,695.8792 166.5387,696.3427 C141.1297,697.2137 106.0827,695.7457 107.2957,662.3627 C107.7717,649.2817 113.1607,635.0857 123.4727,626.5547 C129.8887,621.2467 137.8897,618.3287 145.7337,615.9267 C147.889636,615.266082 156.891144,613.949077 161.550692,612.84773 C161.431594,612.797462 161.309025,612.741937 161.1828,612.6808 L164.3628,611.8228 C160.204103,608.84247 153.19451,607.991832 148.1214,605.792203 L147.6037,605.5597 C142.7377,603.2937 137.6027,602.4497 132.6217,600.1657 C122.6687,595.6027 113.0557,590.0247 103.8527,584.3827 C96.5337,579.8947 89.1337,574.9397 82.3957,569.6047 L80.7131084,568.270685 C75.9709188,564.500085 71.4601737,560.780805 67.6307,556.4467 C65.3907,553.9117 61.4257,551.6667 59.6317,549.4837 C53.3317,541.8167 59.9757,526.5607 62.6587,517.6347 C66.5777,504.5877 71.8077,490.7047 79.5207,479.4027 C86.6137,469.0087 94.5217,462.0067 107.2447,459.5717 C118.9877,457.3247 130.7957,456.6127 142.8057,455.9817 C140.7877,448.3047 137.9467,442.8867 138.6677,434.4667 C139.327094,426.765367 143.117728,419.111989 146.216348,412.060041 L149.41564,404.704246 C154.264644,393.590728 159.209367,382.732533 165.8777,372.4167 C170.2757,365.6137 175.2157,359.1557 180.0167,352.6367 L180.166417,352.446339 C181.2711,351.101655 185.593264,346.708264 185.4187,345.4237 C185.2357,344.0777 180.4037,339.9797 179.6637,339.0407 L179.269599,338.535037 C174.518092,332.370489 171.4153,325.760673 177.0947,319.1897 L177.3435,318.908418 C180.598194,315.308266 189.192518,308.677856 193.3857,313.0337 C198.0407,303.6277 206.1827,297.2147 212.5217,289.2127 C220.4247,279.2347 227.9707,269.1047 235.3687,258.6537 C242.7347,248.2477 248.7517,237.0687 258.5157,228.6827 C269.3967,219.3377 279.6397,220.1457 293.0037,224.1407 L293.088293,223.601111 C293.849054,219.032408 295.009009,219.609118 299.8137,217.9507 C303.5877,216.6477 307.2557,215.1017 310.9667,213.6307 C314.582033,212.196117 318.2377,211.330401 321.927538,210.248665 L324.129581,209.593921 C328.434211,208.347317 329.181986,208.291129 329.9857,201.8697 C331.017142,193.6377 327.599946,184.944904 325.272983,177.147142 L325.1087,176.5917 C323.9607,172.6747 323.1627,167.7987 320.5797,165.1637 C318.2427,162.7807 314.0997,161.6957 311.5437,159.0607 C289.5217,136.3597 289.1747,87.8897 312.6327,66.7917 C317.1917,62.6907 320.9517,57.1737 326.6267,54.4047 C332.8577,51.3637 341.0767,48.9047 347.9397,47.4717 C354.373542,46.1290801 361.162974,45.590933 367.705677,46.3387746 Z M520.3267,632.9697 C513.5557,633.6467 506.0287,633.5957 499.6537,636.0347 L499.190778,636.208122 C495.24896,637.652927 495.1431,636.889955 493.4577,641.8787 C492.4227,644.9407 491.6787,648.4377 491.6587,651.6577 C491.6167,658.1647 493.6917,665.7697 496.3737,671.6277 C498.9277,677.2047 502.9627,683.1857 508.5127,686.1807 C514.9067,689.6337 523.9167,687.5787 531.4147,687.1867 C534.6837,686.7677 537.7917,686.6377 541.0917,686.6377 C533.6567,674.5847 528.0427,661.1057 527.9797,646.7437 C527.9717,644.8657 530.2307,634.0697 529.4837,633.1727 C528.0257,631.4247 521.9827,632.8047 520.3267,632.9697 Z M625.0027,623.8667 C616.8239,624.5415 608.87246,626.286024 600.799587,627.27907 L599.0677,627.4797 C590.6477,628.3907 579.3467,631.1997 571.1667,629.0947 C570.9537,632.4597 573.7677,636.9827 574.7477,640.4087 C575.849129,644.258986 576.849169,648.138659 577.769234,652.035755 L578.2227,653.9857 C579.3397,658.8597 586.2537,676.3817 579.9657,679.8847 C572.5847,683.9967 569.0617,666.3887 568.1427,662.0967 L567.852598,660.732214 C565.791488,650.953687 564.1687,641.180456 566.3617,631.3497 C556.9407,629.6517 545.5787,632.1737 535.8627,632.8427 C539.4827,645.5927 541.8177,658.9457 544.9987,671.8497 C545.5597,677.3907 547.7037,681.4017 544.0607,686.3857 L549.675408,685.97528 C554.808904,685.608313 559.916767,685.310433 565.0897,685.4417 C570.607495,685.582008 578.790187,686.815046 584.094055,684.634058 L584.5067,684.4547 C586.6597,683.4667 587.3917,685.1677 588.4987,683.2797 C589.5497,681.4857 587.0807,675.5317 586.7837,674.0547 C585.3597,666.9667 584.6657,659.6957 583.3717,652.5637 L583.264224,651.989035 C582.295108,646.94121 579.997511,637.845908 583.1547,633.3887 C587.075825,627.8507 589.213868,633.151145 590.552008,637.620083 L591.3627,640.4377 C595.5037,654.4827 595.2647,667.8217 595.2647,682.2527 C601.5017,682.2527 609.6957,679.5287 615.7107,677.8857 L618.845762,677.031514 C626.209872,675.026356 633.872575,672.9187 640.9067,670.3287 C648.4887,667.5377 655.1657,663.4647 659.9597,656.9087 L660.474408,656.196678 C664.247921,650.918586 671.405927,639.659245 669.5207,634.4837 C667.0997,627.8357 655.5537,623.2647 649.3877,622.5337 C641.3877,621.5847 633.1887,623.1917 625.0027,623.8667 Z M785.5572,685.637 L779.7832,685.524 L779.7832,685.524 L780.287828,685.440751 C782.054289,685.129467 783.822417,684.660043 785.5572,685.637 Z M416.2507,600.5797 C414.0617,602.0247 412.2687,608.5267 410.8617,610.8897 C408.6267,614.6437 406.0857,618.2137 403.6597,621.8457 C392.3097,638.8367 380.8727,655.3827 368.6867,671.7787 C368.4257,676.8097 380.7987,679.8927 384.5577,680.1947 C394.572425,680.997888 401.126676,676.681752 404.6617,668.145054 L404.8157,667.7657 C411.947129,649.847986 423.277767,634.018361 428.319853,615.29944 L429.243343,611.755929 C430.283387,607.713452 430.541729,605.474343 426.424041,603.058857 L426.1717,602.9137 C424.0567,601.7217 418.5497,599.0617 416.2507,600.5797 Z M179.575313,621.25974 L179.1117,621.3747 C167.0467,624.4407 148.0377,626.6167 139.0397,634.8867 C130.1257,643.0797 126.8817,670.7157 139.2237,677.3927 C142.4997,678.8497 147.0017,678.0677 150.5627,678.3477 C156.1277,678.7847 161.7497,679.7907 167.3517,679.6117 C175.8997,679.3397 184.8607,678.2587 193.4157,677.2807 C188.660828,668.705367 185.727808,660.574341 185.017178,650.832201 L184.786936,647.299744 C184.363502,640.222343 183.8266,624.10885 189.5097,624.9257 C192.7357,625.3897 192.0507,644.5777 192.6767,648.1127 C193.5867,653.2407 194.7607,658.4907 196.1897,663.5107 C197.2267,667.1517 200.7547,672.6047 199.8507,676.5427 L212.7917,674.4457 L212.7917,674.4457 C209.4377,667.7587 206.9877,661.7657 205.7317,654.3067 C205.1247,650.7067 205.5117,646.2267 204.3347,642.8077 C203.5927,640.6527 201.9007,638.6257 201.6747,636.8187 C201.4137,634.7337 203.6977,629.6107 202.8527,627.7587 C202.046414,625.989729 196.569889,624.35004 194.401262,623.33741 L193.398213,622.850466 C188.437221,620.484373 185.226238,619.894773 179.575313,621.25974 L179.575313,621.25974 Z M210.4267,631.2117 C212.2483,638.3415 213.94678,645.45267 215.409874,652.653102 L215.8887,655.0567 C216.9477,660.4867 220.5067,668.1577 218.6497,673.4707 L233.0827,671.5307 L233.0827,671.5307 C229.5137,663.4087 227.6357,654.7417 226.5757,645.9677 L226.504522,645.341388 C225.985455,640.472889 226.59686,638.94718 222.7127,636.0787 C219.5797,633.7647 214.0637,632.6527 210.4267,631.2117 Z M118.4137,656.6207 C116.9187,663.1157 118.1697,667.4787 123.3687,671.6777 C121.2167,662.3957 123.7947,653.1507 125.9807,644.1487 C122.9727,642.8147 118.9497,654.2897 118.4137,656.6207 Z M184.3797,470.3587 C160.2907,471.5377 133.3047,469.8527 110.1297,476.5717 L106.867663,477.5214 C97.7329046,480.221631 91.4853912,482.683715 85.9927,491.9907 C78.9117,503.9897 72.8617,516.4577 67.7107,529.4187 C66.9587,531.3117 65.2587,534.0417 65.3201731,536.1097 C65.4477,540.0587 66.8607,539.1487 70.6477,541.4007 C74.7397,543.8337 78.7507,546.7217 82.6597,549.4617 C89.3627,554.1597 97.6847,559.0647 104.6387,562.7287 C111.959825,566.5857 119.328419,570.094341 126.75788,573.885018 L129.9457,575.5287 C135.3387,578.3417 140.9207,580.6417 146.2107,583.7327 C151.9537,587.0897 158.3837,588.0457 164.5747,590.6667 C182.911222,598.430787 200.683229,605.631275 218.657358,614.346654 L221.1097,615.5447 C238.5536,624.1308 256.187927,631.4534 274.015255,639.000046 L276.8317,640.1937 C301.1127,650.4967 325.1537,660.0267 350.4767,667.1517 C352.3307,667.6737 356.2287,669.5137 358.0597,669.4297 C361.874315,669.254315 362.814222,666.533655 365.035591,663.411945 L365.2137,663.1647 C369.8357,656.8287 374.2877,650.3717 378.7087,643.8957 C388.2977,629.8467 397.6747,615.6417 407.9987,602.1137 C378.7437,593.9507 351.6177,578.8897 325.9007,563.4327 L325.761904,563.845091 C324.72671,567.079389 323.784338,573.370487 320.4237,574.3557 C316.0837,575.6297 312.9307,569.6167 310.9857,566.8517 L310.846914,567.21075 C308.987473,572.189623 305.849219,586.889354 300.1027,586.5597 C291.9617,586.0917 293.3987,573.2777 292.3847,568.1937 L291.310364,569.612198 C287.071446,575.140129 282.215099,580.294868 276.5967,571.8447 C272.3697,565.4857 272.8387,554.3257 274.1077,547.2357 C274.7877,540.6917 275.6607,534.4177 277.1327,527.9967 C278.0377,524.0517 281.8597,515.9507 280.6027,512.2347 C279.6787,509.5037 274.1867,507.1287 272.0477,505.6427 C265.8597,501.3437 259.8167,496.8207 253.6907,492.4337 C248.3187,488.5867 242.8667,484.8317 237.5957,480.8467 C232.7137,477.1567 229.0287,472.5667 223.1207,470.9847 C217.9517,469.5997 211.3927,470.5037 206.0387,470.3257 C198.8537,470.0867 191.5577,470.0077 184.3797,470.3587 Z M524.4447,454.6607 C523.6437,455.5637 525.0217,466.5097 524.8277,468.4607 L524.762508,469.158755 C524.452203,472.654853 524.169958,477.827023 522.1147,480.5287 C521.2717,481.6367 518.0617,482.8647 516.9017,483.7277 C513.1327,486.5307 509.6497,490.0137 505.9007,492.9197 C497.7147,499.2647 489.7417,505.8487 481.3887,511.9857 C475.4857,516.3227 468.7287,518.4697 462.1717,521.6207 C466.733033,522.437144 475.562171,518.162626 480.354316,516.670997 L480.6747,516.5737 C486.7737,514.7697 492.7587,512.7647 498.9967,511.1127 C511.7867,507.7257 524.8907,503.9027 537.8897,500.2967 L541.104188,499.404879 C548.109162,497.456389 555.337567,495.384767 562.0447,492.8437 C565.4777,491.5427 568.1727,488.5187 570.4407,491.5967 C572.2497,494.0537 570.0607,497.2867 568.6697,499.1077 C560.5547,509.7277 538.5167,512.3117 526.7217,516.7177 L523.396954,517.964808 C511.216561,522.549256 499.13245,527.2157 486.5677,530.4167 C470.940843,534.398581 454.010353,537.467538 439.33633,544.275794 L438.2667,544.7807 C426.234478,550.557644 412.64832,552.894948 399.811142,556.225673 L398.7127,556.5137 C386.3557,559.7887 371.7017,560.4447 360.0227,566.0047 C365.0677,569.9887 372.5317,572.0667 378.4117,574.7457 C385.6097,578.0247 392.8827,581.0157 400.0017,584.4907 C403.0317,585.9697 406.2027,588.1677 409.2687,589.3967 C413.0495,590.9131 412.68663,590.179782 416.347988,589.846043 L419.588431,589.577885 C425.36631,589.117053 432.133737,588.875663 436.4637,592.7567 C442.5947,598.2517 438.7097,604.2717 439.6097,610.9947 L439.705497,611.678984 C440.263531,615.458594 440.791168,614.923482 445.39474,615.532943 L445.6597,615.5687 C450.3707,616.2157 455.0767,616.9707 459.7237,617.9777 C465.078233,619.138767 470.550367,621.033309 475.799437,622.742595 L476.9207,623.1057 C485.44816,625.85043 486.495849,629.072634 495.135656,625.742956 L495.5597,625.5767 C521.2827,615.3247 547.8877,606.8977 573.7747,597.1967 C585.358014,592.856357 596.989456,584.598826 607.933822,578.194804 L610.408311,576.757486 C624.207358,568.690068 636.659805,559.854367 646.0677,546.5077 C650.5117,540.2037 655.1457,529.5547 654.2117,521.7277 C653.39811,514.908162 648.461383,507.347161 645.120994,501.396131 L644.8607,500.9297 C640.976633,493.928722 637.51593,490.830985 631.998567,486.474504 L630.3227,485.1587 C625.7887,481.6107 618.7837,474.1167 613.0667,474.1637 C609.2947,472.9847 605.5467,471.9367 601.8567,470.6157 C600.8867,468.5577 599.2757,467.9337 597.0247,468.7437 C595.1807,468.9087 593.3867,468.6807 591.6437,468.0577 C583.9367,466.7407 575.3997,465.0307 568.0357,462.8087 C562.073882,461.009609 556.421155,459.401427 550.436647,458.006694 L548.285528,457.515611 C543.744434,456.45236 526.980233,451.803967 524.4447,454.6607 Z M190.1637,350.4067 C179.3597,373.9157 164.2177,395.7197 152.3267,418.7747 C147.6297,427.8807 145.1467,441.6537 152.2897,450.4777 C159.8067,459.7647 173.8237,456.1497 184.4347,456.6417 C195.6337,457.1617 205.8497,458.4307 216.8957,461.6067 C221.8927,463.0447 226.4417,462.6197 231.2447,464.9277 C236.8777,467.6337 242.4177,471.1097 247.7767,474.3177 C257.836655,480.338973 267.265177,487.808074 276.757191,494.735037 L278.528265,496.024724 C283.488121,499.704577 303.80546,516.09264 286.8227,513.4717 C286.8227,529.8487 283.9537,546.6207 282.4477,562.9187 C286.5997,557.9607 289.5607,552.9217 292.0727,546.9647 C293.5667,543.4207 293.5857,534.3767 298.5647,536.5207 C306.0547,539.7447 300.2207,563.4377 300.2207,569.8467 C302.0767,566.2607 303.3767,562.3987 304.7127,558.5987 C305.7247,555.7197 306.9897,547.5567 309.1017,545.6257 C316.101,539.22832 317.142272,556.437629 317.162398,560.351214 L317.161856,560.464681 L317.409538,559.742038 C319.483623,553.455165 319.882219,546.780441 320.1037,540.1697 C320.1937,537.4617 319.5247,533.2477 320.2087,530.6277 L320.506978,529.490989 C321.364267,526.295805 321.651412,526.3682 325.7847,524.6997 L326.5937,533.6427 C326.9927,537.5067 324.7347,553.4337 326.9717,555.8837 C330.7967,560.0737 340.1787,555.1837 343.8087,553.9357 C355.6007,549.8817 369.3067,550.7687 381.3147,547.5587 C392.9637,544.4447 404.3577,540.4097 416.0717,537.2377 C422.3557,535.5347 428.3197,532.8667 434.5007,530.8397 C441.3817,528.5827 449.0627,527.3457 455.4437,523.9507 C454.6616,522.00733 427.593218,526.615929 424.00713,526.955721 L423.9057,526.9647 C413.0067,527.8497 402.7457,526.1687 392.0037,524.1937 C368.3097,519.8357 345.9847,509.5017 322.5967,502.7977 C323.6927,513.5837 354.0467,515.7317 350.4307,528.2487 C349.4217,531.7377 335.8427,537.4407 331.3517,535.2517 C322.2277,530.8027 333.3887,524.5417 337.9367,522.9807 C331.0137,519.0117 324.3887,514.7057 318.0697,509.8147 C311.3047,504.5787 308.3937,497.2327 304.7677,489.6527 C297.1887,473.8047 279.2527,464.5857 265.3207,454.7197 C251.141876,444.679229 236.098499,436.055174 221.825467,426.20135 L219.1587,424.3387 C216.4717,422.4387 215.2167,423.3107 214.2727,419.8417 C213.286188,416.213095 216.803649,411.624737 218.646033,408.773378 L218.7747,408.5727 C223.5087,401.1227 229.0227,394.0717 235.2767,387.8357 C227.2117,382.3467 218.4997,377.8157 210.9367,371.6027 C203.2707,365.3047 196.9267,357.6167 190.1637,350.4067 Z M938.0077,403.5607 C941.9917,429.5117 940.7527,454.1157 938.0667,480.1577 C936.6407,493.9857 934.6277,507.7067 933.7047,521.5947 C933.4607,525.2627 933.3817,528.9747 933.0637,532.6357 C932.8757,534.7927 930.7397,538.8797 930.7207,539.9387 C930.6157,545.8177 936.9097,556.1107 938.9757,561.5097 L938.992449,562.033404 C939.075635,564.119416 939.385931,566.089546 941.1047,567.5757 C945.2347,554.4967 946.5247,541.4117 948.2357,527.8107 L949.130161,520.685911 C950.534528,509.367895 951.81683,497.900874 952.0407,486.6727 C952.334567,471.947467 950.999697,455.971947 948.684657,441.328664 L948.232921,438.524723 C946.398888,427.005657 944.767609,413.210555 938.0077,403.5607 Z M453.1737,199.8697 C443.118332,201.575911 433.399528,203.08108 423.246946,203.73305 L421.5507,203.8337 C419.699745,203.934396 417.036416,204.238599 414.3939,204.223468 C413.670466,204.515732 412.661483,204.80353 411.716398,204.836805 C412.411505,205.463143 413.343707,206.785141 414.5767,209.0227 C418.5137,216.1677 418.8027,227.7577 417.9047,235.5927 C413.6117,273.0707 375.6207,287.0917 342.8617,278.0697 C326.0567,273.4407 313.9467,261.0507 304.9307,246.4657 C302.8277,243.0647 300.9037,239.5547 299.0247,236.0257 C298.2737,234.6157 297.6127,232.6467 296.6107,231.4097 L296.243364,230.949758 C292.931981,226.739091 296.402733,229.243467 292.3727,228.6567 C285.9207,227.7187 275.7677,232.6597 270.9767,236.5747 C257.9777,247.1957 250.7777,264.1857 240.8007,277.5717 C230.1787,291.8217 216.6887,304.5047 203.1567,315.8747 L249.0767,362.9087 L249.495218,362.438049 C252.740913,358.733861 258.285487,351.209551 259.0907,346.7287 C259.5837,343.9857 257.3707,334.9577 264.1767,338.9757 C268.7717,341.6897 270.5147,353.3027 271.9477,358.0537 C274.1617,365.3917 277.8897,372.3017 280.2997,379.5637 C284.425854,392.001238 289.435605,404.33738 293.783429,416.834826 L294.8557,419.9627 C296.7177,425.4807 302.0267,432.3287 296.9257,437.0007 C289.1727,444.0987 286.8677,430.1237 284.8147,424.7847 C281.9557,428.7597 282.3267,435.2047 280.8527,439.8407 C279.9527,442.6727 277.2117,447.0807 277.3027,449.8707 C277.4577,454.6417 281.7887,456.0617 285.6917,458.7277 L288.117712,460.378107 C294.598601,464.775243 301.1427,469.171589 307.0547,474.3067 C309.8297,476.7167 312.3827,479.1547 314.4077,482.2547 C316.1757,484.9617 316.7077,491.0637 318.6617,492.9477 C321.2177,495.4097 330.6657,493.6937 335.6547,494.2297 C343.638575,495.088367 351.725311,497.845372 359.503885,499.947441 L360.5167,500.2177 C374.8287,503.9837 389.5487,509.4067 404.5377,511.4187 C418.898676,513.346505 432.396356,512.459795 446.669718,509.97132 L447.7417,509.7817 C455.7557,508.3437 464.3627,506.6257 471.6757,502.7717 C480.0987,498.3337 487.5677,491.2337 495.4357,485.8717 C497.783033,484.2717 500.166367,482.729922 502.561404,481.205774 L507.100719,478.329526 C510.800001,475.9537 509.736057,476.2007 510.0267,471.7157 L510.073732,471.086119 C510.551422,465.355801 512.587918,455.267755 508.9897,450.4727 C507.4297,448.3957 502.6447,446.8767 500.3917,445.3657 C497.1167,443.1667 494.1797,440.6127 490.6697,438.8437 L490.23571,438.6319 C486.826277,437.022985 486.654975,438.255935 484.9467,433.7047 C483.3307,429.4027 482.2647,424.8967 480.7817,420.5497 C473.9957,400.6667 472.2427,380.4737 469.4307,359.7127 L469.283799,358.666537 C467.90349,349.137169 465.048343,336.6122 468.5487,327.5537 C473.5967,314.4887 477.8207,332.7607 478.8857,337.4437 C483.7047,329.1897 486.4737,320.0097 491.4867,311.8607 L492.376922,310.40732 C494.71862,306.557524 496.016164,304.123914 497.4867,299.4757 C498.1537,297.3677 498.4207,295.6167 499.8307,293.8657 C502.8137,290.1617 503.2547,292.2727 506.3557,292.1817 C515.415771,291.916129 524.331848,292.113583 533.378555,292.505042 L535.4687,292.5987 C540.8657,292.8487 546.2637,292.9807 551.6987,292.9607 C554.3467,292.9507 557.0267,292.8217 559.6727,292.9737 C561.0987,292.9587 562.5177,293.0647 563.9297,293.2927 C566.8437,294.6527 567.9557,293.4807 567.2667,289.7757 C569.8037,284.4687 569.6347,276.0007 570.5327,270.2107 C571.2559,265.5483 571.93686,260.8795 572.567388,256.203276 L573.0307,252.6947 C573.4337,249.5677 576.8237,237.7687 575.0247,235.1997 C573.2417,232.6527 563.9507,233.2237 561.2017,232.7667 C542.9257,229.7287 525.9257,222.1977 508.8317,216.0277 C500.4157,212.9907 492.4277,208.8897 484.3557,205.1637 C480.1537,203.2237 476.1827,199.2287 471.7537,197.9847 C466.1647,196.4147 458.7447,198.9247 453.1737,199.8697 Z M263.0387,366.1097 C259.3797,369.6087 255.1667,372.0527 255.1217,376.6117 C255.0967,379.2177 256.8337,380.8437 255.8267,383.7957 C255.14798,385.78386 252.350502,388.397786 250.843153,389.965328 L249.494114,391.395781 C246.400282,394.655617 246.100446,394.452768 242.0967,390.6727 L221.8457,419.8787 L221.8457,419.8787 L269.3497,447.0417 C271.3307,440.2027 272.2417,433.0727 274.0987,426.1797 C275.4207,421.2807 278.8217,414.3607 278.6067,410.0597 C278.2857,403.6387 273.3127,395.1147 271.1447,388.9937 L263.0387,366.1097 Z M698.2596,368.2752 C698.9636,370.7372 696.6086,376.2192 696.1826,378.6292 L695.948941,379.975214 C695.230224,384.223549 694.74079,388.350771 695.2746,392.7072 C700.76514,387.79284 703.481997,375.409138 708.997598,387.841823 L709.1656,388.2262 C711.2066,392.9652 711.4306,400.7692 716.8646,393.5712 C719.7656,389.7272 719.9516,382.6312 721.3096,378.1022 C730.5726,380.3172 728.8846,394.0152 725.7926,400.6892 C720.8686,411.3162 714.1696,407.8942 707.0576,401.7232 L705.0106,398.5002 L705.0106,398.5002 L704.625911,398.903272 C699.996745,403.659264 694.911384,405.456714 690.2596,399.2112 C685.585973,392.9392 687.014077,383.69336 688.808875,376.598191 L689.163451,375.241539 C690.283204,371.187799 695.13144,357.3433 698.2596,368.2752 Z M183.8167,327.9907 C193.0667,337.2497 201.1567,347.8037 210.9867,356.4307 C215.364986,360.273271 219.837312,364.023271 224.326852,367.739266 L226.5727,369.5947 C231.0177,373.2607 238.0867,381.3427 243.8717,382.4647 L244.045387,381.778935 C244.825454,378.804743 246.244144,374.44833 245.8247,371.6437 C247.5127,369.8977 246.9887,368.6227 244.2527,367.8167 C242.5787,366.5297 240.9237,365.2217 239.2847,363.8897 C232.8547,358.5227 226.7697,352.6927 220.6767,346.9517 C214.6197,341.2457 209.0167,335.2757 203.7587,328.8287 L203.306983,328.263197 C200.799678,325.062904 199.116311,321.974256 194.8257,321.0317 C189.4287,319.8467 187.6327,324.0547 183.8167,327.9907 Z M582.7557,235.7457 C582.1087,236.4077 582.3557,246.1847 582.2707,247.3037 C581.9807,251.1387 581.5517,254.9637 581.1337,258.7867 C579.4387,274.3067 576.2217,289.3307 573.8097,304.7227 C579.7697,301.0247 588.3827,306.0667 593.4737,302.0637 C597.4967,298.9007 596.8937,288.7787 597.1937,284.3127 C598.1977,269.3647 598.5407,254.3797 599.0157,239.4077 L598.510695,237.517133 C597.783634,234.910736 597.598646,235.593914 594.0107,235.0937 L593.853198,235.079786 C592.310723,234.986261 583.295242,235.195617 582.7557,235.7457 Z M609.5507,234.4027 C613.113835,241.705508 610.377432,252.989654 610.404832,260.98239 L610.4097,261.4487 C610.5517,269.4197 609.5617,277.1247 608.1587,284.9847 C616.6457,284.9847 627.2687,282.0547 635.8357,280.7457 C645.186325,279.31695 654.709216,279.15822 664.236281,278.203804 L666.1417,278.0017 C669.4817,277.6247 672.7877,277.3917 676.1447,277.2187 C671.2397,270.3167 666.7847,263.1027 662.7177,255.6767 C660.7247,252.0387 658.8427,248.3427 657.0407,244.6067 C654.9717,240.3197 655.0287,237.5207 650.5347,236.6687 C644.3117,235.4897 635.9887,237.8457 629.5867,237.5777 C624.6407,237.3697 613.5347,232.7157 609.5507,234.4027 Z M723.423,247.8514 C718.91,254.0344 713.334,250.4984 711.92,245.0554 C711.2,242.2794 711.839,238.9344 710.896,235.8384 C709.736,232.0264 708.181,228.3134 706.938,224.5254 C716.636,221.8254 729.714,239.2314 723.423,247.8514 Z M814.687142,236.226349 L814.624441,236.274589 C814.1947,236.615478 813.822033,237.1927 813.4407,238.3417 C812.884897,240.014331 813.581403,242.873593 814.155377,245.118616 C813.587029,241.187104 813.548574,237.772067 814.586651,236.35345 L814.687142,236.226349 Z M654.0137,205.8037 C651.848959,206.777256 655.748745,213.819047 656.636188,215.576959 L656.7247,215.7557 C658.4677,219.3737 660.5927,226.8497 664.7197,224.7917 L654.0137,205.8037 Z M822.9697,162.5687 C812.1297,164.2467 805.6107,173.1607 800.1387,181.6547 C805.6947,180.9717 825.2817,172.0297 827.5567,176.8657 C830.8617,183.8917 810.2907,190.1737 808.2567,196.3387 C812.4677,197.8257 821.7557,192.0577 819.1427,201.6547 C818.6967,202.9977 817.9187,204.1097 816.8107,204.9907 C814.8877,205.6717 814.4327,206.9547 815.4447,208.8407 C814.5837,212.5997 814.7597,217.3557 814.2097,221.2837 L812.6017,223.8667 L812.6017,223.8667 C814.656687,225.184025 826.561728,211.966646 829.46771,209.297922 L829.5737,209.2017 C833.1817,205.9687 838.8917,201.6517 840.5187,196.9247 C842.4097,191.4317 840.5497,182.7597 840.0917,177.0797 C839.7647,173.0147 840.4597,167.3927 837.1457,164.5527 C834.0957,161.9397 826.5817,162.0097 822.9697,162.5687 Z M592.3076,219.1338 L587.3676,219.0908 L587.3676,219.0908 C589.0226,218.1328 590.6666,218.4068 592.3076,219.1338 Z M406.5465,108.6303 C410.5315,113.7803 417.4735,114.9053 418.0845,122.6953 C418.4615,127.4913 418.1005,129.7213 420.0765,134.4313 C421.8955,138.7673 424.0575,142.9253 425.5835,147.3873 L425.913767,148.367898 C428.194916,155.244752 431.212078,166.650456 426.9335,172.8553 C423.1475,178.3463 413.9545,182.5323 407.9765,184.8803 C404.9825,186.0553 400.8315,186.7713 398.4095,189.0603 C395.2485,192.0463 396.2325,193.8813 396.4585,198.4263 L396.501419,198.880897 C396.913814,202.799762 398.762382,211.624359 396.1625,214.3943 C392.5755,218.2193 390.8755,213.2993 389.3245,209.4203 C386.0825,201.3143 384.4715,185.6173 390.8775,178.8623 C397.5655,171.8083 410.7795,171.6183 417.9165,164.5933 L419.01745,163.512317 C420.698383,161.834753 420.468457,161.688909 420.2565,157.9483 C420.1155,155.4573 418.5045,152.1473 417.7255,149.9083 C415.7005,144.0903 413.4795,138.3423 411.3615,132.5583 C407.6605,134.2453 402.3345,139.4493 398.6885,135.0873 C395.3185,131.0543 400.9255,124.4463 404.8305,123.2673 C402.7915,118.8103 393.1865,119.6343 391.3565,113.0873 C389.7665,107.3973 394.3345,109.6583 395.3335,107.4173 C396.5095,104.7803 394.1015,101.2153 395.3405,98.7853 C399.6415,90.3483 404.4045,105.8613 406.5465,108.6303 Z M739.4902,163.3325 C742.7852,168.8275 736.5522,178.8765 735.4232,184.5185 C740.9422,183.8795 754.6012,170.5665 758.4452,172.7615 C766.4482,177.3295 749.5432,193.2615 746.2952,195.5965 C720.3362,214.2545 725.0162,160.2835 739.4902,163.3325 Z M803.6407,143.6627 C800.6557,145.5487 798.3587,151.5937 796.5177,154.5467 L795.367457,156.393535 C792.891198,160.38222 790.535367,164.311167 788.6287,168.6367 C792.3657,167.1007 794.5687,163.7607 797.9097,161.9347 C800.1927,160.6877 802.2747,160.5677 804.4737,159.6587 C809.3367,157.6507 815.9957,155.6817 820.3437,152.7617 L819.950748,152.245252 C816.227449,147.300303 810.938079,139.054286 803.6407,143.6627 Z M408.6465,149.4981 C416.0225,155.6971 400.9515,170.8101 393.3965,158.9761 L393.140594,158.562225 C391.292593,155.471452 391.071606,152.698951 394.0215,151.5481 C395.5775,150.9421 399.2465,152.9271 401.4425,152.5761 C403.8495,152.1911 406.4645,150.4981 408.6465,149.4981 Z M382.3652,104.071 C387.3702,106.527 391.5062,125.3 383.3032,124.71 C380.4412,121.14 372.3982,99.18 382.3652,104.071 Z M918.5594,700.792 C916.9004,701.839 915.2364,701.812 913.5684,700.814 L918.5594,700.792 L918.5594,700.792 Z M139.2241,677.3926 L147.7541,677.8996 L147.7541,677.8996 C144.8981,677.9376 142.0041,678.6296 139.2241,677.3926 Z M252.6411,670.1534 L248.3781,670.0854 L248.3781,670.0854 C249.8161,669.1004 251.2331,669.3114 252.6411,670.1534 Z M639.789,607.0622 L634.832,606.9502 L634.832,606.9502 C636.513,605.7562 638.148,606.5442 639.789,607.0622 Z M687.8315,563.2677 C691.5585,567.4787 694.6915,572.1777 698.4195,576.3857 C699.9015,578.0567 701.7185,579.4967 703.1405,581.1987 L703.526447,581.665397 C706.337908,585.105193 705.8135,585.4807 705.8135,590.7017 C697.1465,584.0047 689.5905,573.9897 687.8315,563.2677 Z M668.3202,513.6557 C671.1902,523.2537 677.8482,535.3107 675.3662,545.4327 C671.2062,535.8507 667.5952,524.2277 668.3202,513.6557 Z M564.1562,306.8296 C564.0832,305.4756 563.3622,304.7936 561.9922,304.7846 C564.7422,303.2986 565.4642,303.9806 564.1562,306.8296 Z M814.21,221.2842 C815.278,222.3142 813.874,224.6822 812.602,223.8662 L814.21,221.2842 Z M418.0506,120.9402 C418.7806,122.0992 419.0146,123.2632 418.1196,124.4492 L418.0506,120.9402 L418.0506,120.9402 Z M555.968859,643.465475 L556.0428,643.6413 C559.7698,652.4373 561.9318,662.6413 561.5098,672.1783 C562.3338,674.5953 562.0308,680.2183 559.6928,681.9213 C554.8418,685.4573 554.3428,679.0003 553.3798,675.5123 C550.7088,665.8373 546.4078,655.0333 545.3118,645.0863 L545.255964,644.533053 C544.968839,641.391474 545.026646,636.260935 548.8298,635.2913 C552.654964,634.317336 554.626419,640.249232 555.968859,643.465475 L555.968859,643.465475 Z M178.9823,678.5782 L174.7803,678.6382 C176.1653,677.5062 177.5713,677.8532 178.9823,678.5782 Z M326.3413,493.7388 L330.8133,493.8028 C329.3073,494.8398 327.8253,494.1868 326.3413,493.7388 Z M190.9282,456.8506 L195.3532,456.8966 L195.3532,456.8966 C193.8692,457.7296 192.3942,457.7516 190.9282,456.8506 Z M541.3588,440.5555 C539.8858,441.4235 538.4068,441.2605 536.9248,440.5835 L541.3588,440.5555 Z" id="Shape" fill="#a34f2b"/></g></svg>