<?xml version="1.0" standalone="no"?>
<!DOCTYPE svg PUBLIC "-//W3C//DTD SVG 20010904//EN"
 "http://www.w3.org/TR/2001/REC-SVG-20010904/DTD/svg10.dtd">
<svg version="1.0" xmlns="http://www.w3.org/2000/svg"
 width="942.000000pt" height="887.000000pt" viewBox="0 0 942.000000 887.000000"
 preserveAspectRatio="xMidYMid meet">

<g transform="translate(0.000000,887.000000) scale(0.100000,-0.100000)"
fill="#000000" stroke="none">
<path d="M4205 8859 c-748 -94 -1409 -345 -2024 -767 -759 -521 -1349 -1294
-1663 -2177 -339 -954 -339 -2016 0 -2970 165 -465 414 -914 721 -1299 626
-784 1531 -1350 2506 -1566 147 -32 219 -43 425 -65 201 -21 884 -21 1054 0
67 8 157 19 202 25 117 15 375 80 565 144 889 297 1711 898 2290 1676 630 846
944 1826 890 2775 -6 117 -18 268 -27 336 -151 1254 -849 2410 -1885 3121
-609 419 -1285 676 -2001 763 -97 11 -225 15 -555 14 -235 -1 -459 -6 -498
-10z m826 -129 c755 -59 1449 -297 2076 -712 860 -570 1505 -1463 1769 -2447
118 -442 162 -803 151 -1241 -11 -427 -76 -769 -227 -1205 -435 -1250 -1525
-2340 -2775 -2775 -434 -151 -779 -216 -1205 -227 -1152 -29 -2269 405 -3089
1202 -434 422 -746 875 -980 1423 -675 1578 -330 3443 864 4671 751 772 1711
1225 2775 1310 154 12 486 13 641 1z"/>
<path d="M5912 7145 c-289 -55 -508 -217 -745 -549 -39 -56 -51 -66 -68 -61
-13 4 -471 -106 -1190 -285 -1166 -292 -1262 -319 -1202 -341 10 -4 107 -10
214 -14 594 -21 1172 92 1694 333 125 57 296 150 398 215 43 27 80 48 82 45
13 -13 -155 -324 -257 -476 l-63 -94 -1180 -424 c-649 -233 -1187 -424 -1195
-424 -8 0 -10 -3 -5 -9 6 -5 75 -19 155 -32 129 -21 178 -24 440 -24 239 0
315 3 400 18 129 22 278 59 366 91 57 21 65 22 61 8 -5 -16 -58 -131 -218
-474 -256 -548 -352 -875 -394 -1338 -53 -578 60 -1193 335 -1825 29 -66 56
-124 60 -128 9 -10 140 218 206 359 136 291 221 577 275 919 27 166 37 573 20
767 -31 352 -118 744 -246 1104 -25 70 -45 133 -45 142 0 8 26 60 57 114 52
90 59 97 71 81 25 -34 190 -378 226 -471 167 -431 248 -913 217 -1301 -42
-528 -185 -973 -496 -1541 l-47 -85 89 94 c359 384 602 776 708 1144 49 168
66 283 72 466 6 195 -5 320 -43 471 -100 402 -297 754 -643 1149 -84 96 -90
106 -78 125 8 12 69 116 136 231 l123 210 90 65 c118 85 323 287 427 422 46
58 90 110 99 113 10 4 46 17 82 30 36 13 117 42 180 65 l115 41 -35 -38 c-20
-21 -91 -96 -158 -166 l-122 -128 0 -142 c0 -413 83 -935 210 -1332 238 -746
665 -1330 1318 -1803 62 -45 115 -82 118 -82 7 0 -4 268 -17 420 -83 936 -522
1768 -1302 2465 l-78 70 -6 121 c-8 165 15 347 69 537 22 77 22 78 110 152
368 314 808 538 1246 635 l102 23 0 104 0 104 -46 19 c-91 39 -221 82 -306
101 -117 26 -293 32 -386 14z"/>
<path d="M4117 6655 c-366 -52 -722 -200 -1057 -438 -75 -54 -230 -175 -230
-180 0 -2 2116 526 2140 535 16 5 -158 50 -290 74 -120 22 -438 27 -563 9z"/>
<path d="M5200 5596 c0 -2 49 -43 109 -90 150 -118 347 -297 435 -395 17 -19
45 -49 63 -67 47 -47 208 -248 256 -318 23 -34 48 -69 57 -79 9 -9 23 -30 31
-45 7 -15 32 -56 54 -92 55 -88 196 -376 225 -460 7 -19 16 -44 21 -55 22 -51
79 -237 99 -325 69 -301 94 -516 94 -823 1 -108 3 -197 6 -197 3 0 13 33 23
73 10 39 20 81 23 92 14 51 26 103 31 138 3 20 9 40 14 43 5 3 9 23 9 44 0 21
5 42 10 45 6 3 10 28 10 54 0 26 4 51 9 57 5 5 12 43 16 84 12 115 9 597 -3
670 -6 36 -14 83 -17 105 -4 22 -10 49 -14 60 -5 11 -14 40 -21 65 -6 25 -16
53 -21 62 -5 10 -9 24 -9 32 0 22 -84 221 -100 236 -3 3 -12 19 -20 35 -24 48
-116 189 -164 252 -47 61 -250 263 -327 325 -136 109 -559 358 -608 358 -6 0
-11 5 -11 10 0 6 -11 10 -25 10 -14 0 -25 5 -25 10 0 6 -7 10 -15 10 -8 0 -23
4 -33 9 -9 5 -28 13 -42 19 -14 6 -47 20 -74 31 -47 20 -66 25 -66 17z"/>
<path d="M4682 5500 c-113 -388 -157 -676 -156 -1020 0 -185 4 -248 22 -354
120 -699 514 -1191 1242 -1551 191 -95 391 -180 410 -173 6 2 -30 32 -79 68
-139 102 -276 216 -390 325 -146 141 -325 339 -399 444 -94 134 -152 221 -152
231 0 5 -4 10 -10 10 -5 0 -10 5 -10 11 0 6 -9 24 -20 39 -31 43 -120 213
-153 290 -27 63 -44 104 -66 152 -11 26 -21 54 -21 62 0 8 -4 18 -10 21 -5 3
-10 17 -10 30 0 13 -4 27 -10 30 -5 3 -10 17 -10 30 0 13 -4 27 -10 30 -5 3
-10 19 -10 35 0 16 -4 32 -10 35 -5 3 -10 19 -10 35 0 16 -4 32 -10 35 -5 3
-10 19 -10 34 0 15 -4 31 -9 36 -5 6 -12 29 -15 53 -3 23 -9 61 -12 85 -3 23
-10 46 -15 52 -5 5 -9 34 -9 65 0 31 -4 60 -9 65 -15 15 -22 134 -29 500 -6
303 -8 335 -20 295z"/>
<path d="M3370 4923 c-403 -455 -644 -897 -736 -1349 -32 -160 -44 -436 -25
-602 39 -341 173 -689 396 -1033 90 -139 333 -454 365 -474 5 -3 -18 52 -52
122 -200 422 -319 852 -359 1293 -16 183 -6 560 20 745 60 421 206 862 423
1273 38 72 68 132 66 132 -2 0 -46 -48 -98 -107z"/>
</g>
</svg>
